a0000-p0300.ufo
<glyph name="dollar" format="1">
  <advance width="477"/>
  <unicode hex="0024"/>
  <outline>
    <contour>
      <point x="223" y="-144" type="line"/>
      <point x="291" y="-144" type="line"/>
      <point x="291" y="29" type="line"/>
      <point x="223" y="28" type="line"/>
    </contour>
    <contour>
      <point x="218" y="716" type="line"/>
      <point x="287" y="716" type="line"/>
      <point x="287" y="884" type="line"/>
      <point x="218" y="884" type="line"/>
    </contour>
    <component base="S" xOffset="1"/>
  </outline>
</glyph>
<glyph name="ampersand" format="1">
  <advance width="602"/>
  <unicode hex="0026"/>
  <outline>
    <contour>
      <point x="553" y="83" type="line"/>
      <point x="559" y="83" type="line"/>
      <point x="590" y="147" type="line"/>
      <point x="590" y="152" type="line"/>
      <point x="361" y="307" type="line" smooth="yes"/>
      <point x="234" y="390"/>
      <point x="185" y="458"/>
      <point x="185" y="551" type="curve" smooth="yes"/>
      <point x="185" y="639"/>
      <point x="226" y="683"/>
      <point x="305" y="683" type="curve" smooth="yes"/>
      <point x="343" y="683"/>
      <point x="386" y="672"/>
      <point x="435" y="650" type="curve"/>
      <point x="440" y="650" type="line"/>
      <point x="453" y="711" type="line"/>
      <point x="453" y="716" type="line"/>
      <point x="394" y="741"/>
      <point x="347" y="752"/>
      <point x="300" y="752" type="curve" smooth="yes"/>
      <point x="174" y="752"/>
      <point x="106" y="685"/>
      <point x="106" y="560" type="curve" smooth="yes"/>
      <point x="106" y="437"/>
      <point x="160" y="361"/>
      <point x="328" y="242" type="curve" smooth="yes"/>
    </contour>
    <contour>
      <point x="268" y="-11" type="curve" smooth="yes"/>
      <point x="442" y="-11"/>
      <point x="532" y="109"/>
      <point x="532" y="342" type="curve" smooth="yes"/>
      <point x="532" y="413" type="line"/>
      <point x="459" y="409" type="line"/>
      <point x="459" y="342" type="line" smooth="yes"/>
      <point x="459" y="149"/>
      <point x="399" y="57"/>
      <point x="272" y="57" type="curve" smooth="yes"/>
      <point x="180" y="57"/>
      <point x="121" y="116"/>
      <point x="121" y="210" type="curve" smooth="yes"/>
      <point x="121" y="280"/>
      <point x="150" y="328"/>
      <point x="207" y="355" type="curve"/>
      <point x="178" y="416" type="line"/>
      <point x="170" y="405" type="line"/>
      <point x="86" y="373"/>
      <point x="41" y="304"/>
      <point x="41" y="206" type="curve" smooth="yes"/>
      <point x="41" y="71"/>
      <point x="128" y="-11"/>
    </contour>
  </outline>
</glyph>
<glyph name="asterisk" format="1">
  <advance width="476"/>
  <unicode hex="002A"/>
  <outline>
    <contour>
      <point x="232" y="629" type="line"/>
      <point x="244" y="629" type="line"/>
      <point x="248" y="634" type="line"/>
      <point x="268" y="758" type="line"/>
      <point x="268" y="838" type="line"/>
      <point x="208" y="838" type="line"/>
      <point x="208" y="758" type="line"/>
      <point x="228" y="634" type="line"/>
    </contour>
    <contour>
      <point x="236" y="625" type="line"/>
      <point x="242" y="644" type="line"/>
      <point x="131" y="700" type="line"/>
      <point x="54" y="725" type="line"/>
      <point x="36" y="669" type="line"/>
      <point x="112" y="644" type="line"/>
    </contour>
    <contour>
      <point x="142" y="453" type="line"/>
      <point x="189" y="518" type="line"/>
      <point x="245" y="630" type="line"/>
      <point x="229" y="641" type="line"/>
      <point x="141" y="553" type="line"/>
      <point x="94" y="487" type="line"/>
    </contour>
    <contour>
      <point x="334" y="453" type="line"/>
      <point x="381" y="487" type="line"/>
      <point x="334" y="553" type="line"/>
      <point x="246" y="641" type="line"/>
      <point x="230" y="630" type="line"/>
      <point x="286" y="518" type="line"/>
    </contour>
    <contour>
      <point x="440" y="669" type="line"/>
      <point x="422" y="725" type="line"/>
      <point x="345" y="700" type="line"/>
      <point x="234" y="644" type="line"/>
      <point x="240" y="625" type="line"/>
      <point x="363" y="644" type="line"/>
    </contour>
  </outline>
</glyph>
<glyph name="comma" format="1">
  <advance width="200"/>
  <unicode hex="002C"/>
  <outline>
    <contour>
      <point x="81" y="-155" type="line"/>
      <point x="148" y="98" type="line"/>
      <point x="64" y="98" type="line"/>
      <point x="19" y="-145" type="line"/>
    </contour>
  </outline>
</glyph>
<glyph name="period" format="1">
  <advance width="203"/>
  <unicode hex="002E"/>
  <outline>
    <contour>
      <point x="101" y="-3" type="curve" smooth="yes"/>
      <point x="137" y="-3"/>
      <point x="155" y="14"/>
      <point x="155" y="48" type="curve" smooth="yes"/>
      <point x="155" y="83"/>
      <point x="136" y="100"/>
      <point x="101" y="100" type="curve" smooth="yes"/>
      <point x="66" y="100"/>
      <point x="49" y="83"/>
      <point x="49" y="48" type="curve" smooth="yes"/>
      <point x="49" y="14"/>
      <point x="67" y="-3"/>
    </contour>
  </outline>
</glyph>
<glyph name="zero" format="1">
  <advance width="546"/>
  <unicode hex="0030"/>
  <outline>
    <contour>
      <point x="273" y="-10" type="curve" smooth="yes"/>
      <point x="423" y="-10"/>
      <point x="501" y="121"/>
      <point x="501" y="369" type="curve" smooth="yes"/>
      <point x="501" y="618"/>
      <point x="423" y="750"/>
      <point x="273" y="750" type="curve" smooth="yes"/>
      <point x="123" y="750"/>
      <point x="44" y="618"/>
      <point x="44" y="369" type="curve" smooth="yes"/>
      <point x="44" y="120"/>
      <point x="123" y="-10"/>
    </contour>
    <contour>
      <point x="273" y="62" type="curve" smooth="yes"/>
      <point x="173" y="62"/>
      <point x="127" y="160"/>
      <point x="127" y="369" type="curve" smooth="yes"/>
      <point x="127" y="576"/>
      <point x="175" y="679"/>
      <point x="273" y="679" type="curve" smooth="yes"/>
      <point x="371" y="679"/>
      <point x="419" y="577"/>
      <point x="419" y="369" type="curve" smooth="yes"/>
      <point x="419" y="161"/>
      <point x="372" y="62"/>
    </contour>
  </outline>
</glyph>
<glyph name="one" format="1">
  <advance width="335"/>
  <unicode hex="0031"/>
  <outline>
    <contour>
      <point x="174" y="0" type="line"/>
      <point x="257" y="0" type="line"/>
      <point x="257" y="740" type="line"/>
      <point x="199" y="740" type="line"/>
      <point x="17" y="609" type="line"/>
      <point x="15" y="598" type="line"/>
      <point x="36" y="557" type="line"/>
      <point x="47" y="557" type="line"/>
      <point x="171" y="640" type="line"/>
      <point x="174" y="640" type="line"/>
    </contour>
  </outline>
</glyph>
<glyph name="two" format="1">
  <advance width="441"/>
  <unicode hex="0032"/>
  <outline>
    <contour>
      <point x="38" y="0" type="line"/>
      <point x="397" y="0" type="line"/>
      <point x="397" y="72" type="line"/>
      <point x="120" y="72" type="line"/>
      <point x="120" y="115" type="line" smooth="yes"/>
      <point x="120" y="200"/>
      <point x="149" y="251"/>
      <point x="254" y="334" type="curve" smooth="yes"/>
      <point x="359" y="413"/>
      <point x="398" y="477"/>
      <point x="398" y="569" type="curve" smooth="yes"/>
      <point x="398" y="688"/>
      <point x="334" y="749"/>
      <point x="211" y="749" type="curve" smooth="yes"/>
      <point x="165" y="749"/>
      <point x="113" y="741"/>
      <point x="54" y="723" type="curve"/>
      <point x="65" y="654" type="line"/>
      <point x="117" y="671"/>
      <point x="157" y="678"/>
      <point x="191" y="678" type="curve" smooth="yes"/>
      <point x="274" y="678"/>
      <point x="316" y="638"/>
      <point x="316" y="561" type="curve" smooth="yes"/>
      <point x="316" y="494"/>
      <point x="285" y="446"/>
      <point x="198" y="382" type="curve" smooth="yes"/>
      <point x="81" y="297"/>
      <point x="38" y="220"/>
      <point x="38" y="101" type="curve" smooth="yes"/>
    </contour>
  </outline>
</glyph>
<glyph name="three" format="1">
  <advance width="420"/>
  <unicode hex="0033"/>
  <outline>
    <contour>
      <point x="156" y="-8" type="curve" smooth="yes"/>
      <point x="296" y="-7"/>
      <point x="378" y="67"/>
      <point x="378" y="190" type="curve" smooth="yes"/>
      <point x="378" y="296"/>
      <point x="330" y="362"/>
      <point x="238" y="383" type="curve"/>
      <point x="238" y="386" type="line"/>
      <point x="315" y="407"/>
      <point x="358" y="471"/>
      <point x="358" y="565" type="curve" smooth="yes"/>
      <point x="358" y="685"/>
      <point x="288" y="750"/>
      <point x="158" y="750" type="curve" smooth="yes"/>
      <point x="120" y="750"/>
      <point x="82" y="745"/>
      <point x="41" y="734" type="curve"/>
      <point x="47" y="670" type="line"/>
      <point x="56" y="670" type="line"/>
      <point x="94" y="679"/>
      <point x="125" y="683"/>
      <point x="151" y="683" type="curve" smooth="yes"/>
      <point x="234" y="683"/>
      <point x="276" y="639"/>
      <point x="276" y="552" type="curve" smooth="yes"/>
      <point x="276" y="462"/>
      <point x="223" y="414"/>
      <point x="122" y="414" type="curve" smooth="yes"/>
      <point x="102" y="414" type="line"/>
      <point x="102" y="350" type="line"/>
      <point x="122" y="350" type="line" smooth="yes"/>
      <point x="240" y="350"/>
      <point x="296" y="298"/>
      <point x="296" y="195" type="curve" smooth="yes"/>
      <point x="296" y="106"/>
      <point x="243" y="57"/>
      <point x="146" y="57" type="curve" smooth="yes"/>
      <point x="112" y="57"/>
      <point x="78" y="62"/>
      <point x="52" y="70" type="curve"/>
      <point x="45" y="70" type="line"/>
      <point x="45" y="5" type="line"/>
      <point x="83" y="-4"/>
      <point x="121" y="-8"/>
    </contour>
  </outline>
</glyph>
<glyph name="six" format="1">
  <advance width="507"/>
  <unicode hex="0036"/>
  <outline>
    <contour>
      <point x="265" y="-11" type="curve" smooth="yes"/>
      <point x="392" y="-11"/>
      <point x="474" y="87"/>
      <point x="474" y="238" type="curve" smooth="yes"/>
      <point x="474" y="372"/>
      <point x="399" y="455"/>
      <point x="279" y="455" type="curve" smooth="yes"/>
      <point x="210" y="455"/>
      <point x="138" y="415"/>
      <point x="94" y="351" type="curve"/>
      <point x="115" y="311" type="line"/>
      <point x="153" y="358"/>
      <point x="213" y="390"/>
      <point x="264" y="390" type="curve" smooth="yes"/>
      <point x="347" y="390"/>
      <point x="394" y="335"/>
      <point x="394" y="237" type="curve" smooth="yes"/>
      <point x="394" y="128"/>
      <point x="344" y="60"/>
      <point x="265" y="60" type="curve" smooth="yes"/>
      <point x="169" y="60"/>
      <point x="123" y="145"/>
      <point x="123" y="327" type="curve" smooth="yes"/>
      <point x="123" y="557"/>
      <point x="193" y="681"/>
      <point x="327" y="681" type="curve" smooth="yes"/>
      <point x="359" y="681"/>
      <point x="389" y="676"/>
      <point x="429" y="664" type="curve"/>
      <point x="435" y="734" type="line"/>
      <point x="395" y="746"/>
      <point x="360" y="751"/>
      <point x="325" y="751" type="curve" smooth="yes"/>
      <point x="144" y="751"/>
      <point x="44" y="598"/>
      <point x="44" y="328" type="curve" smooth="yes"/>
      <point x="44" y="105"/>
      <point x="120" y="-11"/>
    </contour>
  </outline>
</glyph>
<glyph name="seven" format="1">
  <advance width="377"/>
  <unicode hex="0037"/>
  <outline>
    <contour>
      <point x="133" y="-13" type="line"/>
      <point x="68" y="0" type="line"/>
      <point x="68" y="14" type="line"/>
      <point x="291" y="696" type="line"/>
      <point x="312" y="668" type="line"/>
      <point x="25" y="668" type="line"/>
      <point x="22" y="730" type="line"/>
      <point x="30" y="740" type="line"/>
      <point x="347" y="740" type="line"/>
      <point x="360" y="694" type="line"/>
      <point x="360" y="666" type="line"/>
      <point x="149" y="-1" type="line"/>
    </contour>
  </outline>
</glyph>
<glyph name="eight" format="1">
  <advance width="500"/>
  <unicode hex="0038"/>
  <outline>
    <contour>
      <point x="250" y="-3" type="curve" smooth="yes"/>
      <point x="377" y="-3"/>
      <point x="457" y="72"/>
      <point x="457" y="192" type="curve" smooth="yes"/>
      <point x="457" y="317"/>
      <point x="392" y="369"/>
      <point x="277" y="405" type="curve" smooth="yes"/>
      <point x="182" y="434"/>
      <point x="136" y="473"/>
      <point x="136" y="556" type="curve" smooth="yes"/>
      <point x="136" y="639"/>
      <point x="178" y="687"/>
      <point x="250" y="687" type="curve" smooth="yes"/>
      <point x="323" y="687"/>
      <point x="364" y="641"/>
      <point x="364" y="560" type="curve" smooth="yes"/>
      <point x="364" y="473"/>
      <point x="332" y="428"/>
      <point x="250" y="396" type="curve"/>
      <point x="302" y="360" type="line"/>
      <point x="402" y="400"/>
      <point x="439" y="455"/>
      <point x="439" y="560" type="curve" smooth="yes"/>
      <point x="439" y="678"/>
      <point x="368" y="749"/>
      <point x="250" y="749" type="curve" smooth="yes"/>
      <point x="133" y="749"/>
      <point x="61" y="677"/>
      <point x="61" y="560" type="curve" smooth="yes"/>
      <point x="61" y="436"/>
      <point x="128" y="381"/>
      <point x="238" y="347" type="curve" smooth="yes"/>
      <point x="337" y="317"/>
      <point x="380" y="278"/>
      <point x="380" y="186" type="curve" smooth="yes"/>
      <point x="380" y="107"/>
      <point x="329" y="57"/>
      <point x="250" y="57" type="curve" smooth="yes"/>
      <point x="171" y="57"/>
      <point x="120" y="109"/>
      <point x="120" y="190" type="curve" smooth="yes"/>
      <point x="120" y="279"/>
      <point x="157" y="325"/>
      <point x="246" y="363" type="curve"/>
      <point x="190" y="395" type="line"/>
      <point x="88" y="356"/>
      <point x="43" y="290"/>
      <point x="43" y="182" type="curve" smooth="yes"/>
      <point x="43" y="69"/>
      <point x="123" y="-3"/>
    </contour>
  </outline>
</glyph>
<glyph name="equal" format="1">
  <advance width="502"/>
  <unicode hex="003D"/>
  <outline>
    <contour>
      <point x="57" y="215" type="line"/>
      <point x="445" y="215" type="line"/>
      <point x="445" y="281" type="line"/>
      <point x="57" y="281" type="line"/>
    </contour>
    <contour>
      <point x="57" y="430" type="line"/>
      <point x="445" y="430" type="line"/>
      <point x="445" y="495" type="line"/>
      <point x="57" y="495" type="line"/>
    </contour>
  </outline>
</glyph>
<glyph name="greater" format="1">
  <advance width="496"/>
  <unicode hex="003E"/>
  <outline>
    <contour>
      <point x="407" y="349" type="line"/>
      <point x="458" y="349" type="line"/>
      <point x="458" y="396" type="line"/>
      <point x="57" y="573" type="line"/>
      <point x="57" y="502" type="line"/>
    </contour>
    <contour>
      <point x="59" y="159" type="line"/>
      <point x="458" y="336" type="line"/>
      <point x="458" y="382" type="line"/>
      <point x="407" y="382" type="line"/>
      <point x="59" y="229" type="line"/>
    </contour>
  </outline>
</glyph>
<glyph name="at" format="1">
  <advance width="782"/>
  <unicode hex="0040"/>
  <outline>
    <contour>
      <point x="380" y="-137" type="curve" smooth="yes"/>
      <point x="446" y="-137"/>
      <point x="516" y="-120"/>
      <point x="579" y="-98" type="curve"/>
      <point x="559" y="-48" type="line"/>
      <point x="501" y="-68"/>
      <point x="437" y="-83"/>
      <point x="380" y="-83" type="curve" smooth="yes"/>
      <point x="242" y="-83"/>
      <point x="99" y="0"/>
      <point x="99" y="262" type="curve" smooth="yes"/>
      <point x="99" y="498"/>
      <point x="225" y="621"/>
      <point x="404" y="621" type="curve" smooth="yes"/>
      <point x="602" y="621"/>
      <point x="676" y="497"/>
      <point x="676" y="307" type="curve" smooth="yes"/>
      <point x="676" y="183"/>
      <point x="643" y="103"/>
      <point x="577" y="103" type="curve" smooth="yes"/>
      <point x="532" y="103"/>
      <point x="520" y="133"/>
      <point x="520" y="171" type="curve" smooth="yes"/>
      <point x="520" y="196"/>
      <point x="525" y="225"/>
      <point x="530" y="250" type="curve" smooth="yes"/>
      <point x="564" y="460" type="line"/>
      <point x="509" y="483"/>
      <point x="463" y="494"/>
      <point x="425" y="494" type="curve" smooth="yes"/>
      <point x="287" y="494"/>
      <point x="201" y="382"/>
      <point x="201" y="231" type="curve" smooth="yes"/>
      <point x="201" y="144"/>
      <point x="234" y="57"/>
      <point x="329" y="57" type="curve" smooth="yes"/>
      <point x="371" y="57"/>
      <point x="433" y="79"/>
      <point x="472" y="141" type="curve"/>
      <point x="476" y="141" type="line"/>
      <point x="485" y="66"/>
      <point x="528" y="51"/>
      <point x="575" y="51" type="curve" smooth="yes"/>
      <point x="683" y="51"/>
      <point x="735" y="153"/>
      <point x="735" y="307" type="curve" smooth="yes"/>
      <point x="735" y="530"/>
      <point x="644" y="677"/>
      <point x="404" y="677" type="curve" smooth="yes"/>
      <point x="191" y="677"/>
      <point x="40" y="534"/>
      <point x="40" y="262" type="curve" smooth="yes"/>
      <point x="40" y="-40"/>
      <point x="212" y="-137"/>
    </contour>
    <contour>
      <point x="336" y="110" type="curve" smooth="yes"/>
      <point x="277" y="110"/>
      <point x="259" y="172"/>
      <point x="259" y="231" type="curve" smooth="yes"/>
      <point x="259" y="351"/>
      <point x="322" y="441"/>
      <point x="425" y="441" type="curve" smooth="yes"/>
      <point x="448" y="441"/>
      <point x="474" y="436"/>
      <point x="501" y="427" type="curve"/>
      <point x="474" y="260" type="line" smooth="yes"/>
      <point x="455" y="140"/>
      <point x="378" y="110"/>
    </contour>
  </outline>
</glyph>
<glyph name="A" format="1">
  <advance width="557"/>
  <unicode hex="0041"/>
  <outline>
    <contour>
      <point x="551" y="2" type="move" name="ogonek"/>
    </contour>
    <contour>
      <point x="279" y="774" type="move" name="topUC"/>
    </contour>
    <contour>
      <point x="6" y="0" type="line"/>
      <point x="84" y="0" type="line"/>
      <point x="150" y="223" type="line"/>
      <point x="406" y="223" type="line"/>
      <point x="473" y="0" type="line"/>
      <point x="551" y="0" type="line"/>
      <point x="551" y="6" type="line"/>
      <point x="337" y="740" type="line"/>
      <point x="219" y="740" type="line"/>
      <point x="6" y="6" type="line"/>
    </contour>
    <contour>
      <point x="167" y="292" type="line"/>
      <point x="245" y="557" type="line"/>
      <point x="274" y="667" type="line"/>
      <point x="282" y="667" type="line"/>
      <point x="311" y="557" type="line"/>
      <point x="389" y="292" type="line"/>
    </contour>
  </outline>
</glyph>
<glyph name="C" format="1">
  <advance width="490"/>
  <unicode hex="0043"/>
  <outline>
    <contour>
      <point x="296" y="774" type="move" name="topUC"/>
    </contour>
    <contour>
      <point x="297" y="0" type="move" name="bottom"/>
    </contour>
    <contour>
      <point x="347" y="-10" type="curve" smooth="yes"/>
      <point x="394" y="-10"/>
      <point x="429" y="-5"/>
      <point x="459" y="3" type="curve"/>
      <point x="459" y="71" type="line"/>
      <point x="424" y="65"/>
      <point x="378" y="62"/>
      <point x="353" y="62" type="curve" smooth="yes"/>
      <point x="194" y="62"/>
      <point x="127" y="146"/>
      <point x="127" y="369" type="curve" smooth="yes"/>
      <point x="127" y="600"/>
      <point x="190" y="677"/>
      <point x="357" y="677" type="curve" smooth="yes"/>
      <point x="392" y="677"/>
      <point x="432" y="674"/>
      <point x="459" y="668" type="curve"/>
      <point x="459" y="738" type="line"/>
      <point x="417" y="745"/>
      <point x="379" y="748"/>
      <point x="345" y="748" type="curve" smooth="yes"/>
      <point x="133" y="748"/>
      <point x="42" y="639"/>
      <point x="42" y="369" type="curve" smooth="yes"/>
      <point x="42" y="106"/>
      <point x="136" y="-8"/>
    </contour>
  </outline>
</glyph>
<glyph name="D" format="1">
  <advance width="589"/>
  <unicode hex="0044"/>
  <outline>
    <contour>
      <point x="267" y="774" type="move" name="topUC"/>
    </contour>
    <contour>
      <point x="274" y="0" type="move" name="bottom"/>
    </contour>
    <contour>
      <point x="201" y="-16" type="curve" smooth="yes"/>
      <point x="445" y="-16"/>
      <point x="548" y="99"/>
      <point x="548" y="369" type="curve" smooth="yes"/>
      <point x="548" y="633"/>
      <point x="452" y="750"/>
      <point x="232" y="750" type="curve" smooth="yes"/>
      <point x="188" y="750"/>
      <point x="140" y="745"/>
      <point x="72" y="734" type="curve"/>
      <point x="72" y="-8" type="line"/>
      <point x="122" y="-14"/>
      <point x="162" y="-16"/>
    </contour>
    <contour>
      <point x="224" y="55" type="curve" smooth="yes"/>
      <point x="204" y="55"/>
      <point x="183" y="57"/>
      <point x="153" y="60" type="curve"/>
      <point x="153" y="672" type="line"/>
      <point x="181" y="677"/>
      <point x="209" y="680"/>
      <point x="240" y="680" type="curve" smooth="yes"/>
      <point x="398" y="680"/>
      <point x="462" y="591"/>
      <point x="462" y="369" type="curve" smooth="yes"/>
      <point x="462" y="149"/>
      <point x="388" y="55"/>
    </contour>
  </outline>
</glyph>
<glyph name="F" format="1">
  <advance width="476"/>
  <unicode hex="0046"/>
  <outline>
    <contour>
      <point x="72" y="0" type="line"/>
      <point x="154" y="0" type="line"/>
      <point x="154" y="668" type="line"/>
      <point x="447" y="668" type="line"/>
      <point x="447" y="740" type="line"/>
      <point x="72" y="740" type="line"/>
    </contour>
    <contour>
      <point x="134" y="332" type="line"/>
      <point x="426" y="332" type="line"/>
      <point x="426" y="404" type="line"/>
      <point x="134" y="404" type="line"/>
    </contour>
  </outline>
</glyph>
<glyph name="J" format="1">
  <advance width="226"/>
  <unicode hex="004A"/>
  <outline>
    <contour>
      <point x="113" y="774" type="move" name="topUC"/>
    </contour>
    <contour>
      <point x="45" y="-187" type="line"/>
      <point x="124" y="-56"/>
      <point x="156" y="52"/>
      <point x="156" y="180" type="curve" smooth="yes"/>
      <point x="156" y="740" type="line"/>
      <point x="74" y="740" type="line"/>
      <point x="74" y="185" type="line" smooth="yes"/>
      <point x="74" y="52"/>
      <point x="57" y="-17"/>
      <point x="-8" y="-159" type="curve"/>
    </contour>
  </outline>
</glyph>
<glyph name="L" format="1">
  <advance width="414"/>
  <unicode hex="004C"/>
  <outline>
    <contour>
      <point x="125" y="774" type="move" name="topUC"/>
    </contour>
    <contour>
      <point x="319" y="370" type="move" name="periodcentered"/>
    </contour>
    <contour>
      <point x="352" y="720" type="move" name="caronalt"/>
    </contour>
    <contour>
      <point x="237" y="0" type="move" name="bottom"/>
    </contour>
    <contour>
      <point x="72" y="0" type="line"/>
      <point x="402" y="0" type="line"/>
      <point x="402" y="72" type="line"/>
      <point x="154" y="72" type="line"/>
      <point x="154" y="740" type="line"/>
      <point x="72" y="740" type="line"/>
    </contour>
  </outline>
</glyph>
<glyph name="M" format="1">
  <advance width="801"/>
  <unicode hex="004D"/>
  <outline>
    <contour>
      <point x="72" y="0" type="line"/>
      <point x="149" y="0" type="line"/>
      <point x="149" y="610" type="line"/>
      <point x="154" y="610" type="line"/>
      <point x="188" y="504" type="line"/>
      <point x="360" y="34" type="line"/>
      <point x="439" y="34" type="line"/>
      <point x="611" y="504" type="line"/>
      <point x="645" y="610" type="line"/>
      <point x="650" y="610" type="line"/>
      <point x="650" y="0" type="line"/>
      <point x="729" y="0" type="line"/>
      <point x="729" y="740" type="line"/>
      <point x="616" y="740" type="line"/>
      <point x="433" y="236" type="line"/>
      <point x="403" y="133" type="line"/>
      <point x="397" y="133" type="line"/>
      <point x="368" y="236" type="line"/>
      <point x="185" y="740" type="line"/>
      <point x="72" y="740" type="line"/>
    </contour>
  </outline>
</glyph>
<glyph name="N" format="1">
  <advance width="655"/>
  <unicode hex="004E"/>
  <outline>
    <contour>
      <point x="329" y="774" type="move" name="topUC"/>
    </contour>
    <contour>
      <point x="344" y="0" type="move" name="bottom"/>
    </contour>
    <contour>
      <point x="72" y="0" type="line"/>
      <point x="147" y="0" type="line"/>
      <point x="147" y="595" type="line"/>
      <point x="154" y="596" type="line"/>
      <point x="198" y="509" type="line"/>
      <point x="506" y="0" type="line"/>
      <point x="583" y="0" type="line"/>
      <point x="583" y="740" type="line"/>
      <point x="507" y="740" type="line"/>
      <point x="507" y="145" type="line"/>
      <point x="501" y="145" type="line"/>
      <point x="458" y="228" type="line"/>
      <point x="148" y="740" type="line"/>
      <point x="72" y="740" type="line"/>
    </contour>
  </outline>
</glyph>
<glyph name="O" format="1">
  <advance width="617"/>
  <unicode hex="004F"/>
  <outline>
    <contour>
      <point x="338" y="-5" type="move" name="ogonek"/>
    </contour>
    <contour>
      <point x="308" y="774" type="move" name="topUC"/>
    </contour>
    <contour>
      <point x="310" y="0" type="move" name="bottom"/>
    </contour>
    <contour>
      <point x="308" y="-10" type="curve" smooth="yes"/>
      <point x="487" y="-10"/>
      <point x="575" y="115"/>
      <point x="575" y="369" type="curve" smooth="yes"/>
      <point x="575" y="625"/>
      <point x="487" y="750"/>
      <point x="308" y="750" type="curve" smooth="yes"/>
      <point x="129" y="750"/>
      <point x="42" y="625"/>
      <point x="42" y="369" type="curve" smooth="yes"/>
      <point x="42" y="115"/>
      <point x="129" y="-10"/>
    </contour>
    <contour>
      <point x="308" y="62" type="curve" smooth="yes"/>
      <point x="179" y="62"/>
      <point x="126" y="152"/>
      <point x="126" y="369" type="curve" smooth="yes"/>
      <point x="126" y="587"/>
      <point x="180" y="679"/>
      <point x="308" y="679" type="curve" smooth="yes"/>
      <point x="435" y="679"/>
      <point x="491" y="585"/>
      <point x="491" y="369" type="curve" smooth="yes"/>
      <point x="491" y="152"/>
      <point x="437" y="62"/>
    </contour>
  </outline>
</glyph>
<glyph name="Q" format="1">
  <advance width="614"/>
  <unicode hex="0051"/>
  <outline>
    <contour>
      <point x="544" y="-110" type="curve"/>
      <point x="580" y="-41" type="line"/>
      <point x="470" y="-31"/>
      <point x="390" y="-19"/>
      <point x="334" y="2" type="curve"/>
      <point x="334" y="9" type="line"/>
      <point x="494" y="24"/>
      <point x="573" y="143"/>
      <point x="573" y="369" type="curve" smooth="yes"/>
      <point x="573" y="625"/>
      <point x="486" y="750"/>
      <point x="306" y="750" type="curve" smooth="yes"/>
      <point x="127" y="750"/>
      <point x="40" y="626"/>
      <point x="40" y="369" type="curve" smooth="yes"/>
      <point x="40" y="47"/>
      <point x="176" y="-40"/>
    </contour>
    <contour>
      <point x="306" y="61" type="curve" smooth="yes"/>
      <point x="176" y="61"/>
      <point x="123" y="149"/>
      <point x="123" y="369" type="curve" smooth="yes"/>
      <point x="123" y="590"/>
      <point x="176" y="680"/>
      <point x="306" y="680" type="curve" smooth="yes"/>
      <point x="435" y="680"/>
      <point x="490" y="587"/>
      <point x="490" y="369" type="curve" smooth="yes"/>
      <point x="490" y="153"/>
      <point x="433" y="61"/>
    </contour>
  </outline>
</glyph>
<glyph name="S" format="1">
  <advance width="474"/>
  <unicode hex="0053"/>
  <outline>
    <contour>
      <point x="247" y="774" type="move" name="topUC"/>
    </contour>
    <contour>
      <point x="239" y="0" type="move" name="bottom"/>
    </contour>
    <contour>
      <point x="229" y="-13" type="curve" smooth="yes"/>
      <point x="362" y="-13"/>
      <point x="444" y="64"/>
      <point x="444" y="191" type="curve" smooth="yes"/>
      <point x="444" y="305"/>
      <point x="389" y="358"/>
      <point x="271" y="406" type="curve" smooth="yes"/>
      <point x="172" y="446"/>
      <point x="126" y="478"/>
      <point x="126" y="548" type="curve" smooth="yes"/>
      <point x="126" y="629"/>
      <point x="180" y="681"/>
      <point x="266" y="681" type="curve" smooth="yes"/>
      <point x="303" y="681"/>
      <point x="355" y="674"/>
      <point x="413" y="660" type="curve"/>
      <point x="418" y="730" type="line"/>
      <point x="360" y="745"/>
      <point x="310" y="752"/>
      <point x="261" y="752" type="curve" smooth="yes"/>
      <point x="128" y="752"/>
      <point x="43" y="672"/>
      <point x="43" y="548" type="curve" smooth="yes"/>
      <point x="43" y="432"/>
      <point x="101" y="385"/>
      <point x="213" y="340" type="curve" smooth="yes"/>
      <point x="313" y="300"/>
      <point x="362" y="262"/>
      <point x="362" y="189" type="curve" smooth="yes"/>
      <point x="362" y="106"/>
      <point x="310" y="59"/>
      <point x="218" y="59" type="curve" smooth="yes"/>
      <point x="162" y="59"/>
      <point x="78" y="75"/>
      <point x="39" y="93" type="curve"/>
      <point x="33" y="22" type="line"/>
      <point x="88" y="1"/>
      <point x="169" y="-13"/>
    </contour>
  </outline>
</glyph>
<glyph name="T" format="1">
  <advance width="480"/>
  <unicode hex="0054"/>
  <outline>
    <contour>
      <point x="239" y="774" type="move" name="topUC"/>
    </contour>
    <contour>
      <point x="242" y="0" type="move" name="bottom"/>
    </contour>
    <contour>
      <point x="198" y="0" type="line"/>
      <point x="281" y="0" type="line"/>
      <point x="281" y="666" type="line"/>
      <point x="466" y="666" type="line"/>
      <point x="466" y="740" type="line"/>
      <point x="14" y="740" type="line"/>
      <point x="14" y="666" type="line"/>
      <point x="198" y="666" type="line"/>
    </contour>
  </outline>
</glyph>
<glyph name="U" format="1">
  <advance width="635"/>
  <unicode hex="0055"/>
  <outline>
    <contour>
      <point x="344" y="-6" type="move" name="ogonek"/>
    </contour>
    <contour>
      <point x="315" y="774" type="move" name="topUC"/>
    </contour>
    <contour>
      <point x="318" y="0" type="move" name="bottom"/>
    </contour>
    <contour>
      <point x="317" y="-10" type="curve" smooth="yes"/>
      <point x="498" y="-10"/>
      <point x="569" y="82"/>
      <point x="569" y="289" type="curve" smooth="yes"/>
      <point x="569" y="740" type="line"/>
      <point x="486" y="740" type="line"/>
      <point x="486" y="292" type="line" smooth="yes"/>
      <point x="486" y="130"/>
      <point x="437" y="63"/>
      <point x="317" y="63" type="curve" smooth="yes"/>
      <point x="199" y="63"/>
      <point x="148" y="131"/>
      <point x="148" y="292" type="curve" smooth="yes"/>
      <point x="148" y="740" type="line"/>
      <point x="66" y="740" type="line"/>
      <point x="66" y="289" type="line" smooth="yes"/>
      <point x="66" y="82"/>
      <point x="137" y="-10"/>
    </contour>
  </outline>
</glyph>
<glyph name="V" format="1">
  <advance width="567"/>
  <unicode hex="0056"/>
  <outline>
    <contour>
      <point x="228" y="0" type="line"/>
      <point x="339" y="0" type="line"/>
      <point x="562" y="740" type="line"/>
      <point x="482" y="740" type="line"/>
      <point x="321" y="214" type="line"/>
      <point x="287" y="81" type="line"/>
      <point x="280" y="81" type="line"/>
      <point x="247" y="214" type="line"/>
      <point x="86" y="740" type="line"/>
      <point x="4" y="740" type="line"/>
    </contour>
  </outline>
</glyph>
<glyph name="X" format="1">
  <advance width="564"/>
  <unicode hex="0058"/>
  <outline>
    <contour>
      <point x="5" y="0" type="line"/>
      <point x="96" y="0" type="line"/>
      <point x="270" y="301" type="line"/>
      <point x="278" y="317" type="line"/>
      <point x="280" y="317" type="line"/>
      <point x="288" y="301" type="line"/>
      <point x="467" y="0" type="line"/>
      <point x="560" y="0" type="line"/>
      <point x="334" y="377" type="line"/>
      <point x="551" y="740" type="line"/>
      <point x="461" y="740" type="line"/>
      <point x="294" y="450" type="line"/>
      <point x="286" y="433" type="line"/>
      <point x="284" y="433" type="line"/>
      <point x="276" y="450" type="line"/>
      <point x="107" y="740" type="line"/>
      <point x="13" y="740" type="line"/>
      <point x="229" y="375" type="line"/>
    </contour>
  </outline>
</glyph>
<glyph name="Z" format="1">
  <advance width="481"/>
  <unicode hex="005A"/>
  <outline>
    <contour>
      <point x="247" y="774" type="move" name="topUC"/>
    </contour>
    <contour>
      <point x="241" y="0" type="move" name="bottom"/>
    </contour>
    <contour>
      <point x="28" y="0" type="line"/>
      <point x="453" y="0" type="line"/>
      <point x="453" y="72" type="line"/>
      <point x="123" y="72" type="line"/>
      <point x="123" y="78" type="line"/>
      <point x="445" y="671" type="line"/>
      <point x="445" y="740" type="line"/>
      <point x="36" y="740" type="line"/>
      <point x="36" y="667" type="line"/>
      <point x="349" y="667" type="line"/>
      <point x="349" y="661" type="line"/>
      <point x="28" y="69" type="line"/>
    </contour>
  </outline>
</glyph>
<glyph name="backslash" format="1">
  <advance width="285"/>
  <unicode hex="005C"/>
  <outline>
    <contour>
      <point x="189" y="-120" type="line"/>
      <point x="256" y="-120" type="line"/>
      <point x="96" y="740" type="line"/>
      <point x="29" y="740" type="line"/>
    </contour>
  </outline>
</glyph>
<glyph name="bracketright" format="1">
  <advance width="295"/>
  <unicode hex="005D"/>
  <outline>
    <contour>
      <point x="223" y="-160" type="line"/>
      <point x="223" y="868" type="line"/>
      <point x="25" y="868" type="line"/>
      <point x="25" y="808" type="line"/>
      <point x="156" y="808" type="line"/>
      <point x="156" y="-100" type="line"/>
      <point x="25" y="-100" type="line"/>
      <point x="25" y="-160" type="line"/>
    </contour>
  </outline>
</glyph>
<glyph name="asciicircum" format="1">
  <advance width="364"/>
  <unicode hex="005E"/>
  <outline>
    <contour>
      <point x="37" y="481" type="line"/>
      <point x="96" y="481" type="line"/>
      <point x="180" y="727" type="line"/>
      <point x="184" y="727" type="line"/>
      <point x="267" y="481" type="line"/>
      <point x="326" y="481" type="line"/>
      <point x="213" y="789" type="line"/>
      <point x="150" y="789" type="line"/>
    </contour>
  </outline>
</glyph>
<glyph name="a" format="1">
  <advance width="450"/>
  <unicode hex="0061"/>
  <outline>
    <contour>
      <point x="230" y="600" type="move" name="top"/>
    </contour>
    <contour>
      <point x="392" y="0" type="move" name="ogonek"/>
    </contour>
    <contour>
      <point x="158" y="-5" type="curve" smooth="yes"/>
      <point x="217" y="-5"/>
      <point x="270" y="30"/>
      <point x="311" y="65" type="curve"/>
      <point x="317" y="65" type="line"/>
      <point x="325" y="0" type="line"/>
      <point x="392" y="0" type="line"/>
      <point x="392" y="379" type="line" smooth="yes"/>
      <point x="392" y="494"/>
      <point x="337" y="548"/>
      <point x="217" y="548" type="curve" smooth="yes"/>
      <point x="174" y="548"/>
      <point x="118" y="541"/>
      <point x="67" y="531" type="curve"/>
      <point x="74" y="466" type="line"/>
      <point x="113" y="476"/>
      <point x="172" y="483"/>
      <point x="204" y="483" type="curve" smooth="yes"/>
      <point x="282" y="483"/>
      <point x="312" y="451"/>
      <point x="312" y="362" type="curve" smooth="yes"/>
      <point x="312" y="118" type="line"/>
      <point x="281" y="99"/>
      <point x="229" y="60"/>
      <point x="186" y="60" type="curve" smooth="yes"/>
      <point x="137" y="60"/>
      <point x="110" y="90"/>
      <point x="110" y="145" type="curve" smooth="yes"/>
      <point x="110" y="208"/>
      <point x="145" y="237"/>
      <point x="233" y="246" type="curve" smooth="yes"/>
      <point x="341" y="256" type="line"/>
      <point x="335" y="311" type="line"/>
      <point x="216" y="302" type="line" smooth="yes"/>
      <point x="90" y="292"/>
      <point x="28" y="238"/>
      <point x="28" y="138" type="curve" smooth="yes"/>
      <point x="28" y="50"/>
      <point x="78" y="-5"/>
    </contour>
  </outline>
</glyph>
<glyph name="b" format="1">
  <advance width="488"/>
  <unicode hex="0062"/>
  <outline>
    <contour>
      <point x="215" y="-10" type="curve" smooth="yes"/>
      <point x="392" y="-5"/>
      <point x="450" y="125"/>
      <point x="450" y="283" type="curve" smooth="yes"/>
      <point x="450" y="458"/>
      <point x="392" y="549"/>
      <point x="278" y="549" type="curve" smooth="yes"/>
      <point x="222" y="549"/>
      <point x="172" y="526"/>
      <point x="141" y="486" type="curve"/>
      <point x="141" y="808" type="line"/>
      <point x="60" y="808" type="line"/>
      <point x="60" y="18" type="line"/>
      <point x="116" y="0"/>
      <point x="168" y="-10"/>
    </contour>
    <contour>
      <point x="219" y="51" type="curve" smooth="yes"/>
      <point x="197" y="51"/>
      <point x="170" y="55"/>
      <point x="141" y="62" type="curve"/>
      <point x="141" y="366" type="line" smooth="yes"/>
      <point x="141" y="443"/>
      <point x="195" y="486"/>
      <point x="254" y="486" type="curve" smooth="yes"/>
      <point x="331" y="486"/>
      <point x="367" y="421"/>
      <point x="367" y="275" type="curve" smooth="yes"/>
      <point x="367" y="121"/>
      <point x="319" y="51"/>
    </contour>
  </outline>
</glyph>
<glyph name="c" format="1">
  <advance width="385"/>
  <unicode hex="0063"/>
  <outline>
    <contour>
      <point x="215" y="600" type="move" name="top"/>
    </contour>
    <contour>
      <point x="221" y="0" type="move" name="bottom"/>
    </contour>
    <contour>
      <point x="260" y="-10" type="curve" smooth="yes"/>
      <point x="289" y="-10"/>
      <point x="324" y="-4"/>
      <point x="351" y="4" type="curve"/>
      <point x="351" y="71" type="line"/>
      <point x="316" y="63"/>
      <point x="289" y="59"/>
      <point x="266" y="59" type="curve" smooth="yes"/>
      <point x="167" y="59"/>
      <point x="122" y="126"/>
      <point x="122" y="270" type="curve" smooth="yes"/>
      <point x="122" y="416"/>
      <point x="166" y="480"/>
      <point x="266" y="480" type="curve" smooth="yes"/>
      <point x="292" y="480"/>
      <point x="319" y="477"/>
      <point x="351" y="469" type="curve"/>
      <point x="351" y="537" type="line"/>
      <point x="314" y="546"/>
      <point x="286" y="550"/>
      <point x="260" y="550" type="curve" smooth="yes"/>
      <point x="113" y="550"/>
      <point x="38" y="457"/>
      <point x="38" y="270" type="curve" smooth="yes"/>
      <point x="38" y="80"/>
      <point x="111" y="-10"/>
    </contour>
  </outline>
</glyph>
<glyph name="d" format="1">
  <advance width="489"/>
  <unicode hex="0064"/>
  <outline>
    <contour>
      <point x="522" y="768" type="move" name="caronalt"/>
    </contour>
    <contour>
      <point x="241" y="0" type="move" name="bottom"/>
    </contour>
    <contour>
      <point x="213" y="-9" type="curve" smooth="yes"/>
      <point x="269" y="-9"/>
      <point x="315" y="13"/>
      <point x="346" y="54" type="curve"/>
      <point x="349" y="54" type="line"/>
      <point x="356" y="0" type="line"/>
      <point x="428" y="0" type="line"/>
      <point x="428" y="808" type="line"/>
      <point x="348" y="808" type="line"/>
      <point x="348" y="541" type="line"/>
      <point x="312" y="547"/>
      <point x="291" y="549"/>
      <point x="267" y="549" type="curve" smooth="yes"/>
      <point x="119" y="549"/>
      <point x="38" y="447"/>
      <point x="38" y="264" type="curve" smooth="yes"/>
      <point x="38" y="80"/>
      <point x="95" y="-9"/>
    </contour>
    <contour>
      <point x="234" y="54" type="curve" smooth="yes"/>
      <point x="160" y="54"/>
      <point x="121" y="125"/>
      <point x="121" y="271" type="curve" smooth="yes"/>
      <point x="121" y="419"/>
      <point x="170" y="488"/>
      <point x="265" y="488" type="curve" smooth="yes"/>
      <point x="291" y="488"/>
      <point x="313" y="485"/>
      <point x="348" y="477" type="curve"/>
      <point x="348" y="174" type="line" smooth="yes"/>
      <point x="348" y="97"/>
      <point x="293" y="54"/>
    </contour>
  </outline>
</glyph>
<glyph name="e" format="1">
  <advance width="451"/>
  <unicode hex="0065"/>
  <outline>
    <contour>
      <point x="226" y="600" type="move" name="top"/>
    </contour>
    <contour>
      <point x="395" y="22" type="move" name="ogonek"/>
    </contour>
    <contour>
      <point x="236" y="0" type="move" name="bottom"/>
    </contour>
    <contour>
      <point x="250" y="-9" type="curve" smooth="yes"/>
      <point x="300" y="-9"/>
      <point x="355" y="3"/>
      <point x="395" y="22" type="curve"/>
      <point x="390" y="88" type="line"/>
      <point x="339" y="67"/>
      <point x="295" y="57"/>
      <point x="254" y="57" type="curve" smooth="yes"/>
      <point x="163" y="57"/>
      <point x="120" y="123"/>
      <point x="120" y="265" type="curve" smooth="yes"/>
      <point x="120" y="410"/>
      <point x="163" y="484"/>
      <point x="245" y="484" type="curve" smooth="yes"/>
      <point x="313" y="484"/>
      <point x="341" y="425"/>
      <point x="341" y="282" type="curve"/>
      <point x="353" y="301" type="line"/>
      <point x="78" y="301" type="line"/>
      <point x="78" y="239" type="line"/>
      <point x="412" y="239" type="line"/>
      <point x="415" y="261"/>
      <point x="416" y="280"/>
      <point x="416" y="314" type="curve" smooth="yes"/>
      <point x="416" y="469"/>
      <point x="359" y="549"/>
      <point x="247" y="549" type="curve" smooth="yes"/>
      <point x="110" y="549"/>
      <point x="38" y="448"/>
      <point x="38" y="260" type="curve" smooth="yes"/>
      <point x="38" y="88"/>
      <point x="114" y="-9"/>
    </contour>
  </outline>
</glyph>
<glyph name="h" format="1">
  <advance width="485"/>
  <unicode hex="0068"/>
  <outline>
    <contour>
      <point x="142" y="746" type="move" name="top"/>
    </contour>
    <contour>
      <point x="247" y="0" type="move" name="bottom"/>
    </contour>
    <contour>
      <point x="61" y="0" type="line"/>
      <point x="142" y="0" type="line"/>
      <point x="142" y="424" type="line"/>
      <point x="193" y="459"/>
      <point x="240" y="477"/>
      <point x="281" y="477" type="curve" smooth="yes"/>
      <point x="326" y="477"/>
      <point x="346" y="451"/>
      <point x="346" y="387" type="curve" smooth="yes"/>
      <point x="346" y="0" type="line"/>
      <point x="426" y="0" type="line"/>
      <point x="426" y="408" type="line" smooth="yes"/>
      <point x="426" y="508"/>
      <point x="392" y="550"/>
      <point x="311" y="550" type="curve" smooth="yes"/>
      <point x="260" y="550"/>
      <point x="208" y="529"/>
      <point x="140" y="482" type="curve"/>
      <point x="142" y="480" type="line"/>
      <point x="142" y="808" type="line"/>
      <point x="61" y="808" type="line"/>
    </contour>
  </outline>
</glyph>
<glyph name="j" format="1">
  <advance width="203"/>
  <unicode hex="006A"/>
  <outline>
    <contour>
      <point x="102" y="658" type="curve" smooth="yes"/>
      <point x="137" y="658"/>
      <point x="154" y="675"/>
      <point x="154" y="709" type="curve" smooth="yes"/>
      <point x="154" y="742"/>
      <point x="137" y="759"/>
      <point x="102" y="759" type="curve" smooth="yes"/>
      <point x="68" y="759"/>
      <point x="51" y="743"/>
      <point x="51" y="709" type="curve" smooth="yes"/>
      <point x="51" y="675"/>
      <point x="68" y="658"/>
    </contour>
    <contour>
      <point x="51" y="-220" type="line"/>
      <point x="108" y="-133"/>
      <point x="143" y="-17"/>
      <point x="143" y="86" type="curve" smooth="yes"/>
      <point x="143" y="540" type="line"/>
      <point x="62" y="540" type="line"/>
      <point x="62" y="111" type="line" smooth="yes"/>
      <point x="62" y="-8"/>
      <point x="40" y="-110"/>
      <point x="-4" y="-196" type="curve"/>
    </contour>
  </outline>
</glyph>
<glyph name="k" format="1">
  <advance width="452"/>
  <unicode hex="006B"/>
  <outline>
    <contour>
      <point x="246" y="0" type="move" name="bottom"/>
    </contour>
    <contour>
      <point x="61" y="0" type="line"/>
      <point x="142" y="0" type="line"/>
      <point x="142" y="246" type="line"/>
      <point x="205" y="246" type="line"/>
      <point x="366" y="0" type="line"/>
      <point x="455" y="0" type="line"/>
      <point x="276" y="266" type="line"/>
      <point x="259" y="276" type="line"/>
      <point x="259" y="278" type="line"/>
      <point x="275" y="287" type="line"/>
      <point x="438" y="540" type="line"/>
      <point x="350" y="540" type="line"/>
      <point x="206" y="309" type="line"/>
      <point x="142" y="309" type="line"/>
      <point x="142" y="808" type="line"/>
      <point x="61" y="808" type="line"/>
    </contour>
  </outline>
</glyph>
<glyph name="o" format="1">
  <advance width="492"/>
  <unicode hex="006F"/>
  <outline>
    <contour>
      <point x="238" y="600" type="move" name="top"/>
    </contour>
    <contour>
      <point x="283" y="2" type="move" name="ogonek"/>
    </contour>
    <contour>
      <point x="246" y="0" type="move" name="bottom"/>
    </contour>
    <contour>
      <point x="246" y="-9" type="curve" smooth="yes"/>
      <point x="382" y="-9"/>
      <point x="454" y="87"/>
      <point x="454" y="270" type="curve" smooth="yes"/>
      <point x="454" y="453"/>
      <point x="382" y="550"/>
      <point x="246" y="550" type="curve" smooth="yes"/>
      <point x="110" y="550"/>
      <point x="38" y="453"/>
      <point x="38" y="270" type="curve" smooth="yes"/>
      <point x="38" y="88"/>
      <point x="110" y="-9"/>
    </contour>
    <contour>
      <point x="246" y="58" type="curve" smooth="yes"/>
      <point x="158" y="58"/>
      <point x="120" y="121"/>
      <point x="120" y="270" type="curve" smooth="yes"/>
      <point x="120" y="420"/>
      <point x="158" y="483"/>
      <point x="246" y="483" type="curve" smooth="yes"/>
      <point x="333" y="483"/>
      <point x="372" y="420"/>
      <point x="372" y="270" type="curve" smooth="yes"/>
      <point x="372" y="120"/>
      <point x="334" y="58"/>
    </contour>
  </outline>
</glyph>
<glyph name="t" format="1">
  <advance width="334"/>
  <unicode hex="0074"/>
  <outline>
    <contour>
      <point x="329" y="674" type="move" name="caronalt"/>
    </contour>
    <contour>
      <point x="202" y="0" type="move" name="bottom"/>
    </contour>
    <contour>
      <point x="248" y="-5" type="curve" smooth="yes"/>
      <point x="269" y="-5"/>
      <point x="293" y="-2"/>
      <point x="318" y="3" type="curve"/>
      <point x="318" y="68" type="line"/>
      <point x="302" y="63"/>
      <point x="280" y="61"/>
      <point x="266" y="61" type="curve" smooth="yes"/>
      <point x="215" y="61"/>
      <point x="187" y="91"/>
      <point x="187" y="155" type="curve" smooth="yes"/>
      <point x="187" y="469" type="line"/>
      <point x="321" y="469" type="line"/>
      <point x="321" y="540" type="line"/>
      <point x="187" y="540" type="line"/>
      <point x="187" y="687" type="line"/>
      <point x="122" y="676" type="line"/>
      <point x="111" y="540" type="line"/>
      <point x="12" y="540" type="line"/>
      <point x="12" y="469" type="line"/>
      <point x="107" y="469" type="line"/>
      <point x="107" y="140" type="line" smooth="yes"/>
      <point x="107" y="44"/>
      <point x="154" y="-5"/>
    </contour>
  </outline>
</glyph>
<glyph name="u" format="1">
  <advance width="484"/>
  <unicode hex="0075"/>
  <outline>
    <contour>
      <point x="239" y="600" type="move" name="top"/>
    </contour>
    <contour>
      <point x="423" y="0" type="move" name="ogonek"/>
    </contour>
    <contour>
      <point x="239" y="0" type="move" name="bottom"/>
    </contour>
    <contour>
      <point x="185" y="-10" type="curve" smooth="yes"/>
      <point x="231" y="-10"/>
      <point x="275" y="9"/>
      <point x="344" y="57" type="curve"/>
      <point x="348" y="57" type="line"/>
      <point x="354" y="0" type="line"/>
      <point x="423" y="0" type="line"/>
      <point x="423" y="540" type="line"/>
      <point x="342" y="540" type="line"/>
      <point x="342" y="120" type="line"/>
      <point x="285" y="78"/>
      <point x="250" y="64"/>
      <point x="207" y="64" type="curve" smooth="yes"/>
      <point x="155" y="64"/>
      <point x="138" y="85"/>
      <point x="138" y="152" type="curve" smooth="yes"/>
      <point x="138" y="540" type="line"/>
      <point x="57" y="540" type="line"/>
      <point x="57" y="132" type="line" smooth="yes"/>
      <point x="57" y="35"/>
      <point x="99" y="-10"/>
    </contour>
  </outline>
</glyph>
<glyph name="v" format="1">
  <advance width="466"/>
  <unicode hex="0076"/>
  <outline>
    <contour>
      <point x="182" y="0" type="line"/>
      <point x="284" y="0" type="line"/>
      <point x="455" y="535" type="line"/>
      <point x="455" y="540" type="line"/>
      <point x="372" y="540" type="line"/>
      <point x="251" y="130" type="line"/>
      <point x="237" y="75" type="line"/>
      <point x="230" y="75" type="line"/>
      <point x="216" y="130" type="line"/>
      <point x="95" y="540" type="line"/>
      <point x="11" y="540" type="line"/>
      <point x="11" y="535" type="line"/>
    </contour>
  </outline>
</glyph>
<glyph name="w" format="1">
  <advance width="676"/>
  <unicode hex="0077"/>
  <outline>
    <contour>
      <point x="337" y="600" type="move" name="top"/>
    </contour>
    <contour>
      <point x="141" y="0" type="line"/>
      <point x="233" y="0" type="line"/>
      <point x="325" y="373" type="line"/>
      <point x="335" y="428" type="line"/>
      <point x="342" y="428" type="line"/>
      <point x="352" y="373" type="line"/>
      <point x="444" y="0" type="line"/>
      <point x="536" y="0" type="line"/>
      <point x="657" y="536" type="line"/>
      <point x="657" y="540" type="line"/>
      <point x="582" y="540" type="line"/>
      <point x="507" y="173" type="line"/>
      <point x="492" y="97" type="line"/>
      <point x="485" y="97" type="line"/>
      <point x="467" y="173" type="line"/>
      <point x="380" y="540" type="line"/>
      <point x="298" y="540" type="line"/>
      <point x="211" y="173" type="line"/>
      <point x="194" y="97" type="line"/>
      <point x="186" y="97" type="line"/>
      <point x="172" y="173" type="line"/>
      <point x="97" y="540" type="line"/>
      <point x="20" y="540" type="line"/>
      <point x="20" y="536" type="line"/>
    </contour>
  </outline>
</glyph>
<glyph name="z" format="1">
  <advance width="400"/>
  <unicode hex="007A"/>
  <outline>
    <contour>
      <point x="206" y="600" type="move" name="top"/>
    </contour>
    <contour>
      <point x="201" y="0" type="move" name="bottom"/>
    </contour>
    <contour>
      <point x="29" y="0" type="line"/>
      <point x="371" y="0" type="line"/>
      <point x="371" y="68" type="line"/>
      <point x="123" y="68" type="line"/>
      <point x="123" y="73" type="line"/>
      <point x="361" y="486" type="line"/>
      <point x="361" y="540" type="line"/>
      <point x="38" y="540" type="line"/>
      <point x="38" y="472" type="line"/>
      <point x="267" y="472" type="line"/>
      <point x="267" y="467" type="line"/>
      <point x="29" y="54" type="line"/>
    </contour>
  </outline>
</glyph>
<glyph name="sterling" format="1">
  <advance width="520"/>
  <unicode hex="00A3"/>
  <outline>
    <contour>
      <point x="39" y="0" type="line"/>
      <point x="470" y="0" type="line"/>
      <point x="470" y="72" type="line"/>
      <point x="228" y="72" type="line"/>
      <point x="228" y="528" type="line"/>
      <point x="228" y="634"/>
      <point x="259" y="674"/>
      <point x="341" y="674" type="curve" smooth="yes"/>
      <point x="377" y="674"/>
      <point x="428" y="666"/>
      <point x="475" y="650" type="curve"/>
      <point x="484" y="718" type="line"/>
      <point x="421" y="737"/>
      <point x="371" y="746"/>
      <point x="328" y="746" type="curve" smooth="yes"/>
      <point x="199" y="746"/>
      <point x="146" y="677"/>
      <point x="146" y="530" type="curve" smooth="yes"/>
      <point x="146" y="73" type="line"/>
      <point x="39" y="73" type="line"/>
    </contour>
    <contour>
      <point x="39" y="335" type="line"/>
      <point x="396" y="335" type="line"/>
      <point x="396" y="402" type="line"/>
      <point x="39" y="402" type="line"/>
    </contour>
  </outline>
</glyph>
<glyph name="currency" format="1">
  <advance width="539"/>
  <unicode hex="00A4"/>
  <outline>
    <contour>
      <point x="134" y="370" type="curve" smooth="yes"/>
      <point x="134" y="260"/>
      <point x="188" y="187"/>
      <point x="269" y="187" type="curve" smooth="yes"/>
      <point x="349" y="187"/>
      <point x="403" y="260"/>
      <point x="403" y="370" type="curve" smooth="yes"/>
      <point x="403" y="479"/>
      <point x="351" y="552"/>
      <point x="271" y="552" type="curve" smooth="yes"/>
      <point x="189" y="552"/>
      <point x="134" y="479"/>
    </contour>
    <contour>
      <point x="192" y="370" type="curve" smooth="yes"/>
      <point x="192" y="452"/>
      <point x="222" y="495"/>
      <point x="269" y="495" type="curve" smooth="yes"/>
      <point x="315" y="495"/>
      <point x="345" y="453"/>
      <point x="345" y="370" type="curve" smooth="yes"/>
      <point x="345" y="289"/>
      <point x="316" y="244"/>
      <point x="269" y="244" type="curve" smooth="yes"/>
      <point x="222" y="244"/>
      <point x="192" y="290"/>
    </contour>
    <contour>
      <point x="43" y="555" type="line"/>
      <point x="96" y="500" type="line"/>
      <point x="165" y="453" type="line"/>
      <point x="187" y="475" type="line"/>
      <point x="140" y="543" type="line"/>
      <point x="84" y="596" type="line"/>
    </contour>
    <contour>
      <point x="84" y="144" type="line"/>
      <point x="140" y="197" type="line"/>
      <point x="187" y="267" type="line"/>
      <point x="167" y="289" type="line"/>
      <point x="96" y="241" type="line"/>
      <point x="43" y="185" type="line"/>
    </contour>
    <contour>
      <point x="495" y="185" type="line"/>
      <point x="442" y="241" type="line"/>
      <point x="372" y="288" type="line"/>
      <point x="351" y="267" type="line"/>
      <point x="399" y="197" type="line"/>
      <point x="455" y="144" type="line"/>
    </contour>
    <contour>
      <point x="455" y="596" type="line"/>
      <point x="399" y="543" type="line"/>
      <point x="349" y="471" type="line"/>
      <point x="372" y="452" type="line"/>
      <point x="442" y="500" type="line"/>
      <point x="495" y="555" type="line"/>
    </contour>
  </outline>
</glyph>
<glyph name="yen" format="1">
  <advance width="592"/>
  <unicode hex="00A5"/>
  <outline>
    <contour>
      <point x="100" y="98" type="line"/>
      <point x="493" y="98" type="line"/>
      <point x="493" y="160" type="line"/>
      <point x="100" y="160" type="line"/>
    </contour>
    <contour>
      <point x="100" y="247" type="line"/>
      <point x="493" y="247" type="line"/>
      <point x="493" y="309" type="line"/>
      <point x="100" y="309" type="line"/>
    </contour>
    <component base="Y" xOffset="22"/>
  </outline>
</glyph>
<glyph name="logicalnot" format="1">
  <advance width="708"/>
  <unicode hex="00AC"/>
  <outline>
    <contour>
      <point x="50" y="357" type="line"/>
      <point x="570" y="357" type="line"/>
      <point x="570" y="114" type="line"/>
      <point x="649" y="114" type="line"/>
      <point x="649" y="426" type="line"/>
      <point x="50" y="426" type="line"/>
    </contour>
  </outline>
</glyph>
<glyph name="registered" format="1">
  <advance width="695"/>
  <unicode hex="00AE"/>
  <outline>
    <contour>
      <point x="236" y="284" type="line"/>
      <point x="284" y="284" type="line"/>
      <point x="284" y="408" type="line"/>
      <point x="363" y="407" type="line"/>
      <point x="439" y="284" type="line"/>
      <point x="492" y="284" type="line"/>
      <point x="409" y="417" type="line"/>
      <point x="410" y="420" type="line"/>
      <point x="456" y="434"/>
      <point x="481" y="468"/>
      <point x="481" y="518" type="curve" smooth="yes"/>
      <point x="481" y="591"/>
      <point x="433" y="625"/>
      <point x="330" y="625" type="curve" smooth="yes"/>
      <point x="303" y="625"/>
      <point x="271" y="622"/>
      <point x="236" y="618" type="curve"/>
    </contour>
    <contour>
      <point x="333" y="449" type="curve" smooth="yes"/>
      <point x="317" y="449"/>
      <point x="294" y="449"/>
      <point x="284" y="450" type="curve"/>
      <point x="284" y="581" type="line"/>
      <point x="302" y="583"/>
      <point x="322" y="584"/>
      <point x="335" y="584" type="curve" smooth="yes"/>
      <point x="404" y="584"/>
      <point x="432" y="563"/>
      <point x="432" y="517" type="curve" smooth="yes"/>
      <point x="432" y="470"/>
      <point x="400" y="449"/>
    </contour>
    <contour>
      <point x="347" y="140" type="curve" smooth="yes"/>
      <point x="527" y="140"/>
      <point x="655" y="268"/>
      <point x="655" y="446" type="curve" smooth="yes"/>
      <point x="655" y="624"/>
      <point x="527" y="753"/>
      <point x="347" y="753" type="curve" smooth="yes"/>
      <point x="168" y="753"/>
      <point x="41" y="624"/>
      <point x="41" y="446" type="curve" smooth="yes"/>
      <point x="41" y="268"/>
      <point x="168" y="140"/>
    </contour>
    <contour>
      <point x="347" y="187" type="curve" smooth="yes"/>
      <point x="195" y="187"/>
      <point x="90" y="294"/>
      <point x="90" y="446" type="curve" smooth="yes"/>
      <point x="90" y="598"/>
      <point x="195" y="706"/>
      <point x="347" y="706" type="curve" smooth="yes"/>
      <point x="500" y="706"/>
      <point x="606" y="598"/>
      <point x="606" y="446" type="curve" smooth="yes"/>
      <point x="606" y="294"/>
      <point x="500" y="187"/>
    </contour>
  </outline>
</glyph>
<glyph name="mu" format="1">
  <advance width="508"/>
  <unicode hex="00B5"/>
  <outline>
    <contour>
      <point x="198" y="-10" type="curve" smooth="yes"/>
      <point x="244" y="-10"/>
      <point x="288" y="8"/>
      <point x="356" y="57" type="curve"/>
      <point x="360" y="57" type="line"/>
      <point x="366" y="0" type="line"/>
      <point x="435" y="0" type="line"/>
      <point x="435" y="540" type="line"/>
      <point x="354" y="540" type="line"/>
      <point x="354" y="114" type="line"/>
      <point x="301" y="77"/>
      <point x="262" y="62"/>
      <point x="224" y="62" type="curve" smooth="yes"/>
      <point x="175" y="62"/>
      <point x="150" y="91"/>
      <point x="150" y="152" type="curve" smooth="yes"/>
      <point x="150" y="540" type="line"/>
      <point x="70" y="540" type="line"/>
      <point x="70" y="132" type="line" smooth="yes"/>
      <point x="70" y="35"/>
      <point x="111" y="-10"/>
    </contour>
    <contour>
      <point x="70" y="-220" type="line"/>
      <point x="150" y="-220" type="line"/>
      <point x="150" y="214" type="line"/>
      <point x="70" y="214" type="line"/>
    </contour>
  </outline>
</glyph>
<glyph name="paragraph" format="1">
  <advance width="484"/>
  <unicode hex="00B6"/>
  <outline>
    <contour>
      <point x="283" y="0" type="line"/>
      <point x="231" y="0" type="line"/>
      <point x="231" y="266" type="line"/>
      <point x="225" y="265"/>
      <point x="214" y="265"/>
      <point x="206" y="265" type="curve" smooth="yes"/>
      <point x="101" y="265"/>
      <point x="33" y="326"/>
      <point x="33" y="505" type="curve" smooth="yes"/>
      <point x="33" y="684"/>
      <point x="104" y="745"/>
      <point x="212" y="745" type="curve" smooth="yes"/>
      <point x="237" y="745"/>
      <point x="257" y="741"/>
      <point x="283" y="735" type="curve"/>
    </contour>
    <contour>
      <point x="404" y="0" type="line"/>
      <point x="341" y="0" type="line"/>
      <point x="341" y="735" type="line"/>
      <point x="404" y="735" type="line"/>
    </contour>
  </outline>
</glyph>
<glyph name="periodcentered" format="1">
  <advance width="204"/>
  <unicode hex="00B7"/>
  <outline>
    <contour>
      <point x="101" y="370" type="move" name="_periodcentered"/>
    </contour>
    <contour>
      <point x="101" y="319" type="curve" smooth="yes"/>
      <point x="134" y="319"/>
      <point x="153" y="335"/>
      <point x="153" y="370" type="curve" smooth="yes"/>
      <point x="153" y="405"/>
      <point x="134" y="421"/>
      <point x="101" y="421" type="curve" smooth="yes"/>
      <point x="68" y="421"/>
      <point x="50" y="406"/>
      <point x="50" y="370" type="curve" smooth="yes"/>
      <point x="50" y="334"/>
      <point x="68" y="319"/>
    </contour>
  </outline>
</glyph>
<glyph name="onesuperior" format="1">
  <advance width="270"/>
  <unicode hex="00B9"/>
  <outline>
    <contour>
      <point x="133" y="300" type="line"/>
      <point x="206" y="300" type="line"/>
      <point x="206" y="846" type="line"/>
      <point x="155" y="846" type="line"/>
      <point x="17" y="749" type="line"/>
      <point x="15" y="737" type="line"/>
      <point x="33" y="703" type="line"/>
      <point x="45" y="703" type="line"/>
      <point x="133" y="759" type="line"/>
    </contour>
  </outline>
</glyph>
<glyph name="Eth" format="1">
  <advance width="603"/>
  <unicode hex="00D0"/>
  <outline>
    <contour>
      <point x="-1" y="336" type="line"/>
      <point x="303" y="336" type="line"/>
      <point x="303" y="403" type="line"/>
      <point x="-1" y="403" type="line"/>
    </contour>
    <component base="D" xOffset="14"/>
  </outline>
</glyph>
<glyph name="multiply" format="1">
  <advance width="450"/>
  <unicode hex="00D7"/>
  <outline>
    <contour>
      <point x="359" y="192" type="line"/>
      <point x="404" y="237" type="line"/>
      <point x="91" y="550" type="line"/>
      <point x="46" y="504" type="line"/>
    </contour>
    <contour>
      <point x="91" y="192" type="line"/>
      <point x="404" y="504" type="line"/>
      <point x="358" y="550" type="line"/>
      <point x="46" y="237" type="line"/>
    </contour>
  </outline>
</glyph>
<glyph name="Oslash" format="1">
  <advance width="626"/>
  <unicode hex="00D8"/>
  <outline>
    <contour>
      <point x="311" y="774" type="move" name="topUC"/>
    </contour>
    <contour>
      <point x="313" y="-10" type="curve" smooth="yes"/>
      <point x="492" y="-10"/>
      <point x="580" y="115"/>
      <point x="580" y="369" type="curve" smooth="yes"/>
      <point x="580" y="625"/>
      <point x="492" y="750"/>
      <point x="313" y="750" type="curve" smooth="yes"/>
      <point x="135" y="750"/>
      <point x="47" y="625"/>
      <point x="47" y="369" type="curve" smooth="yes"/>
      <point x="47" y="115"/>
      <point x="135" y="-10"/>
    </contour>
    <contour>
      <point x="313" y="62" type="curve" smooth="yes"/>
      <point x="185" y="62"/>
      <point x="131" y="152"/>
      <point x="131" y="369" type="curve" smooth="yes"/>
      <point x="131" y="587"/>
      <point x="185" y="679"/>
      <point x="313" y="679" type="curve" smooth="yes"/>
      <point x="440" y="679"/>
      <point x="496" y="585"/>
      <point x="496" y="369" type="curve" smooth="yes"/>
      <point x="496" y="152"/>
      <point x="442" y="62"/>
    </contour>
    <contour>
      <point x="17" y="0" type="line"/>
      <point x="87" y="0" type="line"/>
      <point x="610" y="740" type="line"/>
      <point x="541" y="740" type="line"/>
    </contour>
  </outline>
</glyph>
<glyph name="Thorn" format="1">
  <advance width="534"/>
  <unicode hex="00DE"/>
  <outline>
    <contour>
      <point x="223" y="116" type="curve" smooth="yes"/>
      <point x="418" y="116"/>
      <point x="504" y="193"/>
      <point x="504" y="370" type="curve" smooth="yes"/>
      <point x="504" y="547"/>
      <point x="419" y="625"/>
      <point x="230" y="625" type="curve" smooth="yes"/>
      <point x="180" y="625"/>
      <point x="128" y="619"/>
      <point x="72" y="609" type="curve"/>
      <point x="72" y="127" type="line"/>
      <point x="123" y="119"/>
      <point x="174" y="116"/>
    </contour>
    <contour>
      <point x="237" y="186" type="curve" smooth="yes"/>
      <point x="215" y="186"/>
      <point x="179" y="188"/>
      <point x="154" y="191" type="curve"/>
      <point x="154" y="546" type="line"/>
      <point x="183" y="551"/>
      <point x="221" y="554"/>
      <point x="243" y="554" type="curve" smooth="yes"/>
      <point x="367" y="554"/>
      <point x="420" y="498"/>
      <point x="420" y="370" type="curve" smooth="yes"/>
      <point x="420" y="241"/>
      <point x="365" y="186"/>
    </contour>
    <contour>
      <point x="72" y="0" type="line"/>
      <point x="154" y="0" type="line"/>
      <point x="154" y="740" type="line"/>
      <point x="72" y="740" type="line"/>
    </contour>
  </outline>
</glyph>
<glyph name="germandbls" format="1">
  <advance width="542"/>
  <unicode hex="00DF"/>
  <outline>
    <contour>
      <point x="349" y="-11" type="curve" smooth="yes"/>
      <point x="451" y="-11"/>
      <point x="517" y="52"/>
      <point x="517" y="148" type="curve" smooth="yes"/>
      <point x="517" y="252"/>
      <point x="461" y="284"/>
      <point x="379" y="307" type="curve" smooth="yes"/>
      <point x="332" y="321"/>
      <point x="290" y="335"/>
      <point x="290" y="400" type="curve" smooth="yes"/>
      <point x="290" y="453"/>
      <point x="331" y="486"/>
      <point x="396" y="486" type="curve"/>
      <point x="457" y="486" type="line"/>
      <point x="454" y="552" type="line"/>
      <point x="382" y="552" type="line"/>
      <point x="280" y="552"/>
      <point x="214" y="491"/>
      <point x="214" y="397" type="curve" smooth="yes"/>
      <point x="214" y="269"/>
      <point x="293" y="254"/>
      <point x="356" y="239" type="curve" smooth="yes"/>
      <point x="414" y="224"/>
      <point x="439" y="195"/>
      <point x="439" y="144" type="curve" smooth="yes"/>
      <point x="439" y="88"/>
      <point x="404" y="54"/>
      <point x="345" y="54" type="curve" smooth="yes"/>
      <point x="303" y="54"/>
      <point x="253" y="62"/>
      <point x="210" y="76" type="curve"/>
      <point x="210" y="11" type="line"/>
      <point x="269" y="-4"/>
      <point x="310" y="-11"/>
    </contour>
    <contour>
      <point x="61" y="0" type="line"/>
      <point x="142" y="0" type="line"/>
      <point x="142" y="601" type="line" smooth="yes"/>
      <point x="142" y="706"/>
      <point x="174" y="744"/>
      <point x="263" y="744" type="curve" smooth="yes"/>
      <point x="352" y="744"/>
      <point x="385" y="705"/>
      <point x="385" y="601" type="curve" smooth="yes"/>
      <point x="385" y="486" type="line"/>
      <point x="465" y="486" type="line"/>
      <point x="465" y="601" type="line" smooth="yes"/>
      <point x="465" y="746"/>
      <point x="402" y="811"/>
      <point x="263" y="811" type="curve" smooth="yes"/>
      <point x="124" y="811"/>
      <point x="61" y="746"/>
      <point x="61" y="601" type="curve" smooth="yes"/>
    </contour>
  </outline>
</glyph>
<glyph name="icircumflex" format="1">
  <advance width="206"/>
  <unicode hex="00EE"/>
  <outline>
    <contour>
      <point x="-28" y="631" type="line"/>
      <point x="108" y="702" type="line"/>
      <point x="244" y="631" type="line"/>
      <point x="244" y="696" type="line"/>
      <point x="108" y="768" type="line"/>
      <point x="-28" y="696" type="line"/>
    </contour>
    <component base="dotlessi" xOffset="1"/>
  </outline>
</glyph>
<glyph name="eth" format="1">
  <advance width="495"/>
  <unicode hex="00F0"/>
  <outline>
    <contour>
      <point x="246" y="-9" type="curve" smooth="yes"/>
      <point x="382" y="-9"/>
      <point x="454" y="87"/>
      <point x="454" y="270" type="curve" smooth="yes"/>
      <point x="454" y="456"/>
      <point x="395" y="658"/>
      <point x="295" y="808" type="curve"/>
      <point x="212" y="808" type="line"/>
      <point x="271" y="718"/>
      <point x="318" y="609"/>
      <point x="347" y="503" type="curve"/>
      <point x="320" y="535"/>
      <point x="287" y="550"/>
      <point x="246" y="550" type="curve" smooth="yes"/>
      <point x="110" y="550"/>
      <point x="38" y="453"/>
      <point x="38" y="270" type="curve" smooth="yes"/>
      <point x="38" y="88"/>
      <point x="110" y="-9"/>
    </contour>
    <contour>
      <point x="246" y="58" type="curve" smooth="yes"/>
      <point x="158" y="58"/>
      <point x="120" y="120"/>
      <point x="120" y="270" type="curve" smooth="yes"/>
      <point x="120" y="420"/>
      <point x="158" y="483"/>
      <point x="246" y="483" type="curve" smooth="yes"/>
      <point x="352" y="483"/>
      <point x="372" y="379"/>
      <point x="372" y="270" type="curve" smooth="yes"/>
      <point x="372" y="121"/>
      <point x="334" y="58"/>
    </contour>
    <contour>
      <point x="195" y="623" type="line"/>
      <point x="462" y="663" type="line"/>
      <point x="462" y="721" type="line"/>
      <point x="195" y="681" type="line"/>
    </contour>
  </outline>
</glyph>
<glyph name="Dcroat" format="1">
  <advance width="603"/>
  <unicode hex="0110"/>
  <outline>
    <contour>
      <point x="-1" y="336" type="line"/>
      <point x="303" y="336" type="line"/>
      <point x="303" y="403" type="line"/>
      <point x="-1" y="403" type="line"/>
    </contour>
    <component base="D" xOffset="14"/>
  </outline>
</glyph>
<glyph name="Hbar" format="1">
  <advance width="660"/>
  <unicode hex="0126"/>
  <outline>
    <contour>
      <point x="0" y="546" type="line"/>
      <point x="664" y="546" type="line"/>
      <point x="664" y="590" type="line"/>
      <point x="0" y="590" type="line"/>
    </contour>
    <component base="H" xOffset="16"/>
  </outline>
</glyph>
<glyph name="hbar" format="1">
  <advance width="485"/>
  <unicode hex="0127"/>
  <outline>
    <contour>
      <point x="-23" y="647" type="line"/>
      <point x="272" y="647" type="line"/>
      <point x="272" y="698" type="line"/>
      <point x="-23" y="698" type="line"/>
    </contour>
    <component base="h"/>
  </outline>
</glyph>
<glyph name="dotlessi" format="1">
  <advance width="204"/>
  <unicode hex="0131"/>
  <outline>
    <contour>
      <point x="104" y="600" type="move" name="top"/>
    </contour>
    <contour>
      <point x="62" y="0" type="line"/>
      <point x="142" y="0" type="line"/>
      <point x="142" y="540" type="line"/>
      <point x="62" y="540" type="line"/>
    </contour>
  </outline>
</glyph>
<glyph name="Eng" format="1">
  <advance width="654"/>
  <unicode hex="014A"/>
  <outline>
    <contour>
      <point x="486" y="-187" type="line"/>
      <point x="540" y="-103"/>
      <point x="583" y="12"/>
      <point x="583" y="72" type="curve"/>
      <point x="583" y="740" type="line"/>
      <point x="507" y="740" type="line"/>
      <point x="507" y="143" type="line"/>
      <point x="501" y="143" type="line"/>
      <point x="458" y="226" type="line"/>
      <point x="147" y="740" type="line"/>
      <point x="72" y="740" type="line"/>
      <point x="72" y="0" type="line"/>
      <point x="147" y="0" type="line"/>
      <point x="147" y="597" type="line"/>
      <point x="154" y="598" type="line"/>
      <point x="198" y="511" type="line"/>
      <point x="493" y="22" type="line"/>
      <point x="481" y="-36"/>
      <point x="457" y="-103"/>
      <point x="428" y="-169" type="curve"/>
    </contour>
  </outline>
</glyph>
<glyph name="OE" format="1">
  <advance width="804"/>
  <unicode hex="0152"/>
  <outline>
    <contour>
      <point x="314" y="-4" type="curve" smooth="yes"/>
      <point x="342" y="-4"/>
      <point x="380" y="-3"/>
      <point x="403" y="0" type="curve"/>
      <point x="766" y="0" type="line"/>
      <point x="766" y="72" type="line"/>
      <point x="482" y="72" type="line"/>
      <point x="482" y="342" type="line"/>
      <point x="731" y="342" type="line"/>
      <point x="731" y="411" type="line"/>
      <point x="482" y="411" type="line"/>
      <point x="482" y="668" type="line"/>
      <point x="757" y="668" type="line"/>
      <point x="757" y="740" type="line"/>
      <point x="403" y="740" type="line"/>
      <point x="380" y="742"/>
      <point x="342" y="744"/>
      <point x="314" y="744" type="curve" smooth="yes"/>
      <point x="136" y="744"/>
      <point x="42" y="620"/>
      <point x="42" y="369" type="curve" smooth="yes"/>
      <point x="42" y="120"/>
      <point x="135" y="-4"/>
    </contour>
    <contour>
      <point x="322" y="68" type="curve" smooth="yes"/>
      <point x="180" y="68"/>
      <point x="125" y="155"/>
      <point x="125" y="369" type="curve" smooth="yes"/>
      <point x="125" y="582"/>
      <point x="181" y="672"/>
      <point x="321" y="672" type="curve" smooth="yes"/>
      <point x="344" y="672"/>
      <point x="377" y="670"/>
      <point x="400" y="667" type="curve"/>
      <point x="400" y="72" type="line"/>
      <point x="378" y="69"/>
      <point x="344" y="68"/>
    </contour>
  </outline>
</glyph>
<glyph name="tcaron" format="1">
  <advance width="323"/>
  <unicode hex="0165"/>
  <outline>
    <contour>
      <point x="248" y="-5" type="curve" smooth="yes"/>
      <point x="269" y="-5"/>
      <point x="293" y="-2"/>
      <point x="318" y="3" type="curve"/>
      <point x="318" y="68" type="line"/>
      <point x="302" y="63"/>
      <point x="280" y="61"/>
      <point x="266" y="61" type="curve" smooth="yes"/>
      <point x="215" y="61"/>
      <point x="187" y="91"/>
      <point x="187" y="155" type="curve" smooth="yes"/>
      <point x="187" y="469" type="line"/>
      <point x="272" y="469" type="line"/>
      <point x="272" y="540" type="line"/>
      <point x="187" y="540" type="line"/>
      <point x="187" y="687" type="line"/>
      <point x="122" y="676" type="line"/>
      <point x="111" y="540" type="line"/>
      <point x="12" y="540" type="line"/>
      <point x="12" y="469" type="line"/>
      <point x="107" y="469" type="line"/>
      <point x="107" y="140" type="line" smooth="yes"/>
      <point x="107" y="44"/>
      <point x="154" y="-5"/>
    </contour>
    <component base="caron.alt" xOffset="197"/>
  </outline>
</glyph>
<glyph name="Tbar" format="1">
  <advance width="488"/>
  <unicode hex="0166"/>
  <outline>
    <contour>
      <point x="93" y="357" type="line"/>
      <point x="396" y="357" type="line"/>
      <point x="396" y="407" type="line"/>
      <point x="93" y="407" type="line"/>
    </contour>
    <component base="T" xOffset="4"/>
  </outline>
</glyph>
<glyph name="tbar" format="1">
  <advance width="342"/>
  <unicode hex="0167"/>
  <outline>
    <contour>
      <point x="21" y="288" type="line"/>
      <point x="302" y="288" type="line"/>
      <point x="302" y="344" type="line"/>
      <point x="21" y="344" type="line"/>
    </contour>
    <component base="t" xOffset="7"/>
  </outline>
</glyph>
<glyph name="apostrophe" format="1">
  <advance width="191"/>
  <unicode hex="02BC"/>
  <outline>
    <contour>
      <point x="99" y="674" type="move" name="_apostrophe"/>
    </contour>
    <contour>
      <point x="65" y="808" type="line"/>
      <point x="65" y="580" type="line"/>
      <point x="102" y="580" type="line"/>
      <point x="133" y="804" type="line"/>
      <point x="133" y="808" type="line"/>
    </contour>
  </outline>
</glyph>
<glyph name="circumflex" format="1">
  <advance width="350"/>
  <unicode hex="02C6"/>
  <outline>
    <contour>
      <point x="166" y="600" type="move" name="_top"/>
    </contour>
    <contour>
      <point x="33" y="631" type="line"/>
      <point x="169" y="702" type="line"/>
      <point x="305" y="631" type="line"/>
      <point x="305" y="696" type="line"/>
      <point x="169" y="768" type="line"/>
      <point x="33" y="696" type="line"/>
    </contour>
  </outline>
</glyph>
<glyph name="caron" format="1">
  <advance width="344"/>
  <unicode hex="02C7"/>
  <outline>
    <contour>
      <point x="164" y="600" type="move" name="_top"/>
    </contour>
    <contour>
      <point x="33" y="712" type="line"/>
      <point x="169" y="640" type="line"/>
      <point x="305" y="712" type="line"/>
      <point x="305" y="778" type="line"/>
      <point x="169" y="706" type="line"/>
      <point x="33" y="778" type="line"/>
    </contour>
  </outline>
</glyph>
<glyph name="breve" format="1">
  <advance width="399"/>
  <unicode hex="02D8"/>
  <outline>
    <contour>
      <point x="197" y="600" type="move" name="_top"/>
    </contour>
    <contour>
      <point x="197" y="618" type="curve" smooth="yes"/>
      <point x="291" y="618"/>
      <point x="346" y="670"/>
      <point x="348" y="761" type="curve"/>
      <point x="286" y="761" type="line"/>
      <point x="286" y="704"/>
      <point x="253" y="671"/>
      <point x="197" y="671" type="curve" smooth="yes"/>
      <point x="141" y="671"/>
      <point x="108" y="704"/>
      <point x="108" y="761" type="curve"/>
      <point x="46" y="761" type="line"/>
      <point x="49" y="670"/>
      <point x="103" y="618"/>
    </contour>
  </outline>
</glyph>
<glyph name="ring" format="1">
  <advance width="294"/>
  <unicode hex="02DA"/>
  <outline>
    <contour>
      <point x="145" y="600" type="move" name="_top"/>
    </contour>
    <contour>
      <point x="144" y="609" type="curve" smooth="yes"/>
      <point x="207" y="609"/>
      <point x="245" y="655"/>
      <point x="245" y="714" type="curve" smooth="yes"/>
      <point x="245" y="773"/>
      <point x="208" y="818"/>
      <point x="144" y="818" type="curve" smooth="yes"/>
      <point x="80" y="818"/>
      <point x="44" y="773"/>
      <point x="44" y="714" type="curve" smooth="yes"/>
      <point x="44" y="655"/>
      <point x="81" y="609"/>
    </contour>
    <contour>
      <point x="144" y="652" type="curve" smooth="yes"/>
      <point x="111" y="652"/>
      <point x="92" y="678"/>
      <point x="92" y="714" type="curve" smooth="yes"/>
      <point x="92" y="749"/>
      <point x="110" y="775"/>
      <point x="144" y="775" type="curve" smooth="yes"/>
      <point x="178" y="775"/>
      <point x="198" y="749"/>
      <point x="198" y="714" type="curve" smooth="yes"/>
      <point x="198" y="679"/>
      <point x="178" y="652"/>
    </contour>
  </outline>
</glyph>
<glyph name="ogonek" format="1">
  <advance width="254"/>
  <unicode hex="02DB"/>
  <outline>
    <contour>
      <point x="202" y="0" type="move" name="_ogonek"/>
    </contour>
    <contour>
      <point x="143" y="-220" type="curve" smooth="yes"/>
      <point x="164" y="-220"/>
      <point x="182" y="-216"/>
      <point x="202" y="-208" type="curve"/>
      <point x="202" y="-153" type="line"/>
      <point x="187" y="-160"/>
      <point x="169" y="-164"/>
      <point x="151" y="-164" type="curve" smooth="yes"/>
      <point x="122" y="-164"/>
      <point x="107" y="-151"/>
      <point x="107" y="-125" type="curve" smooth="yes"/>
      <point x="107" y="-84"/>
      <point x="139" y="-39"/>
      <point x="202" y="-15" type="curve"/>
      <point x="202" y="0" type="line"/>
      <point x="135" y="0" type="line"/>
      <point x="76" y="-38"/>
      <point x="47" y="-81"/>
      <point x="47" y="-131" type="curve" smooth="yes"/>
      <point x="47" y="-189"/>
      <point x="81" y="-220"/>
    </contour>
  </outline>
</glyph>
<glyph name="tilde" format="1">
  <advance width="403"/>
  <unicode hex="02DC"/>
  <outline>
    <contour>
      <point x="190" y="600" type="move" name="_top"/>
    </contour>
    <contour>
      <point x="59" y="631" type="line"/>
      <point x="76" y="654"/>
      <point x="99" y="670"/>
      <point x="121" y="670" type="curve" smooth="yes"/>
      <point x="167" y="670"/>
      <point x="201" y="623"/>
      <point x="251" y="623" type="curve" smooth="yes"/>
      <point x="289" y="623"/>
      <point x="330" y="649"/>
      <point x="351" y="696" type="curve"/>
      <point x="321" y="722" type="line"/>
      <point x="306" y="696"/>
      <point x="287" y="681"/>
      <point x="265" y="681" type="curve" smooth="yes"/>
      <point x="219" y="681"/>
      <point x="186" y="729"/>
      <point x="135" y="729" type="curve" smooth="yes"/>
      <point x="98" y="729"/>
      <point x="57" y="700"/>
      <point x="32" y="659" type="curve"/>
    </contour>
  </outline>
</glyph>
<glyph name="uni030F" format="1">
  <advance width="378"/>
  <unicode hex="030F"/>
  <outline>
    <contour>
      <point x="219" y="600" type="move" name="_top"/>
    </contour>
    <contour>
      <point x="174" y="620" type="line"/>
      <point x="103" y="801" type="line"/>
      <point x="28" y="801" type="line"/>
      <point x="126" y="610" type="line"/>
    </contour>
    <contour>
      <point x="332" y="620" type="line"/>
      <point x="261" y="801" type="line"/>
      <point x="186" y="801" type="line"/>
      <point x="284" y="610" type="line"/>
    </contour>
  </outline>
</glyph>
<glyph name="uni0311" format="1">
  <advance width="396"/>
  <unicode hex="0311"/>
  <outline>
    <contour>
      <point x="190" y="600" type="move" name="_top"/>
    </contour>
    <contour>
      <point x="46" y="622" type="curve"/>
      <point x="108" y="622" type="line"/>
      <point x="109" y="681"/>
      <point x="142" y="712"/>
      <point x="197" y="712" type="curve" smooth="yes"/>
      <point x="252" y="712"/>
      <point x="286" y="680"/>
      <point x="286" y="622" type="curve"/>
      <point x="348" y="622" type="line"/>
      <point x="346" y="713"/>
      <point x="291" y="764"/>
      <point x="197" y="764" type="curve" smooth="yes"/>
      <point x="103" y="764"/>
      <point x="49" y="713"/>
    </contour>
  </outline>
</glyph>
<glyph name="uni0394" format="1">
  <advance width="569"/>
  <unicode hex="0394"/>
  <outline>
    <contour>
      <point x="2" y="0" type="line"/>
      <point x="567" y="0" type="line"/>
      <point x="338" y="740" type="line"/>
      <point x="231" y="740" type="line"/>
    </contour>
    <contour>
      <point x="102" y="72" type="line"/>
      <point x="284" y="661" type="line"/>
      <point x="467" y="72" type="line"/>
    </contour>
  </outline>
</glyph>
<glyph name="pi" format="1">
  <advance width="622"/>
  <unicode hex="03C0"/>
  <outline>
    <contour>
      <point x="182" y="-101" type="line"/>
      <point x="257" y="-101" type="line"/>
      <point x="257" y="468" type="line"/>
      <point x="407" y="468" type="line"/>
      <point x="407" y="121" type="line" smooth="yes"/>
      <point x="407" y="39"/>
      <point x="455" y="-4"/>
      <point x="531" y="-4" type="curve" smooth="yes"/>
      <point x="541" y="-4"/>
      <point x="563" y="-3"/>
      <point x="572" y="-1" type="curve"/>
      <point x="572" y="64" type="line"/>
      <point x="566" y="62"/>
      <point x="551" y="62"/>
      <point x="546" y="62" type="curve" smooth="yes"/>
      <point x="510" y="62"/>
      <point x="482" y="87"/>
      <point x="482" y="136" type="curve" smooth="yes"/>
      <point x="482" y="468" type="line"/>
      <point x="601" y="468" type="line"/>
      <point x="601" y="517" type="line"/>
      <point x="578" y="540" type="line"/>
      <point x="165" y="540" type="line" smooth="yes"/>
      <point x="79" y="540"/>
      <point x="26" y="500"/>
      <point x="10" y="413" type="curve"/>
      <point x="74" y="393" type="line"/>
      <point x="85" y="445"/>
      <point x="114" y="468"/>
      <point x="170" y="468" type="curve" smooth="yes"/>
      <point x="182" y="468" type="line"/>
    </contour>
  </outline>
</glyph>
<glyph name="endash" format="1">
  <advance width="499"/>
  <unicode hex="2013"/>
  <outline>
    <contour>
      <point x="60" y="247" type="line"/>
      <point x="439" y="247" type="line"/>
      <point x="439" y="313" type="line"/>
      <point x="60" y="313" type="line"/>
    </contour>
  </outline>
</glyph>
<glyph name="quoteright" format="1">
  <advance width="174"/>
  <unicode hex="2019"/>
  <outline>
    <contour>
      <point x="50" y="801" type="line"/>
      <point x="65" y="761"/>
      <point x="72" y="723"/>
      <point x="72" y="687" type="curve" smooth="yes"/>
      <point x="72" y="637"/>
      <point x="60" y="578"/>
      <point x="41" y="529" type="curve"/>
      <point x="79" y="521" type="line"/>
      <point x="111" y="569"/>
      <point x="133" y="642"/>
      <point x="133" y="707" type="curve" smooth="yes"/>
      <point x="133" y="748"/>
      <point x="128" y="781"/>
      <point x="116" y="811" type="curve"/>
    </contour>
  </outline>
</glyph>
<glyph name="dagger" format="1">
  <advance width="421"/>
  <unicode hex="2020"/>
  <outline>
    <contour>
      <point x="192" y="65" type="line"/>
      <point x="229" y="65" type="line"/>
      <point x="253" y="265" type="line"/>
      <point x="253" y="345" type="line"/>
      <point x="229" y="518" type="line"/>
      <point x="390" y="496" type="line"/>
      <point x="394" y="496" type="line"/>
      <point x="394" y="578" type="line"/>
      <point x="390" y="578" type="line"/>
      <point x="229" y="556" type="line"/>
      <point x="253" y="729" type="line"/>
      <point x="253" y="808" type="line"/>
      <point x="167" y="808" type="line"/>
      <point x="167" y="729" type="line"/>
      <point x="192" y="556" type="line"/>
      <point x="31" y="578" type="line"/>
      <point x="27" y="578" type="line"/>
      <point x="27" y="496" type="line"/>
      <point x="31" y="496" type="line"/>
      <point x="192" y="518" type="line"/>
      <point x="167" y="345" type="line"/>
      <point x="167" y="265" type="line"/>
    </contour>
  </outline>
</glyph>
<glyph name="daggerdbl" format="1">
  <advance width="455"/>
  <unicode hex="2021"/>
  <outline>
    <contour>
      <point x="184" y="-199" type="line"/>
      <point x="270" y="-199" type="line"/>
      <point x="270" y="-120" type="line"/>
      <point x="246" y="54" type="line"/>
      <point x="404" y="32" type="line"/>
      <point x="411" y="32" type="line"/>
      <point x="411" y="113" type="line"/>
      <point x="404" y="113" type="line"/>
      <point x="246" y="91" type="line"/>
      <point x="270" y="264" type="line"/>
      <point x="270" y="345" type="line"/>
      <point x="246" y="518" type="line"/>
      <point x="404" y="496" type="line"/>
      <point x="411" y="496" type="line"/>
      <point x="411" y="578" type="line"/>
      <point x="404" y="578" type="line"/>
      <point x="246" y="556" type="line"/>
      <point x="270" y="729" type="line"/>
      <point x="270" y="808" type="line"/>
      <point x="184" y="808" type="line"/>
      <point x="184" y="729" type="line"/>
      <point x="209" y="556" type="line"/>
      <point x="51" y="578" type="line"/>
      <point x="44" y="578" type="line"/>
      <point x="44" y="496" type="line"/>
      <point x="51" y="496" type="line"/>
      <point x="209" y="518" type="line"/>
      <point x="184" y="345" type="line"/>
      <point x="184" y="264" type="line"/>
      <point x="209" y="91" type="line"/>
      <point x="51" y="113" type="line"/>
      <point x="44" y="113" type="line"/>
      <point x="44" y="32" type="line"/>
      <point x="51" y="32" type="line"/>
      <point x="209" y="54" type="line"/>
      <point x="184" y="-120" type="line"/>
    </contour>
  </outline>
</glyph>
<glyph name="perthousand" format="1">
  <advance width="1178"/>
  <unicode hex="2030"/>
  <outline>
    <contour>
      <point x="188" y="283" type="curve" smooth="yes"/>
      <point x="290" y="283"/>
      <point x="343" y="363"/>
      <point x="343" y="516" type="curve" smooth="yes"/>
      <point x="343" y="669"/>
      <point x="290" y="750"/>
      <point x="188" y="750" type="curve" smooth="yes"/>
      <point x="87" y="750"/>
      <point x="33" y="669"/>
      <point x="33" y="516" type="curve" smooth="yes"/>
      <point x="33" y="363"/>
      <point x="87" y="283"/>
    </contour>
    <contour>
      <point x="188" y="343" type="curve" smooth="yes"/>
      <point x="127" y="343"/>
      <point x="98" y="399"/>
      <point x="98" y="516" type="curve" smooth="yes"/>
      <point x="98" y="632"/>
      <point x="128" y="690"/>
      <point x="188" y="690" type="curve" smooth="yes"/>
      <point x="247" y="690"/>
      <point x="277" y="632"/>
      <point x="277" y="516" type="curve" smooth="yes"/>
      <point x="277" y="399"/>
      <point x="249" y="343"/>
    </contour>
    <contour>
      <point x="630" y="-13" type="curve" smooth="yes"/>
      <point x="732" y="-13"/>
      <point x="785" y="67"/>
      <point x="785" y="220" type="curve" smooth="yes"/>
      <point x="785" y="373"/>
      <point x="732" y="454"/>
      <point x="630" y="454" type="curve" smooth="yes"/>
      <point x="528" y="454"/>
      <point x="474" y="373"/>
      <point x="474" y="220" type="curve" smooth="yes"/>
      <point x="474" y="67"/>
      <point x="528" y="-13"/>
    </contour>
    <contour>
      <point x="630" y="47" type="curve" smooth="yes"/>
      <point x="569" y="47"/>
      <point x="539" y="103"/>
      <point x="539" y="220" type="curve" smooth="yes"/>
      <point x="539" y="336"/>
      <point x="570" y="394"/>
      <point x="630" y="394" type="curve" smooth="yes"/>
      <point x="689" y="394"/>
      <point x="719" y="336"/>
      <point x="719" y="220" type="curve" smooth="yes"/>
      <point x="719" y="103"/>
      <point x="690" y="47"/>
    </contour>
    <contour>
      <point x="991" y="-13" type="curve" smooth="yes"/>
      <point x="1093" y="-13"/>
      <point x="1146" y="67"/>
      <point x="1146" y="220" type="curve" smooth="yes"/>
      <point x="1146" y="373"/>
      <point x="1093" y="454"/>
      <point x="991" y="454" type="curve" smooth="yes"/>
      <point x="890" y="454"/>
      <point x="836" y="373"/>
      <point x="836" y="220" type="curve" smooth="yes"/>
      <point x="836" y="67"/>
      <point x="890" y="-13"/>
    </contour>
    <contour>
      <point x="991" y="47" type="curve" smooth="yes"/>
      <point x="930" y="47"/>
      <point x="901" y="103"/>
      <point x="901" y="220" type="curve" smooth="yes"/>
      <point x="901" y="336"/>
      <point x="931" y="394"/>
      <point x="991" y="394" type="curve" smooth="yes"/>
      <point x="1050" y="394"/>
      <point x="1080" y="336"/>
      <point x="1080" y="220" type="curve" smooth="yes"/>
      <point x="1080" y="103"/>
      <point x="1052" y="47"/>
    </contour>
    <contour>
      <point x="240" y="0" type="line"/>
      <point x="310" y="0" type="line"/>
      <point x="570" y="740" type="line"/>
      <point x="500" y="740" type="line"/>
    </contour>
  </outline>
</glyph>
<glyph name="fraction" format="1">
  <advance width="196"/>
  <unicode hex="2044"/>
  <outline>
    <contour>
      <point x="-67" y="0" type="line"/>
      <point x="2" y="0" type="line"/>
      <point x="262" y="740" type="line"/>
      <point x="193" y="740" type="line"/>
    </contour>
  </outline>
</glyph>
<glyph name="zerosuperior" format="1">
  <advance width="423"/>
  <unicode hex="2070"/>
  <outline>
    <contour>
      <point x="212" y="293" type="curve"/>
      <point x="327" y="293"/>
      <point x="387" y="390"/>
      <point x="387" y="573" type="curve" smooth="yes"/>
      <point x="387" y="756"/>
      <point x="327" y="854"/>
      <point x="212" y="854" type="curve" smooth="yes"/>
      <point x="98" y="854"/>
      <point x="36" y="756"/>
      <point x="36" y="573" type="curve" smooth="yes"/>
      <point x="36" y="389"/>
      <point x="98" y="293"/>
    </contour>
    <contour>
      <point x="212" y="357" type="curve" smooth="yes"/>
      <point x="143" y="357"/>
      <point x="110" y="427"/>
      <point x="110" y="573" type="curve" smooth="yes"/>
      <point x="110" y="717"/>
      <point x="144" y="790"/>
      <point x="212" y="790" type="curve" smooth="yes"/>
      <point x="280" y="790"/>
      <point x="314" y="717"/>
      <point x="314" y="573" type="curve" smooth="yes"/>
      <point x="314" y="427"/>
      <point x="281" y="357"/>
    </contour>
  </outline>
</glyph>
<glyph name="fivesuperior" format="1">
  <advance width="325"/>
  <unicode hex="2075"/>
  <outline>
    <contour>
      <point x="125" y="292" type="curve" smooth="yes"/>
      <point x="233" y="292"/>
      <point x="295" y="353"/>
      <point x="295" y="462" type="curve" smooth="yes"/>
      <point x="295" y="573"/>
      <point x="243" y="620"/>
      <point x="110" y="623" type="curve"/>
      <point x="122" y="783" type="line"/>
      <point x="272" y="783" type="line"/>
      <point x="272" y="846" type="line"/>
      <point x="62" y="846" type="line"/>
      <point x="43" y="573" type="line"/>
      <point x="49" y="567" type="line"/>
      <point x="92" y="567" type="line" smooth="yes"/>
      <point x="186" y="567"/>
      <point x="221" y="537"/>
      <point x="221" y="462" type="curve" smooth="yes"/>
      <point x="221" y="393"/>
      <point x="186" y="354"/>
      <point x="122" y="354" type="curve" smooth="yes"/>
      <point x="103" y="354"/>
      <point x="82" y="357"/>
      <point x="56" y="363" type="curve"/>
      <point x="37" y="363" type="line"/>
      <point x="37" y="303" type="line"/>
      <point x="72" y="295"/>
      <point x="100" y="292"/>
    </contour>
  </outline>
</glyph>
<glyph name="sixsuperior" format="1">
  <advance width="389"/>
  <unicode hex="2076"/>
  <outline>
    <contour>
      <point x="202" y="292" type="curve" smooth="yes"/>
      <point x="298" y="292"/>
      <point x="361" y="366"/>
      <point x="361" y="478" type="curve" smooth="yes"/>
      <point x="361" y="576"/>
      <point x="303" y="637"/>
      <point x="212" y="637" type="curve" smooth="yes"/>
      <point x="176" y="637"/>
      <point x="138" y="622"/>
      <point x="106" y="595" type="curve"/>
      <point x="116" y="723"/>
      <point x="166" y="793"/>
      <point x="248" y="793" type="curve" smooth="yes"/>
      <point x="271" y="793"/>
      <point x="294" y="789"/>
      <point x="327" y="779" type="curve"/>
      <point x="332" y="841" type="line"/>
      <point x="300" y="850"/>
      <point x="272" y="855"/>
      <point x="246" y="855" type="curve" smooth="yes"/>
      <point x="111" y="855"/>
      <point x="36" y="742"/>
      <point x="36" y="543" type="curve" smooth="yes"/>
      <point x="36" y="378"/>
      <point x="93" y="292"/>
    </contour>
    <contour>
      <point x="202" y="356" type="curve" smooth="yes"/>
      <point x="136" y="356"/>
      <point x="105" y="414"/>
      <point x="104" y="536" type="curve"/>
      <point x="133" y="565"/>
      <point x="171" y="583"/>
      <point x="201" y="583" type="curve" smooth="yes"/>
      <point x="260" y="583"/>
      <point x="292" y="546"/>
      <point x="292" y="477" type="curve" smooth="yes"/>
      <point x="292" y="402"/>
      <point x="258" y="356"/>
    </contour>
  </outline>
</glyph>
<glyph name="eightsuperior" format="1">
  <advance width="386"/>
  <unicode hex="2078"/>
  <outline>
    <contour>
      <point x="193" y="298" type="curve" smooth="yes"/>
      <point x="290" y="298"/>
      <point x="351" y="354"/>
      <point x="351" y="445" type="curve" smooth="yes"/>
      <point x="351" y="510"/>
      <point x="328" y="552"/>
      <point x="273" y="581" type="curve"/>
      <point x="318" y="606"/>
      <point x="338" y="646"/>
      <point x="338" y="711" type="curve" smooth="yes"/>
      <point x="338" y="800"/>
      <point x="283" y="853"/>
      <point x="193" y="853" type="curve" smooth="yes"/>
      <point x="104" y="853"/>
      <point x="48" y="799"/>
      <point x="48" y="711" type="curve" smooth="yes"/>
      <point x="48" y="651"/>
      <point x="69" y="609"/>
      <point x="114" y="581" type="curve"/>
      <point x="60" y="551"/>
      <point x="35" y="505"/>
      <point x="35" y="438" type="curve" smooth="yes"/>
      <point x="35" y="352"/>
      <point x="96" y="298"/>
    </contour>
    <contour>
      <point x="193" y="355" type="curve" smooth="yes"/>
      <point x="137" y="355"/>
      <point x="100" y="391"/>
      <point x="100" y="445" type="curve" smooth="yes"/>
      <point x="100" y="499"/>
      <point x="119" y="529"/>
      <point x="174" y="557" type="curve"/>
      <point x="194" y="550" type="line" smooth="yes"/>
      <point x="263" y="528"/>
      <point x="286" y="501"/>
      <point x="286" y="445" type="curve" smooth="yes"/>
      <point x="286" y="390"/>
      <point x="250" y="355"/>
    </contour>
    <contour>
      <point x="206" y="603" type="curve"/>
      <point x="196" y="606" type="line" smooth="yes"/>
      <point x="136" y="626"/>
      <point x="112" y="655"/>
      <point x="112" y="707" type="curve" smooth="yes"/>
      <point x="112" y="761"/>
      <point x="142" y="794"/>
      <point x="193" y="794" type="curve" smooth="yes"/>
      <point x="244" y="794"/>
      <point x="275" y="763"/>
      <point x="275" y="708" type="curve" smooth="yes"/>
      <point x="275" y="655"/>
      <point x="255" y="624"/>
    </contour>
  </outline>
</glyph>
<glyph name="fourinferior" format="1">
  <advance width="380"/>
  <unicode hex="2084"/>
  <outline>
    <contour>
      <point x="231" y="-100" type="line"/>
      <point x="304" y="-100" type="line"/>
      <point x="304" y="29" type="line"/>
      <point x="358" y="29" type="line"/>
      <point x="358" y="86" type="line"/>
      <point x="304" y="86" type="line"/>
      <point x="304" y="278" type="line"/>
      <point x="256" y="278" type="line"/>
      <point x="236" y="86" type="line"/>
      <point x="90" y="86" type="line"/>
      <point x="260" y="432" type="line"/>
      <point x="257" y="442" type="line"/>
      <point x="200" y="451" type="line"/>
      <point x="190" y="447" type="line"/>
      <point x="15" y="71" type="line"/>
      <point x="31" y="29" type="line"/>
      <point x="231" y="29" type="line"/>
    </contour>
  </outline>
</glyph>
<glyph name="seveninferior" format="1">
  <advance width="296"/>
  <unicode hex="2087"/>
  <outline>
    <contour>
      <point x="106" y="-110" type="line"/>
      <point x="55" y="-99" type="line"/>
      <point x="49" y="-81" type="line"/>
      <point x="221" y="418" type="line"/>
      <point x="241" y="378" type="line"/>
      <point x="24" y="378" type="line"/>
      <point x="24" y="433" type="line"/>
      <point x="32" y="440" type="line"/>
      <point x="262" y="440" type="line"/>
      <point x="279" y="413" type="line"/>
      <point x="279" y="380" type="line"/>
      <point x="118" y="-100" type="line"/>
    </contour>
  </outline>
</glyph>
<glyph name="eightinferior" format="1">
  <advance width="386"/>
  <unicode hex="2088"/>
  <outline>
    <contour>
      <point x="193" y="-102" type="curve" smooth="yes"/>
      <point x="290" y="-102"/>
      <point x="351" y="-46"/>
      <point x="351" y="45" type="curve" smooth="yes"/>
      <point x="351" y="110"/>
      <point x="328" y="152"/>
      <point x="273" y="181" type="curve"/>
      <point x="318" y="206"/>
      <point x="338" y="246"/>
      <point x="338" y="311" type="curve" smooth="yes"/>
      <point x="338" y="400"/>
      <point x="283" y="453"/>
      <point x="193" y="453" type="curve" smooth="yes"/>
      <point x="104" y="453"/>
      <point x="48" y="399"/>
      <point x="48" y="311" type="curve" smooth="yes"/>
      <point x="48" y="251"/>
      <point x="69" y="209"/>
      <point x="114" y="181" type="curve"/>
      <point x="60" y="151"/>
      <point x="35" y="105"/>
      <point x="35" y="38" type="curve" smooth="yes"/>
      <point x="35" y="-48"/>
      <point x="96" y="-102"/>
    </contour>
    <contour>
      <point x="193" y="-45" type="curve" smooth="yes"/>
      <point x="137" y="-45"/>
      <point x="100" y="-9"/>
      <point x="100" y="45" type="curve" smooth="yes"/>
      <point x="100" y="99"/>
      <point x="119" y="129"/>
      <point x="174" y="157" type="curve"/>
      <point x="194" y="150" type="line" smooth="yes"/>
      <point x="263" y="128"/>
      <point x="286" y="101"/>
      <point x="286" y="45" type="curve" smooth="yes"/>
      <point x="286" y="-10"/>
      <point x="250" y="-45"/>
    </contour>
    <contour>
      <point x="206" y="203" type="curve"/>
      <point x="196" y="206" type="line" smooth="yes"/>
      <point x="136" y="226"/>
      <point x="112" y="255"/>
      <point x="112" y="307" type="curve" smooth="yes"/>
      <point x="112" y="361"/>
      <point x="142" y="394"/>
      <point x="193" y="394" type="curve" smooth="yes"/>
      <point x="244" y="394"/>
      <point x="275" y="363"/>
      <point x="275" y="308" type="curve" smooth="yes"/>
      <point x="275" y="255"/>
      <point x="255" y="224"/>
    </contour>
  </outline>
</glyph>
<glyph name="nineinferior" format="1">
  <advance width="389"/>
  <unicode hex="2089"/>
  <outline>
    <contour>
      <point x="143" y="-108" type="curve" smooth="yes"/>
      <point x="278" y="-108"/>
      <point x="353" y="5"/>
      <point x="353" y="204" type="curve" smooth="yes"/>
      <point x="353" y="368"/>
      <point x="296" y="455"/>
      <point x="187" y="455" type="curve" smooth="yes"/>
      <point x="91" y="455"/>
      <point x="28" y="381"/>
      <point x="28" y="269" type="curve" smooth="yes"/>
      <point x="28" y="171"/>
      <point x="86" y="110"/>
      <point x="177" y="110" type="curve" smooth="yes"/>
      <point x="211" y="110"/>
      <point x="250" y="125"/>
      <point x="283" y="152" type="curve"/>
      <point x="273" y="24"/>
      <point x="223" y="-46"/>
      <point x="142" y="-46" type="curve" smooth="yes"/>
      <point x="118" y="-46"/>
      <point x="94" y="-42"/>
      <point x="62" y="-32" type="curve"/>
      <point x="57" y="-95" type="line"/>
      <point x="91" y="-103"/>
      <point x="119" y="-108"/>
    </contour>
    <contour>
      <point x="188" y="163" type="curve" smooth="yes"/>
      <point x="129" y="163"/>
      <point x="97" y="201"/>
      <point x="97" y="270" type="curve" smooth="yes"/>
      <point x="97" y="344"/>
      <point x="131" y="391"/>
      <point x="187" y="391" type="curve" smooth="yes"/>
      <point x="252" y="391"/>
      <point x="284" y="333"/>
      <point x="285" y="212" type="curve"/>
      <point x="256" y="182"/>
      <point x="219" y="163"/>
    </contour>
  </outline>
</glyph>
<glyph name="franc" format="1">
  <advance width="541"/>
  <unicode hex="20A3"/>
  <outline>
    <contour>
      <point x="128" y="0" type="line"/>
      <point x="210" y="0" type="line"/>
      <point x="210" y="668" type="line"/>
      <point x="503" y="668" type="line"/>
      <point x="503" y="740" type="line"/>
      <point x="128" y="740" type="line"/>
    </contour>
    <contour>
      <point x="27" y="104" type="line"/>
      <point x="316" y="104" type="line"/>
      <point x="316" y="162" type="line"/>
      <point x="27" y="162" type="line"/>
    </contour>
    <contour>
      <point x="190" y="338" type="line"/>
      <point x="482" y="338" type="line"/>
      <point x="482" y="410" type="line"/>
      <point x="190" y="410" type="line"/>
    </contour>
  </outline>
</glyph>
<glyph name="uni20B9" format="1">
  <advance width="564"/>
  <unicode hex="20B9"/>
  <outline>
    <contour>
      <point x="58" y="675" type="line"/>
      <point x="92" y="678"/>
      <point x="115" y="679"/>
      <point x="144" y="679" type="curve" smooth="yes"/>
      <point x="275" y="679"/>
      <point x="330" y="637"/>
      <point x="330" y="509" type="curve" smooth="yes"/>
      <point x="330" y="384"/>
      <point x="277" y="343"/>
      <point x="150" y="343" type="curve" smooth="yes"/>
      <point x="58" y="343" type="line"/>
      <point x="58" y="281" type="line"/>
      <point x="256" y="281" type="line"/>
      <point x="279" y="284" type="line"/>
      <point x="279" y="295" type="line"/>
      <point x="371" y="325"/>
      <point x="417" y="402"/>
      <point x="417" y="510" type="curve" smooth="yes"/>
      <point x="417" y="609"/>
      <point x="385" y="679"/>
      <point x="316" y="717" type="curve"/>
      <point x="57" y="717" type="line"/>
    </contour>
    <contour>
      <point x="335" y="0" type="line"/>
      <point x="431" y="0" type="line"/>
      <point x="261" y="326" type="line"/>
      <point x="185" y="302" type="line"/>
    </contour>
    <contour>
      <point x="57" y="686" type="line"/>
      <point x="522" y="686" type="line"/>
      <point x="542" y="740" type="line"/>
      <point x="57" y="740" type="line"/>
    </contour>
    <contour>
      <point x="57" y="482" type="line"/>
      <point x="490" y="482" type="line"/>
      <point x="510" y="536" type="line"/>
      <point x="57" y="536" type="line"/>
    </contour>
  </outline>
</glyph>
<glyph name="uni2113" format="1">
  <advance width="436"/>
  <unicode hex="2113"/>
  <outline>
    <contour>
      <point x="243" y="-1" type="curve" smooth="yes"/>
      <point x="303" y="-1"/>
      <point x="337" y="57"/>
      <point x="350" y="88" type="curve"/>
      <point x="317" y="101" type="line"/>
      <point x="304" y="68"/>
      <point x="280" y="37"/>
      <point x="257" y="37" type="curve" smooth="yes"/>
      <point x="228" y="37"/>
      <point x="212" y="95"/>
      <point x="212" y="185" type="curve" smooth="yes"/>
      <point x="212" y="219"/>
      <point x="214" y="250"/>
      <point x="217" y="279" type="curve"/>
      <point x="343" y="411"/>
      <point x="425" y="550"/>
      <point x="425" y="666" type="curve" smooth="yes"/>
      <point x="425" y="740"/>
      <point x="405" y="783"/>
      <point x="359" y="783" type="curve" smooth="yes"/>
      <point x="258" y="783"/>
      <point x="192" y="581"/>
      <point x="165" y="278" type="curve"/>
      <point x="118" y="232"/>
      <point x="72" y="193"/>
      <point x="27" y="158" type="curve"/>
      <point x="49" y="130" type="line"/>
      <point x="84" y="157"/>
      <point x="123" y="190"/>
      <point x="161" y="225" type="curve"/>
      <point x="160" y="212"/>
      <point x="160" y="197"/>
      <point x="160" y="175" type="curve" smooth="yes"/>
      <point x="160" y="59"/>
      <point x="187" y="-1"/>
    </contour>
    <contour>
      <point x="223" y="341" type="curve"/>
      <point x="247" y="570"/>
      <point x="293" y="714"/>
      <point x="348" y="741" type="curve"/>
      <point x="365" y="736"/>
      <point x="373" y="701"/>
      <point x="373" y="648" type="curve" smooth="yes"/>
      <point x="373" y="561"/>
      <point x="317" y="450"/>
    </contour>
  </outline>
</glyph>
<glyph name="servicemark" format="1">
  <advance width="796"/>
  <unicode hex="2120"/>
  <outline>
    <contour>
      <point x="167" y="313" type="curve" smooth="yes"/>
      <point x="245" y="313"/>
      <point x="293" y="358"/>
      <point x="293" y="433" type="curve" smooth="yes"/>
      <point x="293" y="493"/>
      <point x="266" y="527"/>
      <point x="194" y="556" type="curve" smooth="yes"/>
      <point x="139" y="578"/>
      <point x="118" y="595"/>
      <point x="118" y="627" type="curve" smooth="yes"/>
      <point x="118" y="668"/>
      <point x="145" y="694"/>
      <point x="188" y="694" type="curve" smooth="yes"/>
      <point x="207" y="694"/>
      <point x="237" y="689"/>
      <point x="274" y="680" type="curve"/>
      <point x="280" y="733" type="line"/>
      <point x="243" y="742"/>
      <point x="214" y="746"/>
      <point x="185" y="746" type="curve" smooth="yes"/>
      <point x="108" y="746"/>
      <point x="58" y="700"/>
      <point x="58" y="627" type="curve" smooth="yes"/>
      <point x="58" y="568"/>
      <point x="86" y="534"/>
      <point x="156" y="508" type="curve" smooth="yes"/>
      <point x="212" y="486"/>
      <point x="233" y="464"/>
      <point x="233" y="431" type="curve" smooth="yes"/>
      <point x="233" y="390"/>
      <point x="207" y="367"/>
      <point x="161" y="367" type="curve" smooth="yes"/>
      <point x="132" y="367"/>
      <point x="83" y="377"/>
      <point x="58" y="389" type="curve"/>
      <point x="52" y="335" type="line"/>
      <point x="86" y="321"/>
      <point x="134" y="313"/>
    </contour>
    <contour>
      <point x="361" y="320" type="line"/>
      <point x="418" y="320" type="line"/>
      <point x="418" y="627" type="line"/>
      <point x="521" y="339" type="line"/>
      <point x="575" y="339" type="line"/>
      <point x="678" y="628" type="line"/>
      <point x="678" y="320" type="line"/>
      <point x="736" y="320" type="line"/>
      <point x="736" y="740" type="line"/>
      <point x="661" y="740" type="line"/>
      <point x="548" y="428" type="line"/>
      <point x="435" y="740" type="line"/>
      <point x="361" y="740" type="line"/>
    </contour>
  </outline>
</glyph>
<glyph name="trademark" format="1">
  <advance width="786"/>
  <unicode hex="2122"/>
  <outline>
    <contour>
      <point x="350" y="320" type="line"/>
      <point x="407" y="320" type="line"/>
      <point x="407" y="627" type="line"/>
      <point x="510" y="339" type="line"/>
      <point x="564" y="339" type="line"/>
      <point x="667" y="628" type="line"/>
      <point x="667" y="320" type="line"/>
      <point x="724" y="320" type="line"/>
      <point x="724" y="740" type="line"/>
      <point x="650" y="740" type="line"/>
      <point x="537" y="428" type="line"/>
      <point x="424" y="740" type="line"/>
      <point x="350" y="740" type="line"/>
    </contour>
    <contour>
      <point x="134" y="320" type="line"/>
      <point x="194" y="320" type="line"/>
      <point x="194" y="686" type="line"/>
      <point x="301" y="686" type="line"/>
      <point x="301" y="740" type="line"/>
      <point x="27" y="740" type="line"/>
      <point x="27" y="686" type="line"/>
      <point x="134" y="686" type="line"/>
    </contour>
  </outline>
</glyph>
<glyph name="arrowdown" format="1">
  <advance width="650"/>
  <unicode hex="2193"/>
  <outline>
    <contour>
      <point x="313" y="146" type="line"/>
      <point x="335" y="146" type="line"/>
      <point x="622" y="431" type="line"/>
      <point x="573" y="481" type="line"/>
      <point x="357" y="252" type="line"/>
      <point x="362" y="655" type="line"/>
      <point x="287" y="655" type="line"/>
      <point x="292" y="252" type="line"/>
      <point x="76" y="481" type="line"/>
      <point x="27" y="431" type="line"/>
    </contour>
  </outline>
</glyph>
<glyph name="summation" format="1">
  <advance width="512"/>
  <unicode hex="2211"/>
  <outline>
    <contour>
      <point x="30" y="-101" type="line"/>
      <point x="474" y="-101" type="line"/>
      <point x="474" y="-29" type="line"/>
      <point x="128" y="-29" type="line"/>
      <point x="340" y="319" type="line"/>
      <point x="128" y="668" type="line"/>
      <point x="474" y="668" type="line"/>
      <point x="474" y="740" type="line"/>
      <point x="30" y="740" type="line"/>
      <point x="30" y="684" type="line"/>
      <point x="254" y="319" type="line"/>
      <point x="30" y="-46" type="line"/>
    </contour>
  </outline>
</glyph>
<glyph name="minus" format="1">
  <advance width="510"/>
  <unicode hex="2212"/>
  <outline>
    <contour>
      <point x="57" y="338" type="line"/>
      <point x="454" y="338" type="line"/>
      <point x="454" y="402" type="line"/>
      <point x="57" y="402" type="line"/>
    </contour>
  </outline>
</glyph>
<glyph name="uni2215" format="1">
  <advance width="330"/>
  <unicode hex="2215"/>
  <outline>
    <contour>
      <point x="4" y="0" type="line"/>
      <point x="66" y="0" type="line"/>
      <point x="326" y="740" type="line"/>
      <point x="264" y="740" type="line"/>
    </contour>
  </outline>
</glyph>
<glyph name="radical" format="1">
  <advance width="606"/>
  <unicode hex="221A"/>
  <outline>
    <contour>
      <point x="295" y="0" type="line"/>
      <point x="396" y="0" type="line"/>
      <point x="598" y="851" type="line"/>
      <point x="522" y="851" type="line"/>
      <point x="340" y="85" type="line"/>
      <point x="169" y="506" type="line"/>
      <point x="12" y="438" type="line"/>
      <point x="41" y="370" type="line"/>
      <point x="130" y="410" type="line"/>
    </contour>
  </outline>
</glyph>
<glyph name="infinity" format="1">
  <advance width="885"/>
  <unicode hex="221E"/>
  <outline>
    <contour>
      <point x="230" y="137" type="curve" smooth="yes"/>
      <point x="325" y="137"/>
      <point x="380" y="197"/>
      <point x="442" y="264" type="curve"/>
      <point x="523" y="169"/>
      <point x="580" y="137"/>
      <point x="656" y="137" type="curve" smooth="yes"/>
      <point x="766" y="137"/>
      <point x="846" y="211"/>
      <point x="846" y="313" type="curve" smooth="yes"/>
      <point x="846" y="411"/>
      <point x="765" y="483"/>
      <point x="656" y="483" type="curve" smooth="yes"/>
      <point x="572" y="483"/>
      <point x="502" y="437"/>
      <point x="442" y="368" type="curve"/>
      <point x="384" y="442"/>
      <point x="309" y="483"/>
      <point x="230" y="483" type="curve" smooth="yes"/>
      <point x="122" y="483"/>
      <point x="40" y="410"/>
      <point x="40" y="314" type="curve" smooth="yes"/>
      <point x="40" y="210"/>
      <point x="118" y="137"/>
    </contour>
    <contour>
      <point x="238" y="198" type="curve" smooth="yes"/>
      <point x="167" y="198"/>
      <point x="117" y="246"/>
      <point x="117" y="314" type="curve" smooth="yes"/>
      <point x="117" y="377"/>
      <point x="167" y="423"/>
      <point x="236" y="423" type="curve" smooth="yes"/>
      <point x="298" y="423"/>
      <point x="355" y="387"/>
      <point x="406" y="315" type="curve"/>
      <point x="334" y="228"/>
      <point x="290" y="198"/>
    </contour>
    <contour>
      <point x="650" y="198" type="curve" smooth="yes"/>
      <point x="596" y="198"/>
      <point x="552" y="227"/>
      <point x="479" y="314" type="curve"/>
      <point x="527" y="385"/>
      <point x="587" y="423"/>
      <point x="648" y="423" type="curve" smooth="yes"/>
      <point x="716" y="423"/>
      <point x="768" y="375"/>
      <point x="768" y="313" type="curve" smooth="yes"/>
      <point x="768" y="244"/>
      <point x="720" y="198"/>
    </contour>
  </outline>
</glyph>
<glyph name="approxequal" format="1">
  <advance width="501"/>
  <unicode hex="2248"/>
  <outline>
    <contour>
      <point x="57" y="418" type="line"/>
      <point x="92" y="434"/>
      <point x="126" y="446"/>
      <point x="168" y="446" type="curve" smooth="yes"/>
      <point x="229" y="446"/>
      <point x="274" y="410"/>
      <point x="334" y="410" type="curve" smooth="yes"/>
      <point x="377" y="410"/>
      <point x="411" y="429"/>
      <point x="445" y="443" type="curve"/>
      <point x="445" y="503" type="line"/>
      <point x="410" y="486"/>
      <point x="377" y="474"/>
      <point x="334" y="474" type="curve" smooth="yes"/>
      <point x="274" y="474"/>
      <point x="229" y="509"/>
      <point x="168" y="509" type="curve" smooth="yes"/>
      <point x="126" y="509"/>
      <point x="92" y="492"/>
      <point x="57" y="480" type="curve"/>
    </contour>
    <contour>
      <point x="57" y="211" type="line"/>
      <point x="92" y="228"/>
      <point x="126" y="239"/>
      <point x="168" y="239" type="curve" smooth="yes"/>
      <point x="229" y="239"/>
      <point x="274" y="204"/>
      <point x="334" y="204" type="curve" smooth="yes"/>
      <point x="377" y="204"/>
      <point x="411" y="223"/>
      <point x="445" y="236" type="curve"/>
      <point x="445" y="296" type="line"/>
      <point x="410" y="279"/>
      <point x="377" y="267"/>
      <point x="334" y="267" type="curve" smooth="yes"/>
      <point x="274" y="267"/>
      <point x="229" y="302"/>
      <point x="168" y="302" type="curve" smooth="yes"/>
      <point x="126" y="302"/>
      <point x="92" y="286"/>
      <point x="57" y="273" type="curve"/>
    </contour>
  </outline>
</glyph>
<glyph name="greaterequal" format="1">
  <advance width="515"/>
  <unicode hex="2265"/>
  <outline>
    <contour>
      <point x="65" y="196" type="line"/>
      <point x="464" y="358" type="line"/>
      <point x="464" y="405" type="line"/>
      <point x="397" y="396" type="line"/>
      <point x="65" y="267" type="line"/>
    </contour>
    <contour>
      <point x="62" y="510" type="line"/>
      <point x="397" y="381" type="line"/>
      <point x="464" y="372" type="line"/>
      <point x="464" y="419" type="line"/>
      <point x="62" y="581" type="line"/>
    </contour>
    <contour>
      <point x="54" y="77" type="line"/>
      <point x="454" y="77" type="line"/>
      <point x="454" y="141" type="line"/>
      <point x="54" y="141" type="line"/>
    </contour>
  </outline>
</glyph>
<glyph name="lozenge" format="1">
  <advance width="464"/>
  <unicode hex="25CA"/>
  <outline>
    <contour>
      <point x="184" y="0" type="line"/>
      <point x="280" y="0" type="line"/>
      <point x="432" y="365" type="line"/>
      <point x="432" y="376" type="line"/>
      <point x="280" y="740" type="line"/>
      <point x="184" y="740" type="line"/>
      <point x="32" y="376" type="line"/>
      <point x="32" y="365" type="line"/>
    </contour>
    <contour>
      <point x="232" y="59" type="line"/>
      <point x="108" y="370" type="line"/>
      <point x="232" y="681" type="line"/>
      <point x="356" y="370" type="line"/>
    </contour>
  </outline>
</glyph>
<glyph name="commaaccent" format="1">
  <advance width="216"/>
  <unicode hex="F6C3"/>
  <outline>
    <contour>
      <point x="122" y="0" type="move" name="_bottom"/>
    </contour>
    <contour>
      <point x="44" y="-220" type="line"/>
      <point x="110" y="-220" type="line"/>
      <point x="175" y="-67" type="line"/>
      <point x="92" y="-67" type="line"/>
    </contour>
  </outline>
</glyph>
<glyph name="AEacute.sc" format="1">
  <advance width="686"/>
  <outline>
    <contour>
      <point x="12" y="0" type="line"/>
      <point x="92" y="0" type="line"/>
      <point x="152" y="164" type="line"/>
      <point x="337" y="164" type="line"/>
      <point x="344" y="0" type="line"/>
      <point x="648" y="0" type="line"/>
      <point x="648" y="67" type="line"/>
      <point x="421" y="67" type="line"/>
      <point x="410" y="259" type="line"/>
      <point x="619" y="259" type="line"/>
      <point x="619" y="324" type="line"/>
      <point x="405" y="324" type="line"/>
      <point x="395" y="511" type="line"/>
      <point x="641" y="511" type="line"/>
      <point x="641" y="577" type="line"/>
      <point x="219" y="577" type="line"/>
      <point x="12" y="5" type="line"/>
    </contour>
    <contour>
      <point x="173" y="226" type="line"/>
      <point x="279" y="514" type="line"/>
      <point x="321" y="514" type="line"/>
      <point x="334" y="226" type="line"/>
    </contour>
    <contour>
      <point x="433" y="615" type="line"/>
      <point x="519" y="736" type="line"/>
      <point x="438" y="736" type="line"/>
      <point x="374" y="619" type="line"/>
    </contour>
  </outline>
</glyph>
<glyph name="Aacute.sc" format="1">
  <advance width="505"/>
  <outline>
    <contour>
      <point x="10" y="0" type="line"/>
      <point x="85" y="0" type="line"/>
      <point x="140" y="164" type="line"/>
      <point x="365" y="164" type="line"/>
      <point x="420" y="0" type="line"/>
      <point x="495" y="0" type="line"/>
      <point x="495" y="5" type="line"/>
      <point x="310" y="577" type="line"/>
      <point x="196" y="577" type="line"/>
      <point x="10" y="5" type="line"/>
    </contour>
    <contour>
      <point x="155" y="223" type="line"/>
      <point x="224" y="428" type="line"/>
      <point x="249" y="512" type="line"/>
      <point x="256" y="512" type="line"/>
      <point x="281" y="428" type="line"/>
      <point x="349" y="223" type="line"/>
    </contour>
    <contour>
      <point x="279" y="615" type="line"/>
      <point x="364" y="736" type="line"/>
      <point x="283" y="736" type="line"/>
      <point x="219" y="619" type="line"/>
    </contour>
  </outline>
</glyph>
<glyph name="Abreve.sc" format="1">
  <advance width="505"/>
  <outline>
    <contour>
      <point x="254" y="628" type="curve" smooth="yes"/>
      <point x="340" y="628"/>
      <point x="389" y="674"/>
      <point x="389" y="749" type="curve"/>
      <point x="331" y="749" type="line"/>
      <point x="331" y="697"/>
      <point x="305" y="672"/>
      <point x="254" y="672" type="curve" smooth="yes"/>
      <point x="202" y="672"/>
      <point x="177" y="697"/>
      <point x="177" y="749" type="curve"/>
      <point x="118" y="749" type="line"/>
      <point x="118" y="674"/>
      <point x="168" y="628"/>
    </contour>
    <contour>
      <point x="10" y="0" type="line"/>
      <point x="85" y="0" type="line"/>
      <point x="140" y="164" type="line"/>
      <point x="365" y="164" type="line"/>
      <point x="420" y="0" type="line"/>
      <point x="495" y="0" type="line"/>
      <point x="495" y="5" type="line"/>
      <point x="310" y="577" type="line"/>
      <point x="196" y="577" type="line"/>
      <point x="10" y="5" type="line"/>
    </contour>
    <contour>
      <point x="155" y="223" type="line"/>
      <point x="224" y="428" type="line"/>
      <point x="249" y="512" type="line"/>
      <point x="256" y="512" type="line"/>
      <point x="281" y="428" type="line"/>
      <point x="349" y="223" type="line"/>
    </contour>
  </outline>
</glyph>
<glyph name="Acircumflex.sc" format="1">
  <advance width="505"/>
  <outline>
    <contour>
      <point x="10" y="0" type="line"/>
      <point x="85" y="0" type="line"/>
      <point x="140" y="164" type="line"/>
      <point x="365" y="164" type="line"/>
      <point x="420" y="0" type="line"/>
      <point x="495" y="0" type="line"/>
      <point x="495" y="5" type="line"/>
      <point x="310" y="577" type="line"/>
      <point x="196" y="577" type="line"/>
      <point x="10" y="5" type="line"/>
    </contour>
    <contour>
      <point x="155" y="223" type="line"/>
      <point x="224" y="428" type="line"/>
      <point x="249" y="512" type="line"/>
      <point x="256" y="512" type="line"/>
      <point x="281" y="428" type="line"/>
      <point x="349" y="223" type="line"/>
    </contour>
    <contour>
      <point x="132" y="628" type="line"/>
      <point x="253" y="684" type="line"/>
      <point x="375" y="628" type="line"/>
      <point x="375" y="687" type="line"/>
      <point x="254" y="743" type="line"/>
      <point x="132" y="687" type="line"/>
    </contour>
  </outline>
</glyph>
<glyph name="Adieresis.sc" format="1">
  <advance width="505"/>
  <outline>
    <contour>
      <point x="164" y="630" type="curve" smooth="yes"/>
      <point x="196" y="630"/>
      <point x="213" y="644"/>
      <point x="213" y="676" type="curve" smooth="yes"/>
      <point x="213" y="708"/>
      <point x="196" y="722"/>
      <point x="164" y="722" type="curve" smooth="yes"/>
      <point x="133" y="722"/>
      <point x="117" y="709"/>
      <point x="117" y="676" type="curve" smooth="yes"/>
      <point x="117" y="644"/>
      <point x="133" y="630"/>
    </contour>
    <contour>
      <point x="342" y="630" type="curve" smooth="yes"/>
      <point x="372" y="630"/>
      <point x="390" y="644"/>
      <point x="390" y="676" type="curve" smooth="yes"/>
      <point x="390" y="708"/>
      <point x="372" y="722"/>
      <point x="342" y="722" type="curve" smooth="yes"/>
      <point x="311" y="722"/>
      <point x="294" y="709"/>
      <point x="294" y="676" type="curve" smooth="yes"/>
      <point x="294" y="644"/>
      <point x="311" y="630"/>
    </contour>
    <contour>
      <point x="10" y="0" type="line"/>
      <point x="85" y="0" type="line"/>
      <point x="140" y="164" type="line"/>
      <point x="365" y="164" type="line"/>
      <point x="420" y="0" type="line"/>
      <point x="495" y="0" type="line"/>
      <point x="495" y="5" type="line"/>
      <point x="310" y="577" type="line"/>
      <point x="196" y="577" type="line"/>
      <point x="10" y="5" type="line"/>
    </contour>
    <contour>
      <point x="155" y="223" type="line"/>
      <point x="224" y="428" type="line"/>
      <point x="249" y="512" type="line"/>
      <point x="256" y="512" type="line"/>
      <point x="281" y="428" type="line"/>
      <point x="349" y="223" type="line"/>
    </contour>
  </outline>
</glyph>
<glyph name="Ainvertedbreve.sc" format="1">
  <advance width="505"/>
  <outline>
    <contour>
      <point x="119" y="636" type="curve"/>
      <point x="177" y="636" type="line"/>
      <point x="177" y="688"/>
      <point x="202" y="713"/>
      <point x="253" y="713" type="curve" smooth="yes"/>
      <point x="305" y="713"/>
      <point x="330" y="688"/>
      <point x="330" y="636" type="curve"/>
      <point x="389" y="636" type="line"/>
      <point x="389" y="711"/>
      <point x="340" y="756"/>
      <point x="253" y="756" type="curve" smooth="yes"/>
      <point x="167" y="756"/>
      <point x="119" y="711"/>
    </contour>
    <contour>
      <point x="10" y="0" type="line"/>
      <point x="85" y="0" type="line"/>
      <point x="140" y="164" type="line"/>
      <point x="365" y="164" type="line"/>
      <point x="420" y="0" type="line"/>
      <point x="495" y="0" type="line"/>
      <point x="495" y="5" type="line"/>
      <point x="310" y="577" type="line"/>
      <point x="196" y="577" type="line"/>
      <point x="10" y="5" type="line"/>
    </contour>
    <contour>
      <point x="155" y="223" type="line"/>
      <point x="224" y="428" type="line"/>
      <point x="249" y="512" type="line"/>
      <point x="256" y="512" type="line"/>
      <point x="281" y="428" type="line"/>
      <point x="349" y="223" type="line"/>
    </contour>
  </outline>
</glyph>
<glyph name="Amacron.sc" format="1">
  <advance width="505"/>
  <outline>
    <contour>
      <point x="10" y="0" type="line"/>
      <point x="85" y="0" type="line"/>
      <point x="140" y="164" type="line"/>
      <point x="365" y="164" type="line"/>
      <point x="420" y="0" type="line"/>
      <point x="495" y="0" type="line"/>
      <point x="495" y="5" type="line"/>
      <point x="310" y="577" type="line"/>
      <point x="196" y="577" type="line"/>
      <point x="10" y="5" type="line"/>
    </contour>
    <contour>
      <point x="155" y="223" type="line"/>
      <point x="224" y="428" type="line"/>
      <point x="249" y="512" type="line"/>
      <point x="256" y="512" type="line"/>
      <point x="281" y="428" type="line"/>
      <point x="349" y="223" type="line"/>
    </contour>
    <contour>
      <point x="135" y="655" type="line"/>
      <point x="361" y="655" type="line"/>
      <point x="361" y="711" type="line"/>
      <point x="135" y="711" type="line"/>
    </contour>
  </outline>
</glyph>
<glyph name="Aogonek.sc" format="1">
  <advance width="505"/>
  <outline>
    <contour>
      <point x="441" y="-169" type="curve" smooth="yes"/>
      <point x="460" y="-169"/>
      <point x="477" y="-166"/>
      <point x="495" y="-160" type="curve"/>
      <point x="495" y="-110" type="line"/>
      <point x="482" y="-116"/>
      <point x="464" y="-119"/>
      <point x="448" y="-119" type="curve" smooth="yes"/>
      <point x="424" y="-119"/>
      <point x="411" y="-111"/>
      <point x="411" y="-91" type="curve" smooth="yes"/>
      <point x="411" y="-63"/>
      <point x="437" y="-30"/>
      <point x="495" y="-10" type="curve"/>
      <point x="495" y="5" type="line"/>
      <point x="310" y="577" type="line"/>
      <point x="195" y="577" type="line"/>
      <point x="9" y="5" type="line"/>
      <point x="9" y="0" type="line"/>
      <point x="84" y="0" type="line"/>
      <point x="140" y="164" type="line"/>
      <point x="364" y="164" type="line"/>
      <point x="420" y="0" type="line"/>
      <point x="425" y="0" type="line"/>
      <point x="377" y="-30"/>
      <point x="355" y="-61"/>
      <point x="355" y="-99" type="curve" smooth="yes"/>
      <point x="355" y="-145"/>
      <point x="385" y="-169"/>
    </contour>
    <contour>
      <point x="154" y="223" type="line"/>
      <point x="224" y="433" type="line"/>
      <point x="248" y="512" type="line"/>
      <point x="255" y="512" type="line"/>
      <point x="281" y="433" type="line"/>
      <point x="348" y="223" type="line"/>
    </contour>
  </outline>
</glyph>
<glyph name="Ccaron.sc" format="1">
  <advance width="443"/>
  <outline>
    <contour>
      <point x="307" y="-8" type="curve" smooth="yes"/>
      <point x="349" y="-8"/>
      <point x="383" y="-3"/>
      <point x="409" y="5" type="curve"/>
      <point x="409" y="68" type="line"/>
      <point x="378" y="63"/>
      <point x="338" y="60"/>
      <point x="314" y="60" type="curve" smooth="yes"/>
      <point x="179" y="60"/>
      <point x="123" y="120"/>
      <point x="123" y="288" type="curve" smooth="yes"/>
      <point x="123" y="461"/>
      <point x="176" y="517"/>
      <point x="316" y="517" type="curve" smooth="yes"/>
      <point x="347" y="517"/>
      <point x="382" y="514"/>
      <point x="409" y="510" type="curve"/>
      <point x="409" y="575" type="line"/>
      <point x="371" y="580"/>
      <point x="336" y="584"/>
      <point x="305" y="584" type="curve" smooth="yes"/>
      <point x="122" y="584"/>
      <point x="41" y="496"/>
      <point x="41" y="288" type="curve" smooth="yes"/>
      <point x="41" y="84"/>
      <point x="124" y="-6"/>
    </contour>
    <contour>
      <point x="147" y="676" type="line"/>
      <point x="269" y="619" type="line"/>
      <point x="391" y="676" type="line"/>
      <point x="391" y="735" type="line"/>
      <point x="269" y="679" type="line"/>
      <point x="147" y="735" type="line"/>
    </contour>
  </outline>
</glyph>
<glyph name="Dcroat.sc" format="1">
  <advance width="546"/>
  <outline>
    <contour>
      <point x="5" y="257" type="line"/>
      <point x="80" y="257" type="line"/>
      <point x="80" y="-4" type="line"/>
      <point x="125" y="-10"/>
      <point x="163" y="-12"/>
      <point x="199" y="-12" type="curve" smooth="yes"/>
      <point x="415" y="-12"/>
      <point x="505" y="76"/>
      <point x="505" y="288" type="curve" smooth="yes"/>
      <point x="505" y="495"/>
      <point x="421" y="585"/>
      <point x="224" y="585" type="curve" smooth="yes"/>
      <point x="185" y="585"/>
      <point x="140" y="581"/>
      <point x="80" y="574" type="curve"/>
      <point x="80" y="320" type="line"/>
      <point x="5" y="320" type="line"/>
    </contour>
    <contour>
      <point x="222" y="55" type="curve" smooth="yes"/>
      <point x="204" y="55"/>
      <point x="184" y="56"/>
      <point x="158" y="59" type="curve"/>
      <point x="158" y="257" type="line"/>
      <point x="273" y="257" type="line"/>
      <point x="273" y="320" type="line"/>
      <point x="158" y="320" type="line"/>
      <point x="158" y="513" type="line"/>
      <point x="182" y="517"/>
      <point x="206" y="519"/>
      <point x="232" y="519" type="curve" smooth="yes"/>
      <point x="369" y="519"/>
      <point x="424" y="456"/>
      <point x="424" y="288" type="curve" smooth="yes"/>
      <point x="424" y="122"/>
      <point x="361" y="55"/>
    </contour>
  </outline>
</glyph>
<glyph name="Ddotbelow.sc" format="1">
  <advance width="534"/>
  <outline>
    <contour>
      <point x="187" y="-12" type="curve" smooth="yes"/>
      <point x="402" y="-12"/>
      <point x="493" y="76"/>
      <point x="493" y="288" type="curve" smooth="yes"/>
      <point x="493" y="495"/>
      <point x="408" y="585"/>
      <point x="211" y="585" type="curve" smooth="yes"/>
      <point x="173" y="585"/>
      <point x="128" y="581"/>
      <point x="68" y="574" type="curve"/>
      <point x="68" y="-4" type="line"/>
      <point x="112" y="-10"/>
      <point x="151" y="-12"/>
    </contour>
    <contour>
      <point x="210" y="55" type="curve" smooth="yes"/>
      <point x="192" y="55"/>
      <point x="173" y="56"/>
      <point x="145" y="59" type="curve"/>
      <point x="145" y="513" type="line"/>
      <point x="169" y="517"/>
      <point x="194" y="519"/>
      <point x="220" y="519" type="curve" smooth="yes"/>
      <point x="357" y="519"/>
      <point x="411" y="456"/>
      <point x="411" y="288" type="curve" smooth="yes"/>
      <point x="411" y="122"/>
      <point x="350" y="55"/>
    </contour>
    <contour>
      <point x="250" y="-144" type="curve" smooth="yes"/>
      <point x="278" y="-144"/>
      <point x="294" y="-133"/>
      <point x="294" y="-104" type="curve" smooth="yes"/>
      <point x="294" y="-74"/>
      <point x="278" y="-62"/>
      <point x="250" y="-62" type="curve" smooth="yes"/>
      <point x="221" y="-62"/>
      <point x="206" y="-74"/>
      <point x="206" y="-104" type="curve" smooth="yes"/>
      <point x="206" y="-133"/>
      <point x="221" y="-144"/>
    </contour>
  </outline>
</glyph>
<glyph name="E.sc" format="1">
  <advance width="461"/>
  <outline>
    <contour>
      <point x="459" y="0" type="move" name="ogonek"/>
    </contour>
    <contour>
      <point x="268" y="760" type="move" name="topUC"/>
    </contour>
    <contour>
      <point x="288" y="0" type="move" name="bottom"/>
    </contour>
    <contour>
      <point x="68" y="0" type="line"/>
      <point x="425" y="0" type="line"/>
      <point x="425" y="67" type="line"/>
      <point x="147" y="67" type="line"/>
      <point x="147" y="259" type="line"/>
      <point x="390" y="259" type="line"/>
      <point x="390" y="324" type="line"/>
      <point x="147" y="324" type="line"/>
      <point x="147" y="511" type="line"/>
      <point x="418" y="511" type="line"/>
      <point x="418" y="577" type="line"/>
      <point x="68" y="577" type="line"/>
    </contour>
  </outline>
</glyph>
<glyph name="Eacute.sc" format="1">
  <advance width="461"/>
  <outline>
    <contour>
      <point x="68" y="0" type="line"/>
      <point x="425" y="0" type="line"/>
      <point x="425" y="67" type="line"/>
      <point x="147" y="67" type="line"/>
      <point x="147" y="259" type="line"/>
      <point x="390" y="259" type="line"/>
      <point x="390" y="324" type="line"/>
      <point x="147" y="324" type="line"/>
      <point x="147" y="511" type="line"/>
      <point x="418" y="511" type="line"/>
      <point x="418" y="577" type="line"/>
      <point x="68" y="577" type="line"/>
    </contour>
    <contour>
      <point x="269" y="615" type="line"/>
      <point x="354" y="736" type="line"/>
      <point x="273" y="736" type="line"/>
      <point x="209" y="619" type="line"/>
    </contour>
  </outline>
</glyph>
<glyph name="Ecaron.sc" format="1">
  <advance width="461"/>
  <outline>
    <contour>
      <point x="68" y="0" type="line"/>
      <point x="425" y="0" type="line"/>
      <point x="425" y="67" type="line"/>
      <point x="147" y="67" type="line"/>
      <point x="147" y="259" type="line"/>
      <point x="390" y="259" type="line"/>
      <point x="390" y="324" type="line"/>
      <point x="147" y="324" type="line"/>
      <point x="147" y="511" type="line"/>
      <point x="418" y="511" type="line"/>
      <point x="418" y="577" type="line"/>
      <point x="68" y="577" type="line"/>
    </contour>
    <contour>
      <point x="248" y="619" type="line"/>
      <point x="370" y="676" type="line"/>
      <point x="370" y="735" type="line"/>
      <point x="248" y="679" type="line"/>
      <point x="127" y="735" type="line"/>
      <point x="127" y="676" type="line"/>
    </contour>
  </outline>
</glyph>
<glyph name="Ecircumflex.sc" format="1">
  <advance width="461"/>
  <outline>
    <contour>
      <point x="68" y="0" type="line"/>
      <point x="425" y="0" type="line"/>
      <point x="425" y="67" type="line"/>
      <point x="147" y="67" type="line"/>
      <point x="147" y="259" type="line"/>
      <point x="390" y="259" type="line"/>
      <point x="390" y="324" type="line"/>
      <point x="147" y="324" type="line"/>
      <point x="147" y="511" type="line"/>
      <point x="418" y="511" type="line"/>
      <point x="418" y="577" type="line"/>
      <point x="68" y="577" type="line"/>
    </contour>
    <contour>
      <point x="122" y="628" type="line"/>
      <point x="244" y="684" type="line"/>
      <point x="366" y="628" type="line"/>
      <point x="366" y="687" type="line"/>
      <point x="244" y="743" type="line"/>
      <point x="122" y="687" type="line"/>
    </contour>
  </outline>
</glyph>
<glyph name="Edotaccent.sc" format="1">
  <advance width="461"/>
  <outline>
    <contour>
      <point x="243" y="623" type="curve" smooth="yes"/>
      <point x="274" y="623"/>
      <point x="291" y="637"/>
      <point x="291" y="670" type="curve" smooth="yes"/>
      <point x="291" y="702"/>
      <point x="274" y="715"/>
      <point x="243" y="715" type="curve" smooth="yes"/>
      <point x="211" y="715"/>
      <point x="196" y="702"/>
      <point x="196" y="670" type="curve" smooth="yes"/>
      <point x="196" y="637"/>
      <point x="211" y="623"/>
    </contour>
    <contour>
      <point x="68" y="0" type="line"/>
      <point x="425" y="0" type="line"/>
      <point x="425" y="67" type="line"/>
      <point x="147" y="67" type="line"/>
      <point x="147" y="259" type="line"/>
      <point x="390" y="259" type="line"/>
      <point x="390" y="324" type="line"/>
      <point x="147" y="324" type="line"/>
      <point x="147" y="511" type="line"/>
      <point x="418" y="511" type="line"/>
      <point x="418" y="577" type="line"/>
      <point x="68" y="577" type="line"/>
    </contour>
  </outline>
</glyph>
<glyph name="Edotbelow.sc" format="1">
  <advance width="461"/>
  <outline>
    <contour>
      <point x="255" y="-144" type="curve" smooth="yes"/>
      <point x="284" y="-144"/>
      <point x="300" y="-133"/>
      <point x="300" y="-104" type="curve" smooth="yes"/>
      <point x="300" y="-74"/>
      <point x="284" y="-62"/>
      <point x="255" y="-62" type="curve" smooth="yes"/>
      <point x="226" y="-62"/>
      <point x="212" y="-74"/>
      <point x="212" y="-104" type="curve" smooth="yes"/>
      <point x="212" y="-133"/>
      <point x="226" y="-144"/>
    </contour>
    <contour>
      <point x="68" y="0" type="line"/>
      <point x="425" y="0" type="line"/>
      <point x="425" y="67" type="line"/>
      <point x="147" y="67" type="line"/>
      <point x="147" y="259" type="line"/>
      <point x="390" y="259" type="line"/>
      <point x="390" y="324" type="line"/>
      <point x="147" y="324" type="line"/>
      <point x="147" y="511" type="line"/>
      <point x="418" y="511" type="line"/>
      <point x="418" y="577" type="line"/>
      <point x="68" y="577" type="line"/>
    </contour>
  </outline>
</glyph>
<glyph name="Egrave.sc" format="1">
  <advance width="461"/>
  <outline>
    <contour>
      <point x="68" y="0" type="line"/>
      <point x="425" y="0" type="line"/>
      <point x="425" y="67" type="line"/>
      <point x="147" y="67" type="line"/>
      <point x="147" y="259" type="line"/>
      <point x="390" y="259" type="line"/>
      <point x="390" y="324" type="line"/>
      <point x="147" y="324" type="line"/>
      <point x="147" y="511" type="line"/>
      <point x="418" y="511" type="line"/>
      <point x="418" y="577" type="line"/>
      <point x="68" y="577" type="line"/>
    </contour>
    <contour>
      <point x="211" y="615" type="line"/>
      <point x="270" y="624" type="line"/>
      <point x="206" y="736" type="line"/>
      <point x="126" y="736" type="line"/>
    </contour>
  </outline>
</glyph>
<glyph name="Einvertedbreve.sc" format="1">
  <advance width="461"/>
  <outline>
    <contour>
      <point x="108" y="636" type="curve"/>
      <point x="166" y="636" type="line"/>
      <point x="166" y="688"/>
      <point x="192" y="713"/>
      <point x="244" y="713" type="curve" smooth="yes"/>
      <point x="295" y="713"/>
      <point x="321" y="688"/>
      <point x="321" y="636" type="curve"/>
      <point x="379" y="636" type="line"/>
      <point x="379" y="711"/>
      <point x="329" y="756"/>
      <point x="244" y="756" type="curve" smooth="yes"/>
      <point x="156" y="756"/>
      <point x="108" y="711"/>
    </contour>
    <contour>
      <point x="68" y="0" type="line"/>
      <point x="425" y="0" type="line"/>
      <point x="425" y="67" type="line"/>
      <point x="147" y="67" type="line"/>
      <point x="147" y="259" type="line"/>
      <point x="390" y="259" type="line"/>
      <point x="390" y="324" type="line"/>
      <point x="147" y="324" type="line"/>
      <point x="147" y="511" type="line"/>
      <point x="418" y="511" type="line"/>
      <point x="418" y="577" type="line"/>
      <point x="68" y="577" type="line"/>
    </contour>
  </outline>
</glyph>
<glyph name="Eng.sc" format="1">
  <advance width="589"/>
  <outline>
    <contour>
      <point x="435" y="-149" type="line"/>
      <point x="483" y="-80"/>
      <point x="521" y="15"/>
      <point x="521" y="64" type="curve" smooth="yes"/>
      <point x="521" y="577" type="line"/>
      <point x="450" y="577" type="line"/>
      <point x="450" y="136" type="line"/>
      <point x="444" y="135" type="line"/>
      <point x="406" y="201" type="line"/>
      <point x="139" y="577" type="line"/>
      <point x="69" y="577" type="line"/>
      <point x="69" y="0" type="line"/>
      <point x="140" y="0" type="line"/>
      <point x="140" y="442" type="line"/>
      <point x="146" y="442" type="line"/>
      <point x="185" y="376" type="line"/>
      <point x="437" y="23" type="line"/>
      <point x="427" y="-25"/>
      <point x="407" y="-79"/>
      <point x="381" y="-132" type="curve"/>
    </contour>
  </outline>
</glyph>
<glyph name="Etilde.sc" format="1">
  <advance width="461"/>
  <outline>
    <contour>
      <point x="124" y="640" type="line"/>
      <point x="142" y="660"/>
      <point x="163" y="671"/>
      <point x="183" y="671" type="curve" smooth="yes"/>
      <point x="224" y="671"/>
      <point x="256" y="638"/>
      <point x="300" y="638" type="curve" smooth="yes"/>
      <point x="333" y="638"/>
      <point x="371" y="663"/>
      <point x="391" y="706" type="curve"/>
      <point x="369" y="723" type="line"/>
      <point x="353" y="702"/>
      <point x="335" y="692"/>
      <point x="314" y="692" type="curve" smooth="yes"/>
      <point x="273" y="692"/>
      <point x="243" y="724"/>
      <point x="198" y="724" type="curve" smooth="yes"/>
      <point x="165" y="724"/>
      <point x="128" y="698"/>
      <point x="104" y="659" type="curve"/>
    </contour>
    <contour>
      <point x="68" y="0" type="line"/>
      <point x="425" y="0" type="line"/>
      <point x="425" y="67" type="line"/>
      <point x="147" y="67" type="line"/>
      <point x="147" y="259" type="line"/>
      <point x="390" y="259" type="line"/>
      <point x="390" y="324" type="line"/>
      <point x="147" y="324" type="line"/>
      <point x="147" y="511" type="line"/>
      <point x="418" y="511" type="line"/>
      <point x="418" y="577" type="line"/>
      <point x="68" y="577" type="line"/>
    </contour>
  </outline>
</glyph>
<glyph name="Gcircumflex.sc" format="1">
  <advance width="502"/>
  <outline>
    <contour>
      <point x="307" y="-8" type="curve" smooth="yes"/>
      <point x="350" y="-8"/>
      <point x="391" y="-4"/>
      <point x="451" y="5" type="curve"/>
      <point x="451" y="293" type="line"/>
      <point x="379" y="293" type="line"/>
      <point x="379" y="64" type="line"/>
      <point x="356" y="61"/>
      <point x="326" y="60"/>
      <point x="314" y="60" type="curve" smooth="yes"/>
      <point x="177" y="60"/>
      <point x="123" y="123"/>
      <point x="123" y="288" type="curve" smooth="yes"/>
      <point x="123" y="456"/>
      <point x="177" y="517"/>
      <point x="329" y="517" type="curve" smooth="yes"/>
      <point x="362" y="517"/>
      <point x="402" y="513"/>
      <point x="449" y="504" type="curve"/>
      <point x="449" y="570" type="line"/>
      <point x="405" y="579"/>
      <point x="354" y="584"/>
      <point x="321" y="584" type="curve" smooth="yes"/>
      <point x="126" y="584"/>
      <point x="41" y="493"/>
      <point x="41" y="288" type="curve" smooth="yes"/>
      <point x="41" y="86"/>
      <point x="123" y="-6"/>
    </contour>
    <contour>
      <point x="171" y="628" type="line"/>
      <point x="293" y="684" type="line"/>
      <point x="414" y="628" type="line"/>
      <point x="414" y="687" type="line"/>
      <point x="293" y="743" type="line"/>
      <point x="171" y="687" type="line"/>
    </contour>
  </outline>
</glyph>
<glyph name="Hcircumflex.sc" format="1">
  <advance width="569"/>
  <outline>
    <contour>
      <point x="68" y="0" type="line"/>
      <point x="147" y="0" type="line"/>
      <point x="147" y="261" type="line"/>
      <point x="422" y="261" type="line"/>
      <point x="422" y="0" type="line"/>
      <point x="501" y="0" type="line"/>
      <point x="501" y="577" type="line"/>
      <point x="422" y="577" type="line"/>
      <point x="422" y="329" type="line"/>
      <point x="147" y="329" type="line"/>
      <point x="147" y="577" type="line"/>
      <point x="68" y="577" type="line"/>
    </contour>
    <contour>
      <point x="156" y="628" type="line"/>
      <point x="278" y="684" type="line"/>
      <point x="399" y="628" type="line"/>
      <point x="399" y="687" type="line"/>
      <point x="278" y="743" type="line"/>
      <point x="156" y="687" type="line"/>
    </contour>
  </outline>
</glyph>
<glyph name="I.sc" format="1">
  <advance width="215"/>
  <outline>
    <contour>
      <point x="126" y="0" type="move" name="ogonek"/>
    </contour>
    <contour>
      <point x="112" y="760" type="move" name="topUC"/>
    </contour>
    <contour>
      <point x="112" y="0" type="move" name="bottom"/>
    </contour>
    <contour>
      <point x="68" y="0" type="line"/>
      <point x="147" y="0" type="line"/>
      <point x="147" y="577" type="line"/>
      <point x="68" y="577" type="line"/>
    </contour>
  </outline>
</glyph>
<glyph name="Icircumflex.sc" format="1">
  <advance width="215"/>
  <outline>
    <contour>
      <point x="68" y="0" type="line"/>
      <point x="147" y="0" type="line"/>
      <point x="147" y="577" type="line"/>
      <point x="68" y="577" type="line"/>
    </contour>
    <contour>
      <point x="-12" y="628" type="line"/>
      <point x="110" y="684" type="line"/>
      <point x="231" y="628" type="line"/>
      <point x="231" y="687" type="line"/>
      <point x="110" y="743" type="line"/>
      <point x="-12" y="687" type="line"/>
    </contour>
  </outline>
</glyph>
<glyph name="Idblgrave.sc" format="1">
  <advance width="215"/>
  <outline>
    <contour>
      <point x="68" y="0" type="line"/>
      <point x="147" y="0" type="line"/>
      <point x="147" y="577" type="line"/>
      <point x="68" y="577" type="line"/>
    </contour>
    <contour>
      <point x="72" y="624" type="line"/>
      <point x="8" y="736" type="line"/>
      <point x="-62" y="736" type="line"/>
      <point x="24" y="614" type="line"/>
    </contour>
    <contour>
      <point x="204" y="624" type="line"/>
      <point x="140" y="736" type="line"/>
      <point x="70" y="736" type="line"/>
      <point x="156" y="614" type="line"/>
    </contour>
  </outline>
</glyph>
<glyph name="Idotaccent.sc" format="1">
  <advance width="215"/>
  <outline>
    <contour>
      <point x="68" y="0" type="line"/>
      <point x="147" y="0" type="line"/>
      <point x="147" y="577" type="line"/>
      <point x="68" y="577" type="line"/>
    </contour>
    <contour>
      <point x="109" y="623" type="curve" smooth="yes"/>
      <point x="141" y="623"/>
      <point x="158" y="637"/>
      <point x="158" y="670" type="curve" smooth="yes"/>
      <point x="158" y="702"/>
      <point x="141" y="715"/>
      <point x="109" y="715" type="curve" smooth="yes"/>
      <point x="78" y="715"/>
      <point x="62" y="702"/>
      <point x="62" y="670" type="curve" smooth="yes"/>
      <point x="62" y="637"/>
      <point x="78" y="623"/>
    </contour>
  </outline>
</glyph>
<glyph name="Iogonek.sc" format="1">
  <advance width="216"/>
  <outline>
    <contour>
      <point x="69" y="0" type="line"/>
      <point x="82" y="0" type="line"/>
      <point x="31" y="-31"/>
      <point x="7" y="-62"/>
      <point x="7" y="-101" type="curve" smooth="yes"/>
      <point x="7" y="-147"/>
      <point x="38" y="-172"/>
      <point x="94" y="-172" type="curve" smooth="yes"/>
      <point x="113" y="-172"/>
      <point x="129" y="-168"/>
      <point x="147" y="-162" type="curve"/>
      <point x="147" y="-113" type="line"/>
      <point x="134" y="-118"/>
      <point x="117" y="-122"/>
      <point x="101" y="-122" type="curve" smooth="yes"/>
      <point x="76" y="-122"/>
      <point x="63" y="-113"/>
      <point x="63" y="-94" type="curve" smooth="yes"/>
      <point x="63" y="-65"/>
      <point x="91" y="-31"/>
      <point x="147" y="-10" type="curve"/>
      <point x="147" y="577" type="line"/>
      <point x="69" y="577" type="line"/>
    </contour>
  </outline>
</glyph>
<glyph name="J.sc" format="1">
  <advance width="215"/>
  <outline>
    <contour>
      <point x="110" y="760" type="move" name="topUC"/>
    </contour>
    <contour>
      <point x="51" y="-149" type="line"/>
      <point x="122" y="-44"/>
      <point x="149" y="39"/>
      <point x="149" y="140" type="curve" smooth="yes"/>
      <point x="149" y="577" type="line"/>
      <point x="70" y="577" type="line"/>
      <point x="70" y="146" type="line" smooth="yes"/>
      <point x="70" y="41"/>
      <point x="56" y="-15"/>
      <point x="0" y="-124" type="curve"/>
    </contour>
  </outline>
</glyph>
<glyph name="Lacute.sc" format="1">
  <advance width="380"/>
  <outline>
    <contour>
      <point x="68" y="0" type="line"/>
      <point x="366" y="0" type="line"/>
      <point x="366" y="68" type="line"/>
      <point x="147" y="68" type="line"/>
      <point x="147" y="577" type="line"/>
      <point x="68" y="577" type="line"/>
    </contour>
    <contour>
      <point x="143" y="615" type="line"/>
      <point x="229" y="736" type="line"/>
      <point x="148" y="736" type="line"/>
      <point x="84" y="619" type="line"/>
    </contour>
  </outline>
</glyph>
<glyph name="Lcommaaccent.sc" format="1">
  <advance width="380"/>
  <outline>
    <contour>
      <point x="68" y="0" type="line"/>
      <point x="366" y="0" type="line"/>
      <point x="366" y="68" type="line"/>
      <point x="147" y="68" type="line"/>
      <point x="147" y="577" type="line"/>
      <point x="68" y="577" type="line"/>
    </contour>
    <contour>
      <point x="145" y="-172" type="line"/>
      <point x="208" y="-172" type="line"/>
      <point x="265" y="-53" type="line"/>
      <point x="186" y="-53" type="line"/>
    </contour>
  </outline>
</glyph>
<glyph name="Lslash.sc" format="1">
  <advance width="399"/>
  <outline>
    <contour>
      <point x="17" y="174" type="line"/>
      <point x="88" y="227" type="line"/>
      <point x="88" y="0" type="line"/>
      <point x="385" y="0" type="line"/>
      <point x="385" y="68" type="line"/>
      <point x="167" y="68" type="line"/>
      <point x="167" y="272" type="line"/>
      <point x="255" y="336" type="line"/>
      <point x="255" y="402" type="line"/>
      <point x="167" y="338" type="line"/>
      <point x="167" y="577" type="line"/>
      <point x="88" y="577" type="line"/>
      <point x="88" y="294" type="line"/>
      <point x="17" y="240" type="line"/>
    </contour>
  </outline>
</glyph>
<glyph name="M.sc" format="1">
  <advance width="720"/>
  <outline>
    <contour>
      <point x="68" y="0" type="line"/>
      <point x="143" y="0" type="line"/>
      <point x="143" y="467" type="line"/>
      <point x="147" y="467" type="line"/>
      <point x="182" y="373" type="line"/>
      <point x="323" y="27" type="line"/>
      <point x="397" y="27" type="line"/>
      <point x="538" y="373" type="line"/>
      <point x="573" y="467" type="line"/>
      <point x="578" y="467" type="line"/>
      <point x="578" y="0" type="line"/>
      <point x="652" y="0" type="line"/>
      <point x="652" y="577" type="line"/>
      <point x="544" y="577" type="line"/>
      <point x="388" y="198" type="line"/>
      <point x="363" y="122" type="line"/>
      <point x="357" y="122" type="line"/>
      <point x="332" y="198" type="line"/>
      <point x="176" y="577" type="line"/>
      <point x="68" y="577" type="line"/>
    </contour>
  </outline>
</glyph>
<glyph name="Nacute.sc" format="1">
  <advance width="589"/>
  <outline>
    <contour>
      <point x="68" y="0" type="line"/>
      <point x="140" y="0" type="line"/>
      <point x="140" y="448" type="line"/>
      <point x="146" y="448" type="line"/>
      <point x="188" y="382" type="line"/>
      <point x="451" y="0" type="line"/>
      <point x="521" y="0" type="line"/>
      <point x="521" y="577" type="line"/>
      <point x="449" y="577" type="line"/>
      <point x="449" y="130" type="line"/>
      <point x="444" y="129" type="line"/>
      <point x="403" y="195" type="line"/>
      <point x="139" y="577" type="line"/>
      <point x="68" y="577" type="line"/>
    </contour>
    <contour>
      <point x="320" y="615" type="line"/>
      <point x="405" y="736" type="line"/>
      <point x="325" y="736" type="line"/>
      <point x="261" y="619" type="line"/>
    </contour>
  </outline>
</glyph>
<glyph name="Odotbelow.sc" format="1">
  <advance width="556"/>
  <outline>
    <contour>
      <point x="278" y="-8" type="curve" smooth="yes"/>
      <point x="437" y="-8"/>
      <point x="515" y="90"/>
      <point x="515" y="288" type="curve" smooth="yes"/>
      <point x="515" y="488"/>
      <point x="437" y="585"/>
      <point x="278" y="585" type="curve" smooth="yes"/>
      <point x="119" y="585"/>
      <point x="41" y="487"/>
      <point x="41" y="288" type="curve" smooth="yes"/>
      <point x="41" y="90"/>
      <point x="119" y="-8"/>
    </contour>
    <contour>
      <point x="278" y="60" type="curve" smooth="yes"/>
      <point x="167" y="60"/>
      <point x="121" y="125"/>
      <point x="121" y="288" type="curve" smooth="yes"/>
      <point x="121" y="452"/>
      <point x="168" y="518"/>
      <point x="278" y="518" type="curve" smooth="yes"/>
      <point x="387" y="518"/>
      <point x="435" y="450"/>
      <point x="435" y="288" type="curve" smooth="yes"/>
      <point x="435" y="126"/>
      <point x="388" y="60"/>
    </contour>
    <contour>
      <point x="280" y="-144" type="curve" smooth="yes"/>
      <point x="308" y="-144"/>
      <point x="324" y="-133"/>
      <point x="324" y="-104" type="curve" smooth="yes"/>
      <point x="324" y="-74"/>
      <point x="308" y="-62"/>
      <point x="280" y="-62" type="curve" smooth="yes"/>
      <point x="250" y="-62"/>
      <point x="236" y="-74"/>
      <point x="236" y="-104" type="curve" smooth="yes"/>
      <point x="236" y="-133"/>
      <point x="250" y="-144"/>
    </contour>
  </outline>
</glyph>
<glyph name="Oinvertedbreve.sc" format="1">
  <advance width="556"/>
  <outline>
    <contour>
      <point x="278" y="-8" type="curve" smooth="yes"/>
      <point x="437" y="-8"/>
      <point x="515" y="90"/>
      <point x="515" y="288" type="curve" smooth="yes"/>
      <point x="515" y="488"/>
      <point x="437" y="585"/>
      <point x="278" y="585" type="curve" smooth="yes"/>
      <point x="119" y="585"/>
      <point x="41" y="487"/>
      <point x="41" y="288" type="curve" smooth="yes"/>
      <point x="41" y="90"/>
      <point x="119" y="-8"/>
    </contour>
    <contour>
      <point x="278" y="60" type="curve" smooth="yes"/>
      <point x="167" y="60"/>
      <point x="121" y="125"/>
      <point x="121" y="288" type="curve" smooth="yes"/>
      <point x="121" y="452"/>
      <point x="168" y="518"/>
      <point x="278" y="518" type="curve" smooth="yes"/>
      <point x="387" y="518"/>
      <point x="435" y="450"/>
      <point x="435" y="288" type="curve" smooth="yes"/>
      <point x="435" y="126"/>
      <point x="388" y="60"/>
    </contour>
    <contour>
      <point x="413" y="636" type="line"/>
      <point x="413" y="711"/>
      <point x="364" y="756"/>
      <point x="278" y="756" type="curve" smooth="yes"/>
      <point x="192" y="756"/>
      <point x="143" y="711"/>
      <point x="143" y="636" type="curve"/>
      <point x="201" y="636" type="line"/>
      <point x="201" y="688"/>
      <point x="227" y="713"/>
      <point x="278" y="713" type="curve" smooth="yes"/>
      <point x="330" y="713"/>
      <point x="355" y="688"/>
      <point x="355" y="636" type="curve"/>
    </contour>
  </outline>
</glyph>
<glyph name="Q.sc" format="1">
  <advance width="554"/>
  <outline>
    <contour>
      <point x="485" y="-91" type="curve"/>
      <point x="520" y="-26" type="line"/>
      <point x="425" y="-20"/>
      <point x="358" y="-11"/>
      <point x="304" y="6" type="curve"/>
      <point x="304" y="12" type="line"/>
      <point x="444" y="27"/>
      <point x="513" y="119"/>
      <point x="513" y="288" type="curve" smooth="yes"/>
      <point x="513" y="487"/>
      <point x="436" y="585"/>
      <point x="277" y="585" type="curve" smooth="yes"/>
      <point x="117" y="585"/>
      <point x="40" y="488"/>
      <point x="40" y="288" type="curve" smooth="yes"/>
      <point x="40" y="43"/>
      <point x="157" y="-30"/>
    </contour>
    <contour>
      <point x="277" y="58" type="curve" smooth="yes"/>
      <point x="164" y="58"/>
      <point x="118" y="123"/>
      <point x="118" y="288" type="curve" smooth="yes"/>
      <point x="118" y="454"/>
      <point x="165" y="520"/>
      <point x="277" y="520" type="curve" smooth="yes"/>
      <point x="387" y="520"/>
      <point x="434" y="452"/>
      <point x="434" y="288" type="curve" smooth="yes"/>
      <point x="434" y="123"/>
      <point x="389" y="58"/>
    </contour>
  </outline>
</glyph>
<glyph name="Rdotbelow.sc" format="1">
  <advance width="494"/>
  <outline>
    <contour>
      <point x="68" y="0" type="line"/>
      <point x="147" y="0" type="line"/>
      <point x="147" y="210" type="line"/>
      <point x="169" y="209"/>
      <point x="190" y="208"/>
      <point x="211" y="208" type="curve" smooth="yes"/>
      <point x="230" y="208"/>
      <point x="254" y="209"/>
      <point x="270" y="212" type="curve"/>
      <point x="382" y="0" type="line"/>
      <point x="466" y="0" type="line"/>
      <point x="341" y="226" type="line"/>
      <point x="418" y="251"/>
      <point x="454" y="306"/>
      <point x="454" y="396" type="curve" smooth="yes"/>
      <point x="454" y="528"/>
      <point x="380" y="586"/>
      <point x="209" y="586" type="curve" smooth="yes"/>
      <point x="163" y="586"/>
      <point x="116" y="582"/>
      <point x="68" y="573" type="curve"/>
    </contour>
    <contour>
      <point x="218" y="271" type="curve" smooth="yes"/>
      <point x="197" y="271"/>
      <point x="172" y="272"/>
      <point x="147" y="275" type="curve"/>
      <point x="147" y="515" type="line"/>
      <point x="175" y="518"/>
      <point x="202" y="520"/>
      <point x="222" y="520" type="curve" smooth="yes"/>
      <point x="332" y="520"/>
      <point x="376" y="485"/>
      <point x="376" y="396" type="curve" smooth="yes"/>
      <point x="376" y="306"/>
      <point x="331" y="271"/>
    </contour>
    <contour>
      <point x="258" y="-144" type="curve" smooth="yes"/>
      <point x="286" y="-144"/>
      <point x="302" y="-133"/>
      <point x="302" y="-104" type="curve" smooth="yes"/>
      <point x="302" y="-74"/>
      <point x="286" y="-62"/>
      <point x="258" y="-62" type="curve" smooth="yes"/>
      <point x="229" y="-62"/>
      <point x="215" y="-74"/>
      <point x="215" y="-104" type="curve" smooth="yes"/>
      <point x="215" y="-133"/>
      <point x="229" y="-144"/>
    </contour>
  </outline>
</glyph>
<glyph name="Rinvertedbreve.sc" format="1">
  <advance width="494"/>
  <outline>
    <contour>
      <point x="68" y="0" type="line"/>
      <point x="147" y="0" type="line"/>
      <point x="147" y="210" type="line"/>
      <point x="169" y="209"/>
      <point x="190" y="208"/>
      <point x="211" y="208" type="curve" smooth="yes"/>
      <point x="230" y="208"/>
      <point x="254" y="209"/>
      <point x="270" y="212" type="curve"/>
      <point x="382" y="0" type="line"/>
      <point x="466" y="0" type="line"/>
      <point x="341" y="226" type="line"/>
      <point x="418" y="251"/>
      <point x="454" y="306"/>
      <point x="454" y="396" type="curve" smooth="yes"/>
      <point x="454" y="528"/>
      <point x="380" y="586"/>
      <point x="209" y="586" type="curve" smooth="yes"/>
      <point x="163" y="586"/>
      <point x="116" y="582"/>
      <point x="68" y="573" type="curve"/>
    </contour>
    <contour>
      <point x="118" y="636" type="curve"/>
      <point x="176" y="636" type="line"/>
      <point x="176" y="688"/>
      <point x="201" y="713"/>
      <point x="253" y="713" type="curve" smooth="yes"/>
      <point x="304" y="713"/>
      <point x="330" y="688"/>
      <point x="330" y="636" type="curve"/>
      <point x="388" y="636" type="line"/>
      <point x="388" y="711"/>
      <point x="339" y="756"/>
      <point x="253" y="756" type="curve" smooth="yes"/>
      <point x="166" y="756"/>
      <point x="118" y="711"/>
    </contour>
    <contour>
      <point x="218" y="271" type="curve" smooth="yes"/>
      <point x="197" y="271"/>
      <point x="172" y="272"/>
      <point x="147" y="275" type="curve"/>
      <point x="147" y="515" type="line"/>
      <point x="175" y="518"/>
      <point x="202" y="520"/>
      <point x="222" y="520" type="curve" smooth="yes"/>
      <point x="332" y="520"/>
      <point x="376" y="485"/>
      <point x="376" y="396" type="curve" smooth="yes"/>
      <point x="376" y="306"/>
      <point x="331" y="271"/>
    </contour>
  </outline>
</glyph>
<glyph name="S.sc" format="1">
  <advance width="432"/>
  <outline>
    <contour>
      <point x="246" y="760" type="move" name="topUC"/>
    </contour>
    <contour>
      <point x="232" y="0" type="move" name="bottom"/>
    </contour>
    <contour>
      <point x="209" y="-10" type="curve" smooth="yes"/>
      <point x="328" y="-10"/>
      <point x="401" y="52"/>
      <point x="401" y="153" type="curve" smooth="yes"/>
      <point x="401" y="238"/>
      <point x="357" y="283"/>
      <point x="248" y="320" type="curve" smooth="yes"/>
      <point x="163" y="349"/>
      <point x="123" y="373"/>
      <point x="123" y="424" type="curve" smooth="yes"/>
      <point x="123" y="483"/>
      <point x="169" y="520"/>
      <point x="243" y="520" type="curve" smooth="yes"/>
      <point x="274" y="520"/>
      <point x="322" y="513"/>
      <point x="373" y="502" type="curve"/>
      <point x="378" y="568" type="line"/>
      <point x="325" y="580"/>
      <point x="281" y="586"/>
      <point x="237" y="586" type="curve" smooth="yes"/>
      <point x="118" y="586"/>
      <point x="44" y="523"/>
      <point x="44" y="420" type="curve" smooth="yes"/>
      <point x="44" y="339"/>
      <point x="86" y="296"/>
      <point x="194" y="261" type="curve" smooth="yes"/>
      <point x="278" y="232"/>
      <point x="322" y="206"/>
      <point x="322" y="151" type="curve" smooth="yes"/>
      <point x="322" y="91"/>
      <point x="279" y="57"/>
      <point x="198" y="57" type="curve" smooth="yes"/>
      <point x="149" y="57"/>
      <point x="77" y="70"/>
      <point x="39" y="85" type="curve"/>
      <point x="35" y="17" type="line"/>
      <point x="84" y="1"/>
      <point x="155" y="-10"/>
    </contour>
  </outline>
</glyph>
<glyph name="Tbar.sc" format="1">
  <advance width="444"/>
  <outline>
    <contour>
      <point x="87" y="273" type="line"/>
      <point x="183" y="273" type="line"/>
      <point x="183" y="0" type="line"/>
      <point x="261" y="0" type="line"/>
      <point x="261" y="273" type="line"/>
      <point x="365" y="273" type="line"/>
      <point x="365" y="320" type="line"/>
      <point x="261" y="320" type="line"/>
      <point x="261" y="508" type="line"/>
      <point x="423" y="508" type="line"/>
      <point x="423" y="577" type="line"/>
      <point x="21" y="577" type="line"/>
      <point x="21" y="508" type="line"/>
      <point x="183" y="508" type="line"/>
      <point x="183" y="320" type="line"/>
      <point x="87" y="320" type="line"/>
    </contour>
  </outline>
</glyph>
<glyph name="Tdotbelow.sc" format="1">
  <advance width="436"/>
  <outline>
    <contour>
      <point x="179" y="0" type="line"/>
      <point x="257" y="0" type="line"/>
      <point x="257" y="508" type="line"/>
      <point x="419" y="508" type="line"/>
      <point x="419" y="577" type="line"/>
      <point x="17" y="577" type="line"/>
      <point x="17" y="508" type="line"/>
      <point x="179" y="508" type="line"/>
    </contour>
    <contour>
      <point x="220" y="-144" type="curve" smooth="yes"/>
      <point x="248" y="-144"/>
      <point x="264" y="-133"/>
      <point x="264" y="-104" type="curve" smooth="yes"/>
      <point x="264" y="-74"/>
      <point x="248" y="-62"/>
      <point x="220" y="-62" type="curve" smooth="yes"/>
      <point x="190" y="-62"/>
      <point x="176" y="-74"/>
      <point x="176" y="-104" type="curve" smooth="yes"/>
      <point x="176" y="-133"/>
      <point x="190" y="-144"/>
    </contour>
  </outline>
</glyph>
<glyph name="Thorn.sc" format="1">
  <advance width="486"/>
  <outline>
    <contour>
      <point x="68" y="0" type="line"/>
      <point x="147" y="0" type="line"/>
      <point x="147" y="91" type="line"/>
      <point x="167" y="89"/>
      <point x="189" y="89"/>
      <point x="206" y="89" type="curve" smooth="yes"/>
      <point x="379" y="89"/>
      <point x="455" y="149"/>
      <point x="455" y="288" type="curve" smooth="yes"/>
      <point x="455" y="427"/>
      <point x="380" y="488"/>
      <point x="210" y="488" type="curve" smooth="yes"/>
      <point x="190" y="488"/>
      <point x="169" y="486"/>
      <point x="147" y="483" type="curve"/>
      <point x="147" y="577" type="line"/>
      <point x="68" y="577" type="line"/>
    </contour>
    <contour>
      <point x="218" y="155" type="curve" smooth="yes"/>
      <point x="195" y="155"/>
      <point x="171" y="156"/>
      <point x="147" y="158" type="curve"/>
      <point x="147" y="416" type="line"/>
      <point x="175" y="419"/>
      <point x="200" y="421"/>
      <point x="222" y="421" type="curve" smooth="yes"/>
      <point x="330" y="421"/>
      <point x="374" y="382"/>
      <point x="374" y="288" type="curve" smooth="yes"/>
      <point x="374" y="193"/>
      <point x="329" y="155"/>
    </contour>
  </outline>
</glyph>
<glyph name="U.sc" format="1">
  <advance width="571"/>
  <outline>
    <contour>
      <point x="319" y="-10" type="move" name="ogonek"/>
    </contour>
    <contour>
      <point x="319" y="760" type="move" name="topUC"/>
    </contour>
    <contour>
      <point x="320" y="0" type="move" name="bottom"/>
    </contour>
    <contour>
      <point x="286" y="-8" type="curve" smooth="yes"/>
      <point x="446" y="-8"/>
      <point x="508" y="65"/>
      <point x="508" y="225" type="curve" smooth="yes"/>
      <point x="508" y="577" type="line"/>
      <point x="429" y="577" type="line"/>
      <point x="429" y="228" type="line" smooth="yes"/>
      <point x="429" y="109"/>
      <point x="388" y="61"/>
      <point x="286" y="61" type="curve" smooth="yes"/>
      <point x="185" y="61"/>
      <point x="142" y="110"/>
      <point x="142" y="228" type="curve" smooth="yes"/>
      <point x="142" y="577" type="line"/>
      <point x="63" y="577" type="line"/>
      <point x="63" y="225" type="line" smooth="yes"/>
      <point x="63" y="65"/>
      <point x="126" y="-8"/>
    </contour>
  </outline>
</glyph>
<glyph name="Ubreve.sc" format="1">
  <advance width="571"/>
  <outline>
    <contour>
      <point x="286" y="-8" type="curve" smooth="yes"/>
      <point x="446" y="-8"/>
      <point x="508" y="65"/>
      <point x="508" y="225" type="curve" smooth="yes"/>
      <point x="508" y="577" type="line"/>
      <point x="429" y="577" type="line"/>
      <point x="429" y="228" type="line" smooth="yes"/>
      <point x="429" y="109"/>
      <point x="388" y="61"/>
      <point x="286" y="61" type="curve" smooth="yes"/>
      <point x="185" y="61"/>
      <point x="142" y="110"/>
      <point x="142" y="228" type="curve" smooth="yes"/>
      <point x="142" y="577" type="line"/>
      <point x="63" y="577" type="line"/>
      <point x="63" y="225" type="line" smooth="yes"/>
      <point x="63" y="65"/>
      <point x="126" y="-8"/>
    </contour>
    <contour>
      <point x="285" y="628" type="curve" smooth="yes"/>
      <point x="371" y="628"/>
      <point x="420" y="674"/>
      <point x="420" y="749" type="curve"/>
      <point x="362" y="749" type="line"/>
      <point x="362" y="697"/>
      <point x="336" y="672"/>
      <point x="285" y="672" type="curve" smooth="yes"/>
      <point x="233" y="672"/>
      <point x="207" y="697"/>
      <point x="207" y="749" type="curve"/>
      <point x="149" y="749" type="line"/>
      <point x="149" y="674"/>
      <point x="198" y="628"/>
    </contour>
  </outline>
</glyph>
<glyph name="Udblgrave.sc" format="1">
  <advance width="571"/>
  <outline>
    <contour>
      <point x="286" y="-8" type="curve" smooth="yes"/>
      <point x="446" y="-8"/>
      <point x="508" y="65"/>
      <point x="508" y="225" type="curve" smooth="yes"/>
      <point x="508" y="577" type="line"/>
      <point x="429" y="577" type="line"/>
      <point x="429" y="228" type="line" smooth="yes"/>
      <point x="429" y="109"/>
      <point x="388" y="61"/>
      <point x="286" y="61" type="curve" smooth="yes"/>
      <point x="185" y="61"/>
      <point x="142" y="110"/>
      <point x="142" y="228" type="curve" smooth="yes"/>
      <point x="142" y="577" type="line"/>
      <point x="63" y="577" type="line"/>
      <point x="63" y="225" type="line" smooth="yes"/>
      <point x="63" y="65"/>
      <point x="126" y="-8"/>
    </contour>
    <contour>
      <point x="246" y="624" type="line"/>
      <point x="182" y="736" type="line"/>
      <point x="112" y="736" type="line"/>
      <point x="197" y="614" type="line"/>
    </contour>
    <contour>
      <point x="378" y="624" type="line"/>
      <point x="314" y="736" type="line"/>
      <point x="244" y="736" type="line"/>
      <point x="329" y="614" type="line"/>
    </contour>
  </outline>
</glyph>
<glyph name="Udieresis.sc" format="1">
  <advance width="571"/>
  <outline>
    <contour>
      <point x="286" y="-8" type="curve" smooth="yes"/>
      <point x="446" y="-8"/>
      <point x="508" y="65"/>
      <point x="508" y="225" type="curve" smooth="yes"/>
      <point x="508" y="577" type="line"/>
      <point x="429" y="577" type="line"/>
      <point x="429" y="228" type="line" smooth="yes"/>
      <point x="429" y="109"/>
      <point x="388" y="61"/>
      <point x="286" y="61" type="curve" smooth="yes"/>
      <point x="185" y="61"/>
      <point x="142" y="110"/>
      <point x="142" y="228" type="curve" smooth="yes"/>
      <point x="142" y="577" type="line"/>
      <point x="63" y="577" type="line"/>
      <point x="63" y="225" type="line" smooth="yes"/>
      <point x="63" y="65"/>
      <point x="126" y="-8"/>
    </contour>
    <contour>
      <point x="195" y="630" type="curve" smooth="yes"/>
      <point x="226" y="630"/>
      <point x="243" y="644"/>
      <point x="243" y="676" type="curve" smooth="yes"/>
      <point x="243" y="708"/>
      <point x="226" y="722"/>
      <point x="195" y="722" type="curve" smooth="yes"/>
      <point x="164" y="722"/>
      <point x="147" y="709"/>
      <point x="147" y="676" type="curve" smooth="yes"/>
      <point x="147" y="644"/>
      <point x="164" y="630"/>
    </contour>
    <contour>
      <point x="372" y="630" type="curve" smooth="yes"/>
      <point x="403" y="630"/>
      <point x="420" y="644"/>
      <point x="420" y="676" type="curve" smooth="yes"/>
      <point x="420" y="708"/>
      <point x="403" y="722"/>
      <point x="372" y="722" type="curve" smooth="yes"/>
      <point x="341" y="722"/>
      <point x="324" y="709"/>
      <point x="324" y="676" type="curve" smooth="yes"/>
      <point x="324" y="644"/>
      <point x="341" y="630"/>
    </contour>
  </outline>
</glyph>
<glyph name="Udotbelow.sc" format="1">
  <advance width="571"/>
  <outline>
    <contour>
      <point x="286" y="-8" type="curve" smooth="yes"/>
      <point x="446" y="-8"/>
      <point x="508" y="65"/>
      <point x="508" y="225" type="curve" smooth="yes"/>
      <point x="508" y="577" type="line"/>
      <point x="429" y="577" type="line"/>
      <point x="429" y="228" type="line" smooth="yes"/>
      <point x="429" y="109"/>
      <point x="388" y="61"/>
      <point x="286" y="61" type="curve" smooth="yes"/>
      <point x="185" y="61"/>
      <point x="142" y="110"/>
      <point x="142" y="228" type="curve" smooth="yes"/>
      <point x="142" y="577" type="line"/>
      <point x="63" y="577" type="line"/>
      <point x="63" y="225" type="line" smooth="yes"/>
      <point x="63" y="65"/>
      <point x="126" y="-8"/>
    </contour>
    <contour>
      <point x="286" y="-144" type="curve" smooth="yes"/>
      <point x="315" y="-144"/>
      <point x="331" y="-133"/>
      <point x="331" y="-104" type="curve" smooth="yes"/>
      <point x="331" y="-74"/>
      <point x="315" y="-62"/>
      <point x="286" y="-62" type="curve" smooth="yes"/>
      <point x="257" y="-62"/>
      <point x="242" y="-74"/>
      <point x="242" y="-104" type="curve" smooth="yes"/>
      <point x="242" y="-133"/>
      <point x="257" y="-144"/>
    </contour>
  </outline>
</glyph>
<glyph name="Uhungarumlaut.sc" format="1">
  <advance width="571"/>
  <outline>
    <contour>
      <point x="286" y="-8" type="curve" smooth="yes"/>
      <point x="446" y="-8"/>
      <point x="508" y="65"/>
      <point x="508" y="225" type="curve" smooth="yes"/>
      <point x="508" y="577" type="line"/>
      <point x="429" y="577" type="line"/>
      <point x="429" y="228" type="line" smooth="yes"/>
      <point x="429" y="109"/>
      <point x="388" y="61"/>
      <point x="286" y="61" type="curve" smooth="yes"/>
      <point x="185" y="61"/>
      <point x="142" y="110"/>
      <point x="142" y="228" type="curve" smooth="yes"/>
      <point x="142" y="577" type="line"/>
      <point x="63" y="577" type="line"/>
      <point x="63" y="225" type="line" smooth="yes"/>
      <point x="63" y="65"/>
      <point x="126" y="-8"/>
    </contour>
    <contour>
      <point x="229" y="614" type="line"/>
      <point x="313" y="736" type="line"/>
      <point x="243" y="736" type="line"/>
      <point x="180" y="624" type="line"/>
    </contour>
    <contour>
      <point x="360" y="614" type="line"/>
      <point x="446" y="736" type="line"/>
      <point x="376" y="736" type="line"/>
      <point x="312" y="624" type="line"/>
    </contour>
  </outline>
</glyph>
<glyph name="Uinvertedbreve.sc" format="1">
  <advance width="571"/>
  <outline>
    <contour>
      <point x="286" y="-8" type="curve" smooth="yes"/>
      <point x="446" y="-8"/>
      <point x="508" y="65"/>
      <point x="508" y="225" type="curve" smooth="yes"/>
      <point x="508" y="577" type="line"/>
      <point x="429" y="577" type="line"/>
      <point x="429" y="228" type="line" smooth="yes"/>
      <point x="429" y="109"/>
      <point x="388" y="61"/>
      <point x="286" y="61" type="curve" smooth="yes"/>
      <point x="185" y="61"/>
      <point x="142" y="110"/>
      <point x="142" y="228" type="curve" smooth="yes"/>
      <point x="142" y="577" type="line"/>
      <point x="63" y="577" type="line"/>
      <point x="63" y="225" type="line" smooth="yes"/>
      <point x="63" y="65"/>
      <point x="126" y="-8"/>
    </contour>
    <contour>
      <point x="419" y="636" type="line"/>
      <point x="419" y="711"/>
      <point x="370" y="756"/>
      <point x="283" y="756" type="curve" smooth="yes"/>
      <point x="197" y="756"/>
      <point x="149" y="711"/>
      <point x="149" y="636" type="curve"/>
      <point x="207" y="636" type="line"/>
      <point x="207" y="688"/>
      <point x="232" y="713"/>
      <point x="283" y="713" type="curve" smooth="yes"/>
      <point x="335" y="713"/>
      <point x="361" y="688"/>
      <point x="361" y="636" type="curve"/>
    </contour>
  </outline>
</glyph>
<glyph name="Uogonek.sc" format="1">
  <advance width="572"/>
  <outline>
    <contour>
      <point x="284" y="-165" type="curve" smooth="yes"/>
      <point x="302" y="-165"/>
      <point x="319" y="-162"/>
      <point x="337" y="-156" type="curve"/>
      <point x="337" y="-106" type="line"/>
      <point x="324" y="-112"/>
      <point x="306" y="-115"/>
      <point x="290" y="-115" type="curve" smooth="yes"/>
      <point x="266" y="-115"/>
      <point x="252" y="-107"/>
      <point x="252" y="-88" type="curve" smooth="yes"/>
      <point x="252" y="-58"/>
      <point x="279" y="-26"/>
      <point x="332" y="-6" type="curve"/>
      <point x="459" y="7"/>
      <point x="509" y="80"/>
      <point x="509" y="225" type="curve" smooth="yes"/>
      <point x="509" y="577" type="line"/>
      <point x="430" y="577" type="line"/>
      <point x="430" y="228" type="line" smooth="yes"/>
      <point x="430" y="109"/>
      <point x="388" y="61"/>
      <point x="287" y="61" type="curve" smooth="yes"/>
      <point x="186" y="61"/>
      <point x="142" y="110"/>
      <point x="142" y="228" type="curve" smooth="yes"/>
      <point x="142" y="577" type="line"/>
      <point x="64" y="577" type="line"/>
      <point x="64" y="225" type="line" smooth="yes"/>
      <point x="64" y="76"/>
      <point x="117" y="4"/>
      <point x="252" y="-6" type="curve"/>
      <point x="214" y="-33"/>
      <point x="197" y="-62"/>
      <point x="197" y="-94" type="curve" smooth="yes"/>
      <point x="197" y="-141"/>
      <point x="227" y="-165"/>
    </contour>
  </outline>
</glyph>
<glyph name="Uring.sc" format="1">
  <advance width="571"/>
  <outline>
    <contour>
      <point x="286" y="-8" type="curve" smooth="yes"/>
      <point x="446" y="-8"/>
      <point x="508" y="65"/>
      <point x="508" y="225" type="curve" smooth="yes"/>
      <point x="508" y="577" type="line"/>
      <point x="429" y="577" type="line"/>
      <point x="429" y="228" type="line" smooth="yes"/>
      <point x="429" y="109"/>
      <point x="388" y="61"/>
      <point x="286" y="61" type="curve" smooth="yes"/>
      <point x="185" y="61"/>
      <point x="142" y="110"/>
      <point x="142" y="228" type="curve" smooth="yes"/>
      <point x="142" y="577" type="line"/>
      <point x="63" y="577" type="line"/>
      <point x="63" y="225" type="line" smooth="yes"/>
      <point x="63" y="65"/>
      <point x="126" y="-8"/>
    </contour>
    <contour>
      <point x="282" y="607" type="curve" smooth="yes"/>
      <point x="337" y="607"/>
      <point x="371" y="644"/>
      <point x="371" y="690" type="curve" smooth="yes"/>
      <point x="371" y="737"/>
      <point x="337" y="774"/>
      <point x="282" y="774" type="curve" smooth="yes"/>
      <point x="228" y="774"/>
      <point x="194" y="737"/>
      <point x="194" y="690" type="curve" smooth="yes"/>
      <point x="194" y="644"/>
      <point x="228" y="607"/>
    </contour>
    <contour>
      <point x="282" y="643" type="curve" smooth="yes"/>
      <point x="250" y="643"/>
      <point x="234" y="661"/>
      <point x="234" y="690" type="curve" smooth="yes"/>
      <point x="234" y="720"/>
      <point x="249" y="738"/>
      <point x="282" y="738" type="curve" smooth="yes"/>
      <point x="316" y="738"/>
      <point x="331" y="720"/>
      <point x="331" y="690" type="curve" smooth="yes"/>
      <point x="331" y="661"/>
      <point x="315" y="643"/>
    </contour>
  </outline>
</glyph>
<glyph name="V.sc" format="1">
  <advance width="514"/>
  <outline>
    <contour>
      <point x="204" y="0" type="line"/>
      <point x="310" y="0" type="line"/>
      <point x="504" y="577" type="line"/>
      <point x="427" y="577" type="line"/>
      <point x="290" y="183" type="line"/>
      <point x="262" y="75" type="line"/>
      <point x="253" y="75" type="line"/>
      <point x="225" y="183" type="line"/>
      <point x="88" y="577" type="line"/>
      <point x="9" y="577" type="line"/>
    </contour>
  </outline>
</glyph>
<glyph name="W.sc" format="1">
  <advance width="784"/>
  <outline>
    <contour>
      <point x="434" y="760" type="move" name="topUC"/>
    </contour>
    <contour>
      <point x="169" y="0" type="line"/>
      <point x="265" y="0" type="line"/>
      <point x="370" y="372" type="line"/>
      <point x="391" y="465" type="line"/>
      <point x="397" y="465" type="line"/>
      <point x="416" y="372" type="line"/>
      <point x="515" y="0" type="line"/>
      <point x="611" y="0" type="line"/>
      <point x="771" y="577" type="line"/>
      <point x="685" y="577" type="line"/>
      <point x="587" y="189" type="line"/>
      <point x="564" y="95" type="line"/>
      <point x="557" y="95" type="line"/>
      <point x="535" y="189" type="line"/>
      <point x="435" y="577" type="line"/>
      <point x="354" y="577" type="line"/>
      <point x="247" y="189" type="line"/>
      <point x="224" y="95" type="line"/>
      <point x="217" y="95" type="line"/>
      <point x="196" y="189" type="line"/>
      <point x="105" y="577" type="line"/>
      <point x="17" y="577" type="line"/>
    </contour>
  </outline>
</glyph>
<glyph name="Wacute.sc" format="1">
  <advance width="784"/>
  <outline>
    <contour>
      <point x="169" y="0" type="line"/>
      <point x="265" y="0" type="line"/>
      <point x="370" y="372" type="line"/>
      <point x="391" y="465" type="line"/>
      <point x="397" y="465" type="line"/>
      <point x="416" y="372" type="line"/>
      <point x="515" y="0" type="line"/>
      <point x="611" y="0" type="line"/>
      <point x="771" y="577" type="line"/>
      <point x="685" y="577" type="line"/>
      <point x="587" y="189" type="line"/>
      <point x="564" y="95" type="line"/>
      <point x="557" y="95" type="line"/>
      <point x="535" y="189" type="line"/>
      <point x="435" y="577" type="line"/>
      <point x="354" y="577" type="line"/>
      <point x="247" y="189" type="line"/>
      <point x="224" y="95" type="line"/>
      <point x="217" y="95" type="line"/>
      <point x="196" y="189" type="line"/>
      <point x="105" y="577" type="line"/>
      <point x="17" y="577" type="line"/>
    </contour>
    <contour>
      <point x="418" y="615" type="line"/>
      <point x="503" y="736" type="line"/>
      <point x="423" y="736" type="line"/>
      <point x="359" y="619" type="line"/>
    </contour>
  </outline>
</glyph>
<glyph name="X.sc" format="1">
  <advance width="511"/>
  <outline>
    <contour>
      <point x="8" y="0" type="line"/>
      <point x="95" y="0" type="line"/>
      <point x="244" y="224" type="line"/>
      <point x="252" y="236" type="line"/>
      <point x="253" y="236" type="line"/>
      <point x="261" y="224" type="line"/>
      <point x="414" y="0" type="line"/>
      <point x="503" y="0" type="line"/>
      <point x="305" y="297" type="line"/>
      <point x="494" y="577" type="line"/>
      <point x="408" y="577" type="line"/>
      <point x="266" y="365" type="line"/>
      <point x="259" y="352" type="line"/>
      <point x="257" y="352" type="line"/>
      <point x="250" y="365" type="line"/>
      <point x="106" y="577" type="line"/>
      <point x="16" y="577" type="line"/>
      <point x="204" y="294" type="line"/>
    </contour>
  </outline>
</glyph>
<glyph name="Y.sc" format="1">
  <advance width="501"/>
  <outline>
    <contour>
      <point x="260" y="760" type="move" name="topUC"/>
    </contour>
    <contour>
      <point x="212" y="0" type="line"/>
      <point x="291" y="0" type="line"/>
      <point x="291" y="196" type="line"/>
      <point x="496" y="577" type="line"/>
      <point x="409" y="577" type="line"/>
      <point x="271" y="320" type="line"/>
      <point x="254" y="274" type="line"/>
      <point x="248" y="274" type="line"/>
      <point x="231" y="320" type="line"/>
      <point x="93" y="577" type="line"/>
      <point x="5" y="577" type="line"/>
      <point x="212" y="195" type="line"/>
    </contour>
  </outline>
</glyph>
<glyph name="Yacute.sc" format="1">
  <advance width="501"/>
  <outline>
    <contour>
      <point x="212" y="0" type="line"/>
      <point x="291" y="0" type="line"/>
      <point x="291" y="196" type="line"/>
      <point x="496" y="577" type="line"/>
      <point x="409" y="577" type="line"/>
      <point x="271" y="320" type="line"/>
      <point x="254" y="274" type="line"/>
      <point x="248" y="274" type="line"/>
      <point x="231" y="320" type="line"/>
      <point x="93" y="577" type="line"/>
      <point x="5" y="577" type="line"/>
      <point x="212" y="195" type="line"/>
    </contour>
    <contour>
      <point x="279" y="615" type="line"/>
      <point x="364" y="736" type="line"/>
      <point x="283" y="736" type="line"/>
      <point x="219" y="619" type="line"/>
    </contour>
  </outline>
</glyph>
<glyph name="Ycircumflex.sc" format="1">
  <advance width="501"/>
  <outline>
    <contour>
      <point x="212" y="0" type="line"/>
      <point x="291" y="0" type="line"/>
      <point x="291" y="196" type="line"/>
      <point x="496" y="577" type="line"/>
      <point x="409" y="577" type="line"/>
      <point x="271" y="320" type="line"/>
      <point x="254" y="274" type="line"/>
      <point x="248" y="274" type="line"/>
      <point x="231" y="320" type="line"/>
      <point x="93" y="577" type="line"/>
      <point x="5" y="577" type="line"/>
      <point x="212" y="195" type="line"/>
    </contour>
    <contour>
      <point x="131" y="628" type="line"/>
      <point x="253" y="684" type="line"/>
      <point x="375" y="628" type="line"/>
      <point x="375" y="687" type="line"/>
      <point x="253" y="743" type="line"/>
      <point x="131" y="687" type="line"/>
    </contour>
  </outline>
</glyph>
<glyph name="Ydieresis.sc" format="1">
  <advance width="501"/>
  <outline>
    <contour>
      <point x="164" y="630" type="curve" smooth="yes"/>
      <point x="195" y="630"/>
      <point x="212" y="644"/>
      <point x="212" y="676" type="curve" smooth="yes"/>
      <point x="212" y="708"/>
      <point x="195" y="722"/>
      <point x="164" y="722" type="curve" smooth="yes"/>
      <point x="133" y="722"/>
      <point x="116" y="709"/>
      <point x="116" y="676" type="curve" smooth="yes"/>
      <point x="116" y="644"/>
      <point x="133" y="630"/>
    </contour>
    <contour>
      <point x="341" y="630" type="curve" smooth="yes"/>
      <point x="372" y="630"/>
      <point x="390" y="644"/>
      <point x="390" y="676" type="curve" smooth="yes"/>
      <point x="390" y="708"/>
      <point x="372" y="722"/>
      <point x="341" y="722" type="curve" smooth="yes"/>
      <point x="310" y="722"/>
      <point x="293" y="709"/>
      <point x="293" y="676" type="curve" smooth="yes"/>
      <point x="293" y="644"/>
      <point x="310" y="630"/>
    </contour>
    <contour>
      <point x="212" y="0" type="line"/>
      <point x="291" y="0" type="line"/>
      <point x="291" y="196" type="line"/>
      <point x="496" y="577" type="line"/>
      <point x="409" y="577" type="line"/>
      <point x="271" y="320" type="line"/>
      <point x="254" y="274" type="line"/>
      <point x="248" y="274" type="line"/>
      <point x="231" y="320" type="line"/>
      <point x="93" y="577" type="line"/>
      <point x="5" y="577" type="line"/>
      <point x="212" y="195" type="line"/>
    </contour>
  </outline>
</glyph>
<glyph name="Ygrave.sc" format="1">
  <advance width="501"/>
  <outline>
    <contour>
      <point x="212" y="0" type="line"/>
      <point x="291" y="0" type="line"/>
      <point x="291" y="196" type="line"/>
      <point x="496" y="577" type="line"/>
      <point x="409" y="577" type="line"/>
      <point x="271" y="320" type="line"/>
      <point x="254" y="274" type="line"/>
      <point x="248" y="274" type="line"/>
      <point x="231" y="320" type="line"/>
      <point x="93" y="577" type="line"/>
      <point x="5" y="577" type="line"/>
      <point x="212" y="195" type="line"/>
    </contour>
    <contour>
      <point x="220" y="615" type="line"/>
      <point x="280" y="624" type="line"/>
      <point x="216" y="736" type="line"/>
      <point x="135" y="736" type="line"/>
    </contour>
  </outline>
</glyph>
<glyph name="Z.sc" format="1">
  <advance width="439"/>
  <outline>
    <contour>
      <point x="231" y="760" type="move" name="topUC"/>
    </contour>
    <contour>
      <point x="224" y="0" type="move" name="bottom"/>
    </contour>
    <contour>
      <point x="32" y="0" type="line"/>
      <point x="409" y="0" type="line"/>
      <point x="409" y="68" type="line"/>
      <point x="127" y="68" type="line"/>
      <point x="127" y="73" type="line"/>
      <point x="401" y="510" type="line"/>
      <point x="401" y="577" type="line"/>
      <point x="37" y="577" type="line"/>
      <point x="37" y="509" type="line"/>
      <point x="306" y="509" type="line"/>
      <point x="306" y="504" type="line"/>
      <point x="32" y="68" type="line"/>
    </contour>
  </outline>
</glyph>
<glyph name="ampersand.sc" format="1">
  <advance width="543"/>
  <outline>
    <contour>
      <point x="242" y="-8" type="curve" smooth="yes"/>
      <point x="334" y="-8"/>
      <point x="399" y="26"/>
      <point x="435" y="96" type="curve"/>
      <point x="494" y="59" type="line"/>
      <point x="499" y="59" type="line"/>
      <point x="528" y="121" type="line"/>
      <point x="528" y="125" type="line"/>
      <point x="465" y="162" type="line"/>
      <point x="472" y="192"/>
      <point x="476" y="228"/>
      <point x="476" y="267" type="curve" smooth="yes"/>
      <point x="476" y="323" type="line"/>
      <point x="408" y="323" type="line"/>
      <point x="408" y="281" type="line"/>
      <point x="408" y="252"/>
      <point x="405" y="223"/>
      <point x="400" y="201" type="curve"/>
      <point x="325" y="246" type="line" smooth="yes"/>
      <point x="210" y="316"/>
      <point x="173" y="363"/>
      <point x="173" y="428" type="curve" smooth="yes"/>
      <point x="173" y="491"/>
      <point x="207" y="522"/>
      <point x="275" y="522" type="curve" smooth="yes"/>
      <point x="309" y="522"/>
      <point x="347" y="514"/>
      <point x="390" y="497" type="curve"/>
      <point x="394" y="497" type="line"/>
      <point x="405" y="555" type="line"/>
      <point x="405" y="559" type="line"/>
      <point x="354" y="578"/>
      <point x="312" y="586"/>
      <point x="271" y="586" type="curve" smooth="yes"/>
      <point x="159" y="586"/>
      <point x="97" y="534"/>
      <point x="97" y="437" type="curve" smooth="yes"/>
      <point x="97" y="391"/>
      <point x="111" y="351"/>
      <point x="145" y="310" type="curve"/>
      <point x="78" y="286"/>
      <point x="41" y="233"/>
      <point x="41" y="161" type="curve" smooth="yes"/>
      <point x="41" y="56"/>
      <point x="118" y="-8"/>
    </contour>
    <contour>
      <point x="247" y="55" type="curve" smooth="yes"/>
      <point x="167" y="55"/>
      <point x="118" y="97"/>
      <point x="118" y="164" type="curve" smooth="yes"/>
      <point x="118" y="214"/>
      <point x="142" y="249"/>
      <point x="188" y="268" type="curve"/>
      <point x="214" y="241"/>
      <point x="246" y="219"/>
      <point x="295" y="187" type="curve" smooth="yes"/>
      <point x="379" y="133" type="line"/>
      <point x="355" y="80"/>
      <point x="312" y="55"/>
    </contour>
  </outline>
</glyph>
<glyph name="bar.tab" format="1">
  <advance width="258"/>
  <outline>
    <contour>
      <point x="90" y="808" type="line"/>
      <point x="90" y="-220" type="line"/>
      <point x="167" y="-220" type="line"/>
      <point x="167" y="808" type="line"/>
    </contour>
  </outline>
</glyph>
<glyph name="bracketleft.sc" format="1">
  <advance width="289"/>
  <outline>
    <contour>
      <point x="77" y="-125" type="line"/>
      <point x="253" y="-125" type="line"/>
      <point x="253" y="-70" type="line"/>
      <point x="141" y="-70" type="line"/>
      <point x="141" y="622" type="line"/>
      <point x="253" y="622" type="line"/>
      <point x="253" y="677" type="line"/>
      <point x="77" y="677" type="line"/>
    </contour>
  </outline>
</glyph>
<glyph name="bracketright.sc" format="1">
  <advance width="289"/>
  <outline>
    <contour>
      <point x="211" y="-125" type="line"/>
      <point x="211" y="677" type="line"/>
      <point x="35" y="677" type="line"/>
      <point x="35" y="622" type="line"/>
      <point x="149" y="622" type="line"/>
      <point x="149" y="-70" type="line"/>
      <point x="35" y="-70" type="line"/>
      <point x="35" y="-125" type="line"/>
    </contour>
  </outline>
</glyph>
<glyph name="breve.cap" format="1">
  <advance width="377"/>
  <outline>
    <contour>
      <point x="188" y="774" type="move" name="_topUC"/>
    </contour>
    <contour>
      <point x="190" y="808" type="curve" smooth="yes"/>
      <point x="285" y="808"/>
      <point x="341" y="865"/>
      <point x="341" y="956" type="curve"/>
      <point x="279" y="956" type="line"/>
      <point x="279" y="891"/>
      <point x="248" y="858"/>
      <point x="190" y="858" type="curve" smooth="yes"/>
      <point x="130" y="858"/>
      <point x="100" y="891"/>
      <point x="100" y="956" type="curve"/>
      <point x="38" y="956" type="line"/>
      <point x="38" y="864"/>
      <point x="94" y="808"/>
    </contour>
  </outline>
</glyph>
<glyph name="cent.tab" format="1">
  <advance width="516"/>
  <outline>
    <contour>
      <point x="281" y="-119" type="line"/>
      <point x="344" y="-119" type="line"/>
      <point x="344" y="-9" type="line"/>
      <point x="372" y="-8"/>
      <point x="406" y="-3"/>
      <point x="433" y="4" type="curve"/>
      <point x="433" y="71" type="line"/>
      <point x="392" y="63"/>
      <point x="360" y="59"/>
      <point x="333" y="59" type="curve" smooth="yes"/>
      <point x="215" y="59"/>
      <point x="161" y="126"/>
      <point x="161" y="270" type="curve" smooth="yes"/>
      <point x="161" y="416"/>
      <point x="214" y="480"/>
      <point x="334" y="480" type="curve" smooth="yes"/>
      <point x="365" y="480"/>
      <point x="395" y="477"/>
      <point x="433" y="469" type="curve"/>
      <point x="433" y="537" type="line"/>
      <point x="395" y="544"/>
      <point x="368" y="548"/>
      <point x="344" y="549" type="curve"/>
      <point x="344" y="661" type="line"/>
      <point x="281" y="661" type="line"/>
      <point x="281" y="547" type="line"/>
      <point x="143" y="532"/>
      <point x="74" y="440"/>
      <point x="74" y="270" type="curve" smooth="yes"/>
      <point x="74" y="97"/>
      <point x="142" y="7"/>
      <point x="281" y="-7" type="curve"/>
    </contour>
  </outline>
</glyph>
<glyph name="degree.tab" format="1">
  <advance width="516"/>
  <outline>
    <contour>
      <point x="259" y="371" type="curve" smooth="yes"/>
      <point x="364" y="371"/>
      <point x="434" y="450"/>
      <point x="434" y="560" type="curve" smooth="yes"/>
      <point x="434" y="670"/>
      <point x="364" y="750"/>
      <point x="259" y="750" type="curve" smooth="yes"/>
      <point x="153" y="750"/>
      <point x="82" y="670"/>
      <point x="82" y="560" type="curve" smooth="yes"/>
      <point x="82" y="450"/>
      <point x="153" y="371"/>
    </contour>
    <contour>
      <point x="259" y="424" type="curve" smooth="yes"/>
      <point x="180" y="424"/>
      <point x="137" y="479"/>
      <point x="137" y="560" type="curve" smooth="yes"/>
      <point x="137" y="641"/>
      <point x="180" y="697"/>
      <point x="259" y="697" type="curve" smooth="yes"/>
      <point x="338" y="697"/>
      <point x="379" y="641"/>
      <point x="379" y="560" type="curve" smooth="yes"/>
      <point x="379" y="479"/>
      <point x="338" y="424"/>
    </contour>
  </outline>
</glyph>
